<svg width="829" height="771" viewBox="0 0 829 771" fill="none" xmlns="http://www.w3.org/2000/svg">
<g clip-path="url(#clip0_1045_43)">
<path opacity="0.3" d="M535.856 583.563C535.856 645.054 486.008 694.902 424.517 694.902C363.026 694.902 313.178 645.054 313.178 583.563C313.178 522.072 363.026 472.224 424.517 472.224C486.008 472.224 535.856 522.072 535.856 583.563Z" fill="url(#paint0_linear_1045_43)"/>
<path opacity="0.3" d="M634.57 189.286C634.57 285.326 556.714 363.181 460.674 363.181C364.634 363.181 286.778 285.326 286.778 189.286C286.778 93.2461 364.634 15.3901 460.674 15.3901C556.714 15.3901 634.57 93.2461 634.57 189.286Z" fill="url(#paint1_linear_1045_43)"/>
<path d="M157.538 533.06C179.725 533.06 197.712 551.046 197.712 573.234C197.712 595.421 179.725 613.408 157.538 613.408C135.35 613.408 117.364 595.421 117.364 573.234C117.364 551.046 135.35 533.06 157.538 533.06Z" fill="#3056D3"/>
<path d="M646.436 572.461C646.436 573.202 645.836 573.804 645.094 573.804C644.353 573.804 643.752 573.202 643.752 572.461C643.752 571.72 644.353 571.119 645.094 571.119C645.836 571.119 646.436 571.72 646.436 572.461Z" fill="#3056D3"/>
<path d="M646.436 595.278C646.436 596.019 645.836 596.62 645.094 596.62C644.353 596.62 643.752 596.019 643.752 595.278C643.752 594.536 644.353 593.935 645.094 593.935C645.836 593.935 646.436 594.536 646.436 595.278Z" fill="#3056D3"/>
<path d="M646.436 618.63C646.436 619.371 645.836 619.972 645.094 619.972C644.353 619.972 643.752 619.371 643.752 618.63C643.752 617.889 644.353 617.288 645.094 617.288C645.836 617.288 646.436 617.889 646.436 618.63Z" fill="#3056D3"/>
<path d="M646.436 584.003C646.436 584.744 645.836 585.346 645.094 585.346C644.353 585.346 643.752 584.744 643.752 584.003C643.752 583.262 644.353 582.661 645.094 582.661C645.836 582.661 646.436 583.262 646.436 584.003Z" fill="#3056D3"/>
<path d="M646.436 606.821C646.436 607.562 645.836 608.163 645.094 608.163C644.353 608.163 643.752 607.562 643.752 606.821C643.752 606.079 644.353 605.478 645.094 605.478C645.836 605.478 646.436 606.079 646.436 606.821Z" fill="#3056D3"/>
<path d="M646.436 630.173C646.436 630.914 645.836 631.515 645.094 631.515C644.353 631.515 643.752 630.914 643.752 630.173C643.752 629.431 644.353 628.83 645.094 628.83C645.836 628.83 646.436 629.431 646.436 630.173Z" fill="#3056D3"/>
<path d="M658.247 572.461C658.247 573.202 657.646 573.804 656.905 573.804C656.164 573.804 655.563 573.202 655.563 572.461C655.563 571.72 656.164 571.119 656.905 571.119C657.646 571.119 658.247 571.72 658.247 572.461Z" fill="#3056D3"/>
<path d="M693.412 572.461C693.412 573.202 692.811 573.804 692.069 573.804C691.328 573.804 690.727 573.202 690.727 572.461C690.727 571.72 691.328 571.119 692.069 571.119C692.811 571.119 693.412 571.72 693.412 572.461Z" fill="#3056D3"/>
<path d="M658.247 595.278C658.247 596.019 657.646 596.62 656.905 596.62C656.164 596.62 655.563 596.019 655.563 595.278C655.563 594.536 656.164 593.935 656.905 593.935C657.646 593.935 658.247 594.536 658.247 595.278Z" fill="#3056D3"/>
<path d="M693.412 595.278C693.412 596.019 692.811 596.62 692.069 596.62C691.328 596.62 690.727 596.019 690.727 595.278C690.727 594.536 691.328 593.935 692.069 593.935C692.811 593.935 693.412 594.536 693.412 595.278Z" fill="#3056D3"/>
<path d="M658.247 618.63C658.247 619.371 657.646 619.972 656.905 619.972C656.164 619.972 655.563 619.371 655.563 618.63C655.563 617.889 656.164 617.288 656.905 617.288C657.646 617.288 658.247 617.889 658.247 618.63Z" fill="#3056D3"/>
<path d="M693.412 618.63C693.412 619.371 692.811 619.972 692.069 619.972C691.328 619.972 690.727 619.371 690.727 618.63C690.727 617.889 691.328 617.288 692.069 617.288C692.811 617.288 693.412 617.889 693.412 618.63Z" fill="#3056D3"/>
<path d="M658.247 584.003C658.247 584.744 657.646 585.346 656.905 585.346C656.164 585.346 655.563 584.744 655.563 584.003C655.563 583.262 656.164 582.661 656.905 582.661C657.646 582.661 658.247 583.262 658.247 584.003Z" fill="#3056D3"/>
<path d="M693.412 584.003C693.412 584.744 692.811 585.346 692.069 585.346C691.328 585.346 690.727 584.744 690.727 584.003C690.727 583.262 691.328 582.661 692.069 582.661C692.811 582.661 693.412 583.262 693.412 584.003Z" fill="#3056D3"/>
<path d="M658.247 606.821C658.247 607.562 657.646 608.163 656.905 608.163C656.164 608.163 655.563 607.562 655.563 606.821C655.563 606.079 656.164 605.478 656.905 605.478C657.646 605.478 658.247 606.079 658.247 606.821Z" fill="#3056D3"/>
<path d="M693.412 606.821C693.412 607.562 692.811 608.163 692.069 608.163C691.328 608.163 690.727 607.562 690.727 606.821C690.727 606.079 691.328 605.478 692.069 605.478C692.811 605.478 693.412 606.079 693.412 606.821Z" fill="#3056D3"/>
<path d="M658.247 630.173C658.247 630.914 657.646 631.515 656.905 631.515C656.164 631.515 655.563 630.914 655.563 630.173C655.563 629.431 656.164 628.83 656.905 628.83C657.646 628.83 658.247 629.431 658.247 630.173Z" fill="#3056D3"/>
<path d="M693.412 630.173C693.412 630.914 692.811 631.515 692.069 631.515C691.328 631.515 690.727 630.914 690.727 630.173C690.727 629.431 691.328 628.83 692.069 628.83C692.811 628.83 693.412 629.431 693.412 630.173Z" fill="#3056D3"/>
<path d="M670.058 572.461C670.058 573.202 669.457 573.804 668.716 573.804C667.975 573.804 667.374 573.202 667.374 572.461C667.374 571.72 667.975 571.119 668.716 571.119C669.457 571.119 670.058 571.72 670.058 572.461Z" fill="#3056D3"/>
<path d="M705.222 572.461C705.222 573.202 704.621 573.804 703.88 573.804C703.139 573.804 702.538 573.202 702.538 572.461C702.538 571.72 703.139 571.119 703.88 571.119C704.621 571.119 705.222 571.72 705.222 572.461Z" fill="#3056D3"/>
<path d="M670.058 595.278C670.058 596.019 669.457 596.62 668.716 596.62C667.975 596.62 667.374 596.019 667.374 595.278C667.374 594.536 667.975 593.935 668.716 593.935C669.457 593.935 670.058 594.536 670.058 595.278Z" fill="#3056D3"/>
<path d="M705.222 595.278C705.222 596.019 704.621 596.62 703.88 596.62C703.139 596.62 702.538 596.019 702.538 595.278C702.538 594.536 703.139 593.935 703.88 593.935C704.621 593.935 705.222 594.536 705.222 595.278Z" fill="#3056D3"/>
<path d="M670.058 618.63C670.058 619.371 669.457 619.972 668.716 619.972C667.975 619.972 667.374 619.371 667.374 618.63C667.374 617.889 667.975 617.288 668.716 617.288C669.457 617.288 670.058 617.889 670.058 618.63Z" fill="#3056D3"/>
<path d="M705.222 618.63C705.222 619.371 704.621 619.972 703.88 619.972C703.139 619.972 702.538 619.371 702.538 618.63C702.538 617.889 703.139 617.288 703.88 617.288C704.621 617.288 705.222 617.889 705.222 618.63Z" fill="#3056D3"/>
<path d="M670.058 584.003C670.058 584.744 669.457 585.346 668.716 585.346C667.975 585.346 667.374 584.744 667.374 584.003C667.374 583.262 667.975 582.661 668.716 582.661C669.457 582.661 670.058 583.262 670.058 584.003Z" fill="#3056D3"/>
<path d="M705.222 584.003C705.222 584.744 704.621 585.346 703.88 585.346C703.139 585.346 702.538 584.744 702.538 584.003C702.538 583.262 703.139 582.661 703.88 582.661C704.621 582.661 705.222 583.262 705.222 584.003Z" fill="#3056D3"/>
<path d="M670.058 606.821C670.058 607.562 669.457 608.163 668.716 608.163C667.975 608.163 667.374 607.562 667.374 606.821C667.374 606.079 667.975 605.478 668.716 605.478C669.457 605.478 670.058 606.079 670.058 606.821Z" fill="#3056D3"/>
<path d="M705.222 606.821C705.222 607.562 704.621 608.163 703.88 608.163C703.139 608.163 702.538 607.562 702.538 606.821C702.538 606.079 703.139 605.478 703.88 605.478C704.621 605.478 705.222 606.079 705.222 606.821Z" fill="#3056D3"/>
<path d="M670.058 630.173C670.058 630.914 669.457 631.515 668.716 631.515C667.975 631.515 667.374 630.914 667.374 630.173C667.374 629.431 667.975 628.83 668.716 628.83C669.457 628.83 670.058 629.431 670.058 630.173Z" fill="#3056D3"/>
<path d="M705.222 630.173C705.222 630.914 704.621 631.515 703.88 631.515C703.139 631.515 702.538 630.914 702.538 630.173C702.538 629.431 703.139 628.83 703.88 628.83C704.621 628.83 705.222 629.431 705.222 630.173Z" fill="#3056D3"/>
<path d="M681.869 572.461C681.869 573.202 681.268 573.804 680.526 573.804C679.785 573.804 679.184 573.202 679.184 572.461C679.184 571.72 679.785 571.119 680.526 571.119C681.268 571.119 681.869 571.72 681.869 572.461Z" fill="#3056D3"/>
<path d="M717.033 572.461C717.033 573.202 716.432 573.804 715.691 573.804C714.95 573.804 714.349 573.202 714.349 572.461C714.349 571.72 714.95 571.119 715.691 571.119C716.432 571.119 717.033 571.72 717.033 572.461Z" fill="#3056D3"/>
<path d="M681.869 595.278C681.869 596.019 681.268 596.62 680.526 596.62C679.785 596.62 679.184 596.019 679.184 595.278C679.184 594.536 679.785 593.935 680.526 593.935C681.268 593.935 681.869 594.536 681.869 595.278Z" fill="#3056D3"/>
<path d="M717.033 595.278C717.033 596.019 716.432 596.62 715.691 596.62C714.95 596.62 714.349 596.019 714.349 595.278C714.349 594.536 714.95 593.935 715.691 593.935C716.432 593.935 717.033 594.536 717.033 595.278Z" fill="#3056D3"/>
<path d="M681.869 618.63C681.869 619.371 681.268 619.972 680.526 619.972C679.785 619.972 679.184 619.371 679.184 618.63C679.184 617.889 679.785 617.288 680.526 617.288C681.268 617.288 681.869 617.889 681.869 618.63Z" fill="#3056D3"/>
<path d="M717.033 618.63C717.033 619.371 716.432 619.972 715.691 619.972C714.95 619.972 714.349 619.371 714.349 618.63C714.349 617.889 714.95 617.288 715.691 617.288C716.432 617.288 717.033 617.889 717.033 618.63Z" fill="#3056D3"/>
<path d="M681.869 584.003C681.869 584.744 681.268 585.346 680.526 585.346C679.785 585.346 679.184 584.744 679.184 584.003C679.184 583.262 679.785 582.661 680.526 582.661C681.268 582.661 681.869 583.262 681.869 584.003Z" fill="#3056D3"/>
<path d="M717.033 584.003C717.033 584.744 716.432 585.346 715.691 585.346C714.95 585.346 714.349 584.744 714.349 584.003C714.349 583.262 714.95 582.661 715.691 582.661C716.432 582.661 717.033 583.262 717.033 584.003Z" fill="#3056D3"/>
<path d="M681.869 606.821C681.869 607.562 681.268 608.163 680.526 608.163C679.785 608.163 679.184 607.562 679.184 606.821C679.184 606.079 679.785 605.478 680.526 605.478C681.268 605.478 681.869 606.079 681.869 606.821Z" fill="#3056D3"/>
<path d="M717.033 606.821C717.033 607.562 716.432 608.163 715.691 608.163C714.95 608.163 714.349 607.562 714.349 606.821C714.349 606.079 714.95 605.478 715.691 605.478C716.432 605.478 717.033 606.079 717.033 606.821Z" fill="#3056D3"/>
<path d="M681.869 630.173C681.869 630.914 681.268 631.515 680.526 631.515C679.785 631.515 679.184 630.914 679.184 630.173C679.184 629.431 679.785 628.83 680.526 628.83C681.268 628.83 681.869 629.431 681.869 630.173Z" fill="#3056D3"/>
<path d="M717.033 630.173C717.033 630.914 716.432 631.515 715.691 631.515C714.95 631.515 714.349 630.914 714.349 630.173C714.349 629.431 714.95 628.83 715.691 628.83C716.432 628.83 717.033 629.431 717.033 630.173Z" fill="#3056D3"/>
<path opacity="0.5" fill-rule="evenodd" clip-rule="evenodd" d="M669.006 100.328C653.088 100.328 643.142 107.471 639.161 121.756C645.13 114.613 652.094 111.935 660.052 113.72C664.592 114.738 667.839 117.694 671.429 120.968C677.282 126.298 684.056 132.467 698.849 132.467C714.764 132.467 724.712 125.325 728.691 111.042C722.724 118.184 715.761 120.862 707.803 119.076C703.26 118.058 700.014 115.101 696.423 111.83C690.57 106.495 683.799 100.328 669.006 100.328Z" fill="url(#paint2_linear_1045_43)"/>
<path opacity="0.4" fill-rule="evenodd" clip-rule="evenodd" d="M709.179 87.7021C698.159 87.7021 691.274 92.5491 688.517 102.242C692.65 97.3961 697.471 95.5792 702.98 96.7902C706.123 97.4802 708.371 99.4872 710.857 101.708C714.909 105.325 719.599 109.511 729.84 109.511C740.858 109.511 747.745 104.664 750.5 94.9722C746.369 99.8192 741.548 101.636 736.039 100.424C732.894 99.7331 730.646 97.7271 728.16 95.5071C724.109 91.8871 719.42 87.7021 709.179 87.7021Z" fill="url(#paint3_linear_1045_43)"/>
<path opacity="0.5" fill-rule="evenodd" clip-rule="evenodd" d="M561.875 628.328C547.998 628.328 539.327 633.685 535.856 644.399C541.061 639.042 547.131 637.033 554.069 638.372C558.027 639.135 560.858 641.353 563.988 643.808C569.09 647.806 574.996 652.432 587.892 652.432C601.767 652.432 610.44 647.077 613.909 636.364C608.707 641.721 602.636 643.73 595.698 642.39C591.738 641.626 588.907 639.408 585.777 636.954C580.675 632.953 574.771 628.328 561.875 628.328Z" fill="url(#paint4_linear_1045_43)"/>
<g filter="url(#filter0_d_1045_43)">
<path d="M384.296 162.694C384.296 157.623 388.408 153.512 393.479 153.512H709.09C714.161 153.512 718.272 157.623 718.272 162.694V354.61C718.272 359.682 714.161 363.793 709.09 363.793H393.479C388.408 363.793 384.296 359.682 384.296 354.61V162.694Z" fill="#1B2530"/>
<path d="M384.546 162.694C384.546 157.761 388.546 153.762 393.479 153.762H709.09C714.023 153.762 718.022 157.761 718.022 162.694V354.61C718.022 359.544 714.023 363.543 709.09 363.543H393.479C388.546 363.543 384.546 359.544 384.546 354.61V162.694Z" stroke="#2F3946" stroke-width="0.5"/>
</g>
<path d="M546.485 186.107C546.485 185.185 547.233 184.436 548.156 184.436H558.182C559.104 184.436 559.853 185.185 559.853 186.107C559.853 187.03 559.104 187.778 558.182 187.778H548.156C547.233 187.778 546.485 187.03 546.485 186.107Z" fill="#4D5864"/>
<path d="M571.55 186.107C571.55 185.184 572.298 184.436 573.221 184.436H604.969C605.892 184.436 606.64 185.184 606.64 186.107C606.64 187.03 605.892 187.778 604.969 187.778H573.221C572.298 187.778 571.55 187.03 571.55 186.107Z" fill="#4D5864"/>
<path d="M618.337 186.107C618.337 185.184 619.085 184.436 620.008 184.436H641.731C642.653 184.436 643.402 185.184 643.402 186.107C643.402 187.03 642.653 187.778 641.731 187.778H620.008C619.085 187.778 618.337 187.03 618.337 186.107Z" fill="#4D5864"/>
<path d="M435.271 188.025C434.446 188.025 433.776 187.355 433.776 186.529V183.885C433.776 183.584 434.02 183.34 434.321 183.34C434.622 183.34 434.866 183.584 434.866 183.885V186.15C434.866 186.675 435.291 187.1 435.816 187.1H436.304C436.56 187.1 436.766 187.307 436.766 187.562C436.766 187.818 436.56 188.025 436.304 188.025H435.271Z" fill="white"/>
<path d="M439.71 188.147C439.271 188.147 438.888 188.075 438.56 187.929C438.237 187.78 437.969 187.585 437.756 187.345C437.544 187.101 437.384 186.84 437.278 186.562C437.176 186.28 437.125 186.006 437.125 185.741V185.6C437.125 185.309 437.178 185.022 437.285 184.74C437.395 184.457 437.559 184.201 437.776 183.97C437.993 183.734 438.264 183.548 438.587 183.411C438.91 183.27 439.285 183.2 439.71 183.2C440.135 183.2 440.51 183.27 440.833 183.411C441.156 183.548 441.427 183.734 441.644 183.97C441.861 184.201 442.025 184.457 442.136 184.74C442.246 185.022 442.302 185.309 442.302 185.6V185.741C442.302 186.006 442.248 186.28 442.142 186.562C442.036 186.84 441.876 187.101 441.664 187.345C441.451 187.585 441.181 187.78 440.853 187.929C440.53 188.075 440.149 188.147 439.71 188.147ZM439.71 187.166C440.016 187.166 440.279 187.099 440.501 186.967C440.727 186.834 440.9 186.654 441.019 186.428C441.139 186.201 441.199 185.951 441.199 185.677C441.199 185.386 441.137 185.129 441.012 184.907C440.893 184.68 440.722 184.502 440.501 184.374C440.279 184.246 440.016 184.182 439.71 184.182C439.404 184.182 439.141 184.246 438.919 184.374C438.698 184.502 438.527 184.68 438.408 184.907C438.288 185.129 438.228 185.386 438.228 185.677C438.228 185.951 438.288 186.201 438.408 186.428C438.527 186.654 438.698 186.834 438.919 186.967C439.141 187.099 439.404 187.166 439.71 187.166Z" fill="white"/>
<path d="M445.427 188.147C444.992 188.147 444.614 188.079 444.29 187.942C443.967 187.801 443.699 187.613 443.486 187.377C443.278 187.142 443.123 186.883 443.021 186.601C442.919 186.314 442.868 186.025 442.868 185.735V185.593C442.868 185.298 442.919 185.009 443.021 184.727C443.123 184.445 443.276 184.188 443.48 183.957C443.688 183.726 443.945 183.542 444.25 183.405C444.561 183.268 444.917 183.2 445.32 183.2C445.754 183.2 446.14 183.279 446.477 183.437C446.813 183.595 447.083 183.814 447.287 184.092C447.37 184.203 447.438 184.32 447.493 184.445C447.627 184.748 447.359 185.041 447.028 185.041C446.755 185.041 446.537 184.827 446.365 184.616C446.306 184.543 446.235 184.478 446.151 184.419C445.925 184.261 445.648 184.182 445.32 184.182C445.037 184.182 444.793 184.246 444.589 184.374C444.39 184.498 444.237 184.674 444.131 184.9C444.024 185.123 443.971 185.379 443.971 185.67C443.971 186.128 444.098 186.496 444.35 186.774C444.607 187.052 444.966 187.191 445.427 187.191C445.675 187.191 445.896 187.151 446.091 187.069C446.248 187 446.38 186.915 446.485 186.812C446.533 186.765 446.556 186.699 446.556 186.631C446.556 186.473 446.428 186.344 446.269 186.344H445.666C445.457 186.344 445.287 186.175 445.287 185.966C445.287 185.756 445.457 185.587 445.666 185.587H447.58C447.789 185.587 447.958 185.756 447.958 185.966V186.145C447.958 186.255 447.869 186.344 447.759 186.344C447.649 186.344 447.56 186.433 447.56 186.544V186.96C447.56 187.077 447.528 187.194 447.456 187.287C447.259 187.542 447.006 187.743 446.696 187.891C446.328 188.062 445.905 188.147 445.427 188.147Z" fill="white"/>
<path d="M450.976 188.147C450.537 188.147 450.154 188.075 449.826 187.929C449.503 187.78 449.235 187.585 449.022 187.345C448.809 187.101 448.65 186.84 448.544 186.562C448.442 186.28 448.391 186.006 448.391 185.741V185.6C448.391 185.309 448.444 185.022 448.55 184.74C448.661 184.457 448.825 184.201 449.042 183.97C449.259 183.734 449.529 183.548 449.853 183.411C450.176 183.27 450.55 183.2 450.976 183.2C451.401 183.2 451.775 183.27 452.099 183.411C452.422 183.548 452.692 183.734 452.909 183.97C453.126 184.201 453.29 184.457 453.401 184.74C453.512 185.022 453.567 185.309 453.567 185.6V185.741C453.567 186.006 453.514 186.28 453.408 186.562C453.301 186.84 453.142 187.101 452.929 187.345C452.717 187.585 452.446 187.78 452.119 187.929C451.795 188.075 451.414 188.147 450.976 188.147ZM450.976 187.166C451.281 187.166 451.545 187.099 451.766 186.967C451.992 186.834 452.165 186.654 452.285 186.428C452.404 186.201 452.464 185.951 452.464 185.677C452.464 185.386 452.402 185.129 452.278 184.907C452.159 184.68 451.988 184.502 451.766 184.374C451.545 184.246 451.281 184.182 450.976 184.182C450.67 184.182 450.406 184.246 450.185 184.374C449.963 184.502 449.793 184.68 449.673 184.907C449.554 185.129 449.494 185.386 449.494 185.677C449.494 185.951 449.554 186.201 449.673 186.428C449.793 186.654 449.963 186.834 450.185 186.967C450.406 187.099 450.67 187.166 450.976 187.166Z" fill="white"/>
<path d="M418.57 183.336C420.012 181.894 422.35 181.894 423.792 183.336C425.234 184.778 425.234 187.116 423.792 188.558C422.35 190 420.012 190 418.57 188.558C417.128 187.116 417.128 184.778 418.57 183.336Z" fill="#3056D3"/>
<path d="M421.555 183.337C422.997 181.895 425.335 181.895 426.777 183.337C428.219 184.779 428.219 187.117 426.777 188.559C425.335 190 422.997 190 421.555 188.559C420.113 187.117 420.113 184.779 421.555 183.337Z" fill="#9FAFE3"/>
<path d="M678.247 182.542C678.247 182.222 678.507 181.962 678.827 181.962H688.11C688.431 181.962 688.69 182.222 688.69 182.542C688.69 182.862 688.431 183.122 688.11 183.122H678.827C678.507 183.122 678.247 182.862 678.247 182.542Z" fill="#9EAEE1"/>
<path d="M678.246 186.024C678.246 185.704 678.506 185.444 678.827 185.444H688.11C688.43 185.444 688.69 185.704 688.69 186.024C688.69 186.344 688.43 186.604 688.11 186.604H678.827C678.506 186.604 678.246 186.344 678.246 186.024Z" fill="#9EAEE1"/>
<path d="M678.248 189.504C678.248 189.184 678.507 188.924 678.828 188.924H688.111C688.431 188.924 688.691 189.184 688.691 189.504C688.691 189.824 688.431 190.084 688.111 190.084H678.828C678.507 190.084 678.248 189.824 678.248 189.504Z" fill="#9EAEE1"/>
<path d="M648.778 250.795C648.778 251.028 648.589 251.217 648.356 251.217C648.123 251.217 647.935 251.028 647.935 250.795C647.935 250.562 648.123 250.373 648.356 250.373C648.589 250.373 648.778 250.562 648.778 250.795Z" fill="#5C6A78"/>
<path d="M648.778 254.507C648.778 254.74 648.59 254.929 648.357 254.929C648.124 254.929 647.935 254.74 647.935 254.507C647.935 254.274 648.124 254.085 648.357 254.085C648.59 254.085 648.778 254.274 648.778 254.507Z" fill="#5C6A78"/>
<path d="M648.78 258.219C648.78 258.452 648.591 258.641 648.358 258.641C648.125 258.641 647.936 258.452 647.936 258.219C647.936 257.986 648.125 257.797 648.358 257.797C648.591 257.797 648.78 257.986 648.78 258.219Z" fill="#5C6A78"/>
<path d="M648.78 261.931C648.78 262.164 648.591 262.353 648.358 262.353C648.125 262.353 647.936 262.164 647.936 261.931C647.936 261.698 648.125 261.509 648.358 261.509C648.591 261.509 648.78 261.698 648.78 261.931Z" fill="#5C6A78"/>
<path d="M648.778 265.643C648.778 265.876 648.59 266.065 648.357 266.065C648.124 266.065 647.935 265.876 647.935 265.643C647.935 265.41 648.124 265.221 648.357 265.221C648.59 265.221 648.778 265.41 648.778 265.643Z" fill="#5C6A78"/>
<path d="M648.78 272.814C648.78 273.047 648.591 273.236 648.358 273.236C648.125 273.236 647.936 273.047 647.936 272.814C647.936 272.581 648.125 272.392 648.358 272.392C648.591 272.392 648.78 272.581 648.78 272.814Z" fill="#5C6A78"/>
<path d="M648.778 280.154C648.778 280.387 648.59 280.576 648.357 280.576C648.124 280.576 647.935 280.387 647.935 280.154C647.935 279.921 648.124 279.732 648.357 279.732C648.59 279.732 648.778 279.921 648.778 280.154Z" fill="#5C6A78"/>
<path d="M648.778 269.271C648.778 269.504 648.59 269.693 648.357 269.693C648.124 269.693 647.935 269.504 647.935 269.271C647.935 269.038 648.124 268.849 648.357 268.849C648.59 268.849 648.778 269.038 648.778 269.271Z" fill="#5C6A78"/>
<path d="M648.78 276.442C648.78 276.675 648.591 276.864 648.358 276.864C648.125 276.864 647.936 276.675 647.936 276.442C647.936 276.209 648.125 276.02 648.358 276.02C648.591 276.02 648.78 276.209 648.78 276.442Z" fill="#5C6A78"/>
<path d="M648.778 283.782C648.778 284.015 648.59 284.204 648.357 284.204C648.124 284.204 647.935 284.015 647.935 283.782C647.935 283.549 648.124 283.36 648.357 283.36C648.59 283.36 648.778 283.549 648.778 283.782Z" fill="#5C6A78"/>
<path d="M652.491 250.795C652.491 251.028 652.302 251.217 652.07 251.217C651.837 251.217 651.648 251.028 651.648 250.795C651.648 250.562 651.837 250.373 652.07 250.373C652.302 250.373 652.491 250.562 652.491 250.795Z" fill="#5C6A78"/>
<path d="M652.49 254.507C652.49 254.74 652.301 254.929 652.068 254.929C651.835 254.929 651.646 254.74 651.646 254.507C651.646 254.274 651.835 254.085 652.068 254.085C652.301 254.085 652.49 254.274 652.49 254.507Z" fill="#5C6A78"/>
<path d="M652.491 258.219C652.491 258.452 652.302 258.641 652.07 258.641C651.837 258.641 651.648 258.452 651.648 258.219C651.648 257.986 651.837 257.797 652.07 257.797C652.302 257.797 652.491 257.986 652.491 258.219Z" fill="#5C6A78"/>
<path d="M652.491 261.931C652.491 262.164 652.302 262.353 652.07 262.353C651.837 262.353 651.648 262.164 651.648 261.931C651.648 261.698 651.837 261.509 652.07 261.509C652.302 261.509 652.491 261.698 652.491 261.931Z" fill="#5C6A78"/>
<path d="M652.491 265.643C652.491 265.876 652.302 266.065 652.07 266.065C651.837 266.065 651.648 265.876 651.648 265.643C651.648 265.41 651.837 265.221 652.07 265.221C652.302 265.221 652.491 265.41 652.491 265.643Z" fill="#5C6A78"/>
<path d="M652.491 272.814C652.491 273.047 652.302 273.236 652.07 273.236C651.837 273.236 651.648 273.047 651.648 272.814C651.648 272.581 651.837 272.392 652.07 272.392C652.302 272.392 652.491 272.581 652.491 272.814Z" fill="#5C6A78"/>
<path d="M652.491 280.154C652.491 280.387 652.302 280.576 652.07 280.576C651.837 280.576 651.648 280.387 651.648 280.154C651.648 279.921 651.837 279.732 652.07 279.732C652.302 279.732 652.491 279.921 652.491 280.154Z" fill="#5C6A78"/>
<path d="M652.491 269.271C652.491 269.504 652.302 269.693 652.07 269.693C651.837 269.693 651.648 269.504 651.648 269.271C651.648 269.038 651.837 268.849 652.07 268.849C652.302 268.849 652.491 269.038 652.491 269.271Z" fill="#5C6A78"/>
<path d="M652.491 276.442C652.491 276.675 652.302 276.864 652.07 276.864C651.837 276.864 651.648 276.675 651.648 276.442C651.648 276.209 651.837 276.02 652.07 276.02C652.302 276.02 652.491 276.209 652.491 276.442Z" fill="#5C6A78"/>
<path d="M652.491 283.782C652.491 284.015 652.302 284.204 652.07 284.204C651.837 284.204 651.648 284.015 651.648 283.782C651.648 283.549 651.837 283.36 652.07 283.36C652.302 283.36 652.491 283.549 652.491 283.782Z" fill="#5C6A78"/>
<path d="M656.203 250.795C656.203 251.028 656.014 251.217 655.781 251.217C655.548 251.217 655.359 251.028 655.359 250.795C655.359 250.562 655.548 250.373 655.781 250.373C656.014 250.373 656.203 250.562 656.203 250.795Z" fill="#5C6A78"/>
<path d="M667.254 250.795C667.254 251.028 667.065 251.217 666.832 251.217C666.599 251.217 666.411 251.028 666.411 250.795C666.411 250.562 666.599 250.373 666.832 250.373C667.065 250.373 667.254 250.562 667.254 250.795Z" fill="#5C6A78"/>
<path d="M656.203 254.507C656.203 254.74 656.014 254.929 655.781 254.929C655.548 254.929 655.359 254.74 655.359 254.507C655.359 254.274 655.548 254.085 655.781 254.085C656.014 254.085 656.203 254.274 656.203 254.507Z" fill="#5C6A78"/>
<path d="M667.254 254.507C667.254 254.74 667.065 254.929 666.832 254.929C666.599 254.929 666.411 254.74 666.411 254.507C666.411 254.274 666.599 254.085 666.832 254.085C667.065 254.085 667.254 254.274 667.254 254.507Z" fill="#5C6A78"/>
<path d="M656.204 258.219C656.204 258.452 656.015 258.641 655.782 258.641C655.549 258.641 655.36 258.452 655.36 258.219C655.36 257.986 655.549 257.797 655.782 257.797C656.015 257.797 656.204 257.986 656.204 258.219Z" fill="#5C6A78"/>
<path d="M667.254 258.219C667.254 258.452 667.065 258.641 666.832 258.641C666.599 258.641 666.411 258.452 666.411 258.219C666.411 257.986 666.599 257.797 666.832 257.797C667.065 257.797 667.254 257.986 667.254 258.219Z" fill="#5C6A78"/>
<path d="M656.203 261.931C656.203 262.164 656.014 262.353 655.781 262.353C655.548 262.353 655.359 262.164 655.359 261.931C655.359 261.698 655.548 261.509 655.781 261.509C656.014 261.509 656.203 261.698 656.203 261.931Z" fill="#5C6A78"/>
<path d="M667.254 261.931C667.254 262.164 667.065 262.353 666.832 262.353C666.599 262.353 666.411 262.164 666.411 261.931C666.411 261.698 666.599 261.509 666.832 261.509C667.065 261.509 667.254 261.698 667.254 261.931Z" fill="#5C6A78"/>
<path d="M656.203 265.643C656.203 265.876 656.014 266.065 655.781 266.065C655.548 266.065 655.359 265.876 655.359 265.643C655.359 265.41 655.548 265.221 655.781 265.221C656.014 265.221 656.203 265.41 656.203 265.643Z" fill="#5C6A78"/>
<path d="M667.254 265.643C667.254 265.876 667.065 266.065 666.832 266.065C666.599 266.065 666.411 265.876 666.411 265.643C666.411 265.41 666.599 265.221 666.832 265.221C667.065 265.221 667.254 265.41 667.254 265.643Z" fill="#5C6A78"/>
<path d="M656.203 272.814C656.203 273.047 656.014 273.236 655.781 273.236C655.548 273.236 655.359 273.047 655.359 272.814C655.359 272.581 655.548 272.392 655.781 272.392C656.014 272.392 656.203 272.581 656.203 272.814Z" fill="#5C6A78"/>
<path d="M667.254 272.814C667.254 273.047 667.065 273.236 666.832 273.236C666.599 273.236 666.411 273.047 666.411 272.814C666.411 272.581 666.599 272.392 666.832 272.392C667.065 272.392 667.254 272.581 667.254 272.814Z" fill="#5C6A78"/>
<path d="M656.203 280.154C656.203 280.387 656.014 280.576 655.781 280.576C655.548 280.576 655.359 280.387 655.359 280.154C655.359 279.921 655.548 279.732 655.781 279.732C656.014 279.732 656.203 279.921 656.203 280.154Z" fill="#5C6A78"/>
<path d="M667.254 280.154C667.254 280.387 667.065 280.576 666.832 280.576C666.599 280.576 666.411 280.387 666.411 280.154C666.411 279.921 666.599 279.732 666.832 279.732C667.065 279.732 667.254 279.921 667.254 280.154Z" fill="#5C6A78"/>
<path d="M656.203 269.27C656.203 269.503 656.014 269.692 655.781 269.692C655.548 269.692 655.359 269.503 655.359 269.27C655.359 269.037 655.548 268.849 655.781 268.849C656.014 268.849 656.203 269.037 656.203 269.27Z" fill="#5C6A78"/>
<path d="M667.254 269.27C667.254 269.503 667.065 269.692 666.832 269.692C666.599 269.692 666.411 269.503 666.411 269.27C666.411 269.037 666.599 268.849 666.832 268.849C667.065 268.849 667.254 269.037 667.254 269.27Z" fill="#5C6A78"/>
<path d="M656.203 276.442C656.203 276.675 656.014 276.864 655.781 276.864C655.548 276.864 655.359 276.675 655.359 276.442C655.359 276.209 655.548 276.02 655.781 276.02C656.014 276.02 656.203 276.209 656.203 276.442Z" fill="#5C6A78"/>
<path d="M667.254 276.442C667.254 276.675 667.065 276.864 666.832 276.864C666.599 276.864 666.411 276.675 666.411 276.442C666.411 276.209 666.599 276.02 666.832 276.02C667.065 276.02 667.254 276.209 667.254 276.442Z" fill="#5C6A78"/>
<path d="M656.203 283.782C656.203 284.015 656.014 284.204 655.781 284.204C655.548 284.204 655.359 284.015 655.359 283.782C655.359 283.549 655.548 283.36 655.781 283.36C656.014 283.36 656.203 283.549 656.203 283.782Z" fill="#5C6A78"/>
<path d="M667.254 283.782C667.254 284.015 667.065 284.204 666.832 284.204C666.599 284.204 666.411 284.015 666.411 283.782C666.411 283.549 666.599 283.36 666.832 283.36C667.065 283.36 667.254 283.549 667.254 283.782Z" fill="#5C6A78"/>
<path d="M659.916 250.795C659.916 251.028 659.727 251.217 659.494 251.217C659.261 251.217 659.072 251.028 659.072 250.795C659.072 250.562 659.261 250.373 659.494 250.373C659.727 250.373 659.916 250.562 659.916 250.795Z" fill="#5C6A78"/>
<path d="M670.967 250.795C670.967 251.028 670.778 251.217 670.545 251.217C670.312 251.217 670.124 251.028 670.124 250.795C670.124 250.562 670.312 250.373 670.545 250.373C670.778 250.373 670.967 250.562 670.967 250.795Z" fill="#5C6A78"/>
<path d="M659.915 254.507C659.915 254.74 659.726 254.929 659.493 254.929C659.26 254.929 659.071 254.74 659.071 254.507C659.071 254.274 659.26 254.085 659.493 254.085C659.726 254.085 659.915 254.274 659.915 254.507Z" fill="#5C6A78"/>
<path d="M670.966 254.507C670.966 254.74 670.777 254.929 670.544 254.929C670.311 254.929 670.122 254.74 670.122 254.507C670.122 254.274 670.311 254.085 670.544 254.085C670.777 254.085 670.966 254.274 670.966 254.507Z" fill="#5C6A78"/>
<path d="M659.915 258.219C659.915 258.452 659.726 258.641 659.493 258.641C659.26 258.641 659.071 258.452 659.071 258.219C659.071 257.986 659.26 257.797 659.493 257.797C659.726 257.797 659.915 257.986 659.915 258.219Z" fill="#5C6A78"/>
<path d="M670.966 258.219C670.966 258.452 670.777 258.641 670.544 258.641C670.311 258.641 670.122 258.452 670.122 258.219C670.122 257.986 670.311 257.797 670.544 257.797C670.777 257.797 670.966 257.986 670.966 258.219Z" fill="#5C6A78"/>
<path d="M659.916 261.931C659.916 262.164 659.727 262.353 659.494 262.353C659.261 262.353 659.072 262.164 659.072 261.931C659.072 261.698 659.261 261.509 659.494 261.509C659.727 261.509 659.916 261.698 659.916 261.931Z" fill="#5C6A78"/>
<path d="M670.967 261.931C670.967 262.164 670.778 262.353 670.545 262.353C670.312 262.353 670.124 262.164 670.124 261.931C670.124 261.698 670.312 261.509 670.545 261.509C670.778 261.509 670.967 261.698 670.967 261.931Z" fill="#5C6A78"/>
<path d="M659.915 265.643C659.915 265.876 659.726 266.065 659.493 266.065C659.26 266.065 659.071 265.876 659.071 265.643C659.071 265.41 659.26 265.221 659.493 265.221C659.726 265.221 659.915 265.41 659.915 265.643Z" fill="#5C6A78"/>
<path d="M670.966 265.643C670.966 265.876 670.777 266.065 670.544 266.065C670.311 266.065 670.122 265.876 670.122 265.643C670.122 265.41 670.311 265.221 670.544 265.221C670.777 265.221 670.966 265.41 670.966 265.643Z" fill="#5C6A78"/>
<path d="M659.915 272.814C659.915 273.047 659.726 273.236 659.493 273.236C659.26 273.236 659.071 273.047 659.071 272.814C659.071 272.581 659.26 272.392 659.493 272.392C659.726 272.392 659.915 272.581 659.915 272.814Z" fill="#5C6A78"/>
<path d="M670.967 272.814C670.967 273.047 670.778 273.236 670.545 273.236C670.312 273.236 670.124 273.047 670.124 272.814C670.124 272.581 670.312 272.392 670.545 272.392C670.778 272.392 670.967 272.581 670.967 272.814Z" fill="#5C6A78"/>
<path d="M659.915 280.154C659.915 280.387 659.726 280.576 659.493 280.576C659.26 280.576 659.071 280.387 659.071 280.154C659.071 279.921 659.26 279.732 659.493 279.732C659.726 279.732 659.915 279.921 659.915 280.154Z" fill="#5C6A78"/>
<path d="M670.966 280.154C670.966 280.387 670.777 280.576 670.544 280.576C670.311 280.576 670.122 280.387 670.122 280.154C670.122 279.921 670.311 279.732 670.544 279.732C670.777 279.732 670.966 279.921 670.966 280.154Z" fill="#5C6A78"/>
<path d="M659.915 269.27C659.915 269.503 659.726 269.692 659.493 269.692C659.26 269.692 659.071 269.503 659.071 269.27C659.071 269.037 659.26 268.849 659.493 268.849C659.726 268.849 659.915 269.037 659.915 269.27Z" fill="#5C6A78"/>
<path d="M670.966 269.27C670.966 269.503 670.777 269.692 670.544 269.692C670.311 269.692 670.122 269.503 670.122 269.27C670.122 269.037 670.311 268.849 670.544 268.849C670.777 268.849 670.966 269.037 670.966 269.27Z" fill="#5C6A78"/>
<path d="M659.915 276.442C659.915 276.675 659.726 276.864 659.493 276.864C659.26 276.864 659.071 276.675 659.071 276.442C659.071 276.209 659.26 276.02 659.493 276.02C659.726 276.02 659.915 276.209 659.915 276.442Z" fill="#5C6A78"/>
<path d="M670.967 276.442C670.967 276.675 670.778 276.864 670.545 276.864C670.312 276.864 670.124 276.675 670.124 276.442C670.124 276.209 670.312 276.02 670.545 276.02C670.778 276.02 670.967 276.209 670.967 276.442Z" fill="#5C6A78"/>
<path d="M659.915 283.782C659.915 284.015 659.726 284.204 659.493 284.204C659.26 284.204 659.071 284.015 659.071 283.782C659.071 283.549 659.26 283.36 659.493 283.36C659.726 283.36 659.915 283.549 659.915 283.782Z" fill="#5C6A78"/>
<path d="M670.966 283.782C670.966 284.015 670.777 284.204 670.544 284.204C670.311 284.204 670.122 284.015 670.122 283.782C670.122 283.549 670.311 283.36 670.544 283.36C670.777 283.36 670.966 283.549 670.966 283.782Z" fill="#5C6A78"/>
<path d="M663.628 250.795C663.628 251.028 663.439 251.217 663.206 251.217C662.973 251.217 662.784 251.028 662.784 250.795C662.784 250.562 662.973 250.373 663.206 250.373C663.439 250.373 663.628 250.562 663.628 250.795Z" fill="#5C6A78"/>
<path d="M674.679 250.795C674.679 251.028 674.49 251.217 674.257 251.217C674.024 251.217 673.835 251.028 673.835 250.795C673.835 250.562 674.024 250.373 674.257 250.373C674.49 250.373 674.679 250.562 674.679 250.795Z" fill="#5C6A78"/>
<path d="M663.628 254.507C663.628 254.74 663.439 254.929 663.206 254.929C662.973 254.929 662.784 254.74 662.784 254.507C662.784 254.274 662.973 254.085 663.206 254.085C663.439 254.085 663.628 254.274 663.628 254.507Z" fill="#5C6A78"/>
<path d="M674.679 254.507C674.679 254.74 674.49 254.929 674.257 254.929C674.024 254.929 673.835 254.74 673.835 254.507C673.835 254.274 674.024 254.085 674.257 254.085C674.49 254.085 674.679 254.274 674.679 254.507Z" fill="#5C6A78"/>
<path d="M663.627 258.219C663.627 258.452 663.438 258.641 663.205 258.641C662.972 258.641 662.783 258.452 662.783 258.219C662.783 257.986 662.972 257.797 663.205 257.797C663.438 257.797 663.627 257.986 663.627 258.219Z" fill="#5C6A78"/>
<path d="M674.678 258.219C674.678 258.452 674.489 258.64 674.256 258.64C674.023 258.64 673.834 258.452 673.834 258.219C673.834 257.986 674.023 257.797 674.256 257.797C674.489 257.797 674.678 257.986 674.678 258.219Z" fill="#5C6A78"/>
<path d="M663.627 261.931C663.627 262.163 663.438 262.352 663.205 262.352C662.972 262.352 662.783 262.163 662.783 261.931C662.783 261.698 662.972 261.509 663.205 261.509C663.438 261.509 663.627 261.698 663.627 261.931Z" fill="#5C6A78"/>
<path d="M674.679 261.931C674.679 262.164 674.49 262.353 674.257 262.353C674.024 262.353 673.835 262.164 673.835 261.931C673.835 261.698 674.024 261.509 674.257 261.509C674.49 261.509 674.679 261.698 674.679 261.931Z" fill="#5C6A78"/>
<path d="M663.628 265.643C663.628 265.876 663.439 266.065 663.206 266.065C662.973 266.065 662.784 265.876 662.784 265.643C662.784 265.41 662.973 265.221 663.206 265.221C663.439 265.221 663.628 265.41 663.628 265.643Z" fill="#5C6A78"/>
<path d="M674.679 265.643C674.679 265.876 674.49 266.065 674.257 266.065C674.024 266.065 673.835 265.876 673.835 265.643C673.835 265.41 674.024 265.221 674.257 265.221C674.49 265.221 674.679 265.41 674.679 265.643Z" fill="#5C6A78"/>
<path d="M663.627 272.814C663.627 273.047 663.438 273.236 663.205 273.236C662.972 273.236 662.783 273.047 662.783 272.814C662.783 272.581 662.972 272.392 663.205 272.392C663.438 272.392 663.627 272.581 663.627 272.814Z" fill="#5C6A78"/>
<path d="M674.678 272.813C674.678 273.046 674.489 273.235 674.256 273.235C674.023 273.235 673.834 273.046 673.834 272.813C673.834 272.58 674.023 272.391 674.256 272.391C674.489 272.391 674.678 272.58 674.678 272.813Z" fill="#5C6A78"/>
<path d="M663.628 280.154C663.628 280.387 663.439 280.576 663.206 280.576C662.973 280.576 662.784 280.387 662.784 280.154C662.784 279.921 662.973 279.732 663.206 279.732C663.439 279.732 663.628 279.921 663.628 280.154Z" fill="#5C6A78"/>
<path d="M674.679 280.154C674.679 280.387 674.49 280.576 674.257 280.576C674.024 280.576 673.835 280.387 673.835 280.154C673.835 279.921 674.024 279.732 674.257 279.732C674.49 279.732 674.679 279.921 674.679 280.154Z" fill="#5C6A78"/>
<path d="M663.628 269.271C663.628 269.504 663.439 269.693 663.206 269.693C662.973 269.693 662.784 269.504 662.784 269.271C662.784 269.038 662.973 268.849 663.206 268.849C663.439 268.849 663.628 269.038 663.628 269.271Z" fill="#5C6A78"/>
<path d="M674.679 269.271C674.679 269.504 674.49 269.693 674.257 269.693C674.024 269.693 673.835 269.504 673.835 269.271C673.835 269.038 674.024 268.849 674.257 268.849C674.49 268.849 674.679 269.038 674.679 269.271Z" fill="#5C6A78"/>
<path d="M663.627 276.442C663.627 276.675 663.438 276.864 663.205 276.864C662.972 276.864 662.783 276.675 662.783 276.442C662.783 276.209 662.972 276.02 663.205 276.02C663.438 276.02 663.627 276.209 663.627 276.442Z" fill="#5C6A78"/>
<path d="M674.678 276.442C674.678 276.675 674.489 276.864 674.256 276.864C674.023 276.864 673.834 276.675 673.834 276.442C673.834 276.209 674.023 276.02 674.256 276.02C674.489 276.02 674.678 276.209 674.678 276.442Z" fill="#5C6A78"/>
<path d="M663.628 283.782C663.628 284.015 663.439 284.204 663.206 284.204C662.973 284.204 662.784 284.015 662.784 283.782C662.784 283.549 662.973 283.36 663.206 283.36C663.439 283.36 663.628 283.549 663.628 283.782Z" fill="#5C6A78"/>
<path d="M674.679 283.782C674.679 284.015 674.49 284.204 674.257 284.204C674.024 284.204 673.835 284.015 673.835 283.782C673.835 283.549 674.024 283.36 674.257 283.36C674.49 283.36 674.679 283.549 674.679 283.782Z" fill="#5C6A78"/>
<path d="M443.485 335.64C443.252 335.64 443.063 335.452 443.063 335.219C443.063 334.986 443.252 334.797 443.485 334.797C443.718 334.797 443.907 334.986 443.907 335.219C443.907 335.452 443.718 335.64 443.485 335.64Z" fill="#3056D3"/>
<path d="M439.774 335.64C439.541 335.64 439.352 335.451 439.352 335.218C439.352 334.985 439.541 334.796 439.774 334.796C440.007 334.796 440.196 334.985 440.196 335.218C440.196 335.451 440.007 335.64 439.774 335.64Z" fill="#3056D3"/>
<path d="M436.062 335.64C435.829 335.64 435.64 335.451 435.64 335.218C435.64 334.985 435.829 334.796 436.062 334.796C436.295 334.796 436.484 334.985 436.484 335.218C436.484 335.451 436.295 335.64 436.062 335.64Z" fill="#3056D3"/>
<path d="M432.35 335.64C432.117 335.64 431.928 335.451 431.928 335.218C431.928 334.985 432.117 334.796 432.35 334.796C432.583 334.796 432.771 334.985 432.771 335.218C432.771 335.451 432.583 335.64 432.35 335.64Z" fill="#3056D3"/>
<path d="M428.639 335.64C428.406 335.64 428.217 335.451 428.217 335.218C428.217 334.985 428.406 334.796 428.639 334.796C428.872 334.796 429.061 334.985 429.061 335.218C429.061 335.451 428.872 335.64 428.639 335.64Z" fill="#3056D3"/>
<path d="M443.486 339.352C443.253 339.352 443.064 339.163 443.064 338.931C443.064 338.698 443.253 338.509 443.486 338.509C443.719 338.509 443.908 338.698 443.908 338.931C443.908 339.163 443.719 339.352 443.486 339.352Z" fill="#3056D3"/>
<path d="M439.774 339.352C439.541 339.352 439.352 339.163 439.352 338.931C439.352 338.698 439.541 338.509 439.774 338.509C440.007 338.509 440.196 338.698 440.196 338.931C440.196 339.163 440.007 339.352 439.774 339.352Z" fill="#3056D3"/>
<path d="M436.061 339.352C435.828 339.352 435.64 339.163 435.64 338.931C435.64 338.698 435.828 338.509 436.061 338.509C436.294 338.509 436.483 338.698 436.483 338.931C436.483 339.163 436.294 339.352 436.061 339.352Z" fill="#3056D3"/>
<path d="M432.35 339.352C432.117 339.352 431.928 339.163 431.928 338.93C431.928 338.697 432.117 338.508 432.35 338.508C432.583 338.508 432.771 338.697 432.771 338.93C432.771 339.163 432.583 339.352 432.35 339.352Z" fill="#3056D3"/>
<path d="M428.639 339.352C428.406 339.352 428.217 339.163 428.217 338.931C428.217 338.698 428.406 338.509 428.639 338.509C428.872 338.509 429.061 338.698 429.061 338.931C429.061 339.163 428.872 339.352 428.639 339.352Z" fill="#3056D3"/>
<path d="M443.487 343.064C443.254 343.064 443.065 342.875 443.065 342.642C443.065 342.409 443.254 342.221 443.487 342.221C443.72 342.221 443.909 342.409 443.909 342.642C443.909 342.875 443.72 343.064 443.487 343.064Z" fill="#3056D3"/>
<path d="M443.486 354.117C443.253 354.117 443.064 353.928 443.064 353.695C443.064 353.462 443.253 353.273 443.486 353.273C443.719 353.273 443.908 353.462 443.908 353.695C443.908 353.928 443.719 354.117 443.486 354.117Z" fill="#3056D3"/>
<path d="M439.775 343.064C439.542 343.064 439.353 342.875 439.353 342.642C439.353 342.409 439.542 342.221 439.775 342.221C440.008 342.221 440.197 342.409 440.197 342.642C440.197 342.875 440.008 343.064 439.775 343.064Z" fill="#3056D3"/>
<path d="M439.774 354.117C439.541 354.117 439.352 353.928 439.352 353.695C439.352 353.462 439.541 353.273 439.774 353.273C440.007 353.273 440.196 353.462 440.196 353.695C440.196 353.928 440.007 354.117 439.774 354.117Z" fill="#3056D3"/>
<path d="M436.062 343.064C435.829 343.064 435.64 342.875 435.64 342.642C435.64 342.409 435.829 342.221 436.062 342.221C436.295 342.221 436.484 342.409 436.484 342.642C436.484 342.875 436.295 343.064 436.062 343.064Z" fill="#3056D3"/>
<path d="M436.062 354.117C435.829 354.117 435.64 353.928 435.64 353.695C435.64 353.462 435.829 353.273 436.062 353.273C436.295 353.273 436.484 353.462 436.484 353.695C436.484 353.928 436.295 354.117 436.062 354.117Z" fill="#3056D3"/>
<path d="M432.351 343.064C432.118 343.064 431.929 342.875 431.929 342.642C431.929 342.409 432.118 342.221 432.351 342.221C432.584 342.221 432.772 342.409 432.772 342.642C432.772 342.875 432.584 343.064 432.351 343.064Z" fill="#3056D3"/>
<path d="M432.35 354.117C432.117 354.117 431.928 353.928 431.928 353.695C431.928 353.462 432.117 353.273 432.35 353.273C432.583 353.273 432.771 353.462 432.771 353.695C432.771 353.928 432.583 354.117 432.35 354.117Z" fill="#3056D3"/>
<path d="M428.638 343.064C428.405 343.064 428.216 342.875 428.216 342.642C428.216 342.409 428.405 342.221 428.638 342.221C428.871 342.221 429.06 342.409 429.06 342.642C429.06 342.875 428.871 343.064 428.638 343.064Z" fill="#3056D3"/>
<path d="M428.639 354.117C428.406 354.117 428.217 353.928 428.217 353.695C428.217 353.462 428.406 353.273 428.639 353.273C428.872 353.273 429.061 353.462 429.061 353.695C429.061 353.928 428.872 354.117 428.639 354.117Z" fill="#3056D3"/>
<path d="M443.487 346.776C443.254 346.776 443.065 346.587 443.065 346.354C443.065 346.121 443.254 345.933 443.487 345.933C443.72 345.933 443.909 346.121 443.909 346.354C443.909 346.587 443.72 346.776 443.487 346.776Z" fill="#3056D3"/>
<path d="M443.486 357.829C443.253 357.829 443.064 357.64 443.064 357.407C443.064 357.174 443.253 356.985 443.486 356.985C443.719 356.985 443.908 357.174 443.908 357.407C443.908 357.64 443.719 357.829 443.486 357.829Z" fill="#3056D3"/>
<path d="M439.774 346.776C439.541 346.776 439.352 346.587 439.352 346.354C439.352 346.121 439.541 345.932 439.774 345.932C440.007 345.932 440.196 346.121 440.196 346.354C440.196 346.587 440.007 346.776 439.774 346.776Z" fill="#3056D3"/>
<path d="M439.774 357.828C439.541 357.828 439.352 357.64 439.352 357.407C439.352 357.174 439.541 356.985 439.774 356.985C440.007 356.985 440.196 357.174 440.196 357.407C440.196 357.64 440.007 357.828 439.774 357.828Z" fill="#3056D3"/>
<path d="M436.062 346.775C435.829 346.775 435.64 346.586 435.64 346.353C435.64 346.12 435.829 345.932 436.062 345.932C436.295 345.932 436.484 346.12 436.484 346.353C436.484 346.586 436.295 346.775 436.062 346.775Z" fill="#3056D3"/>
<path d="M436.062 357.828C435.829 357.828 435.64 357.64 435.64 357.407C435.64 357.174 435.829 356.985 436.062 356.985C436.295 356.985 436.484 357.174 436.484 357.407C436.484 357.64 436.295 357.828 436.062 357.828Z" fill="#3056D3"/>
<path d="M432.351 346.776C432.118 346.776 431.929 346.587 431.929 346.354C431.929 346.121 432.118 345.932 432.351 345.932C432.584 345.932 432.772 346.121 432.772 346.354C432.772 346.587 432.584 346.776 432.351 346.776Z" fill="#3056D3"/>
<path d="M432.351 357.828C432.118 357.828 431.929 357.64 431.929 357.407C431.929 357.174 432.118 356.985 432.351 356.985C432.584 356.985 432.772 357.174 432.772 357.407C432.772 357.64 432.584 357.828 432.351 357.828Z" fill="#3056D3"/>
<path d="M428.638 346.776C428.405 346.776 428.216 346.587 428.216 346.354C428.216 346.121 428.405 345.932 428.638 345.932C428.871 345.932 429.06 346.121 429.06 346.354C429.06 346.587 428.871 346.776 428.638 346.776Z" fill="#3056D3"/>
<path d="M428.639 357.828C428.406 357.828 428.217 357.639 428.217 357.406C428.217 357.173 428.406 356.984 428.639 356.984C428.872 356.984 429.061 357.173 429.061 357.406C429.061 357.639 428.872 357.828 428.639 357.828Z" fill="#3056D3"/>
<path d="M443.486 350.489C443.253 350.489 443.064 350.3 443.064 350.067C443.064 349.834 443.253 349.645 443.486 349.645C443.719 349.645 443.908 349.834 443.908 350.067C443.908 350.3 443.719 350.489 443.486 350.489Z" fill="#3056D3"/>
<path d="M443.487 361.541C443.254 361.541 443.065 361.352 443.065 361.119C443.065 360.886 443.254 360.697 443.487 360.697C443.72 360.697 443.909 360.886 443.909 361.119C443.909 361.352 443.72 361.541 443.487 361.541Z" fill="#3056D3"/>
<path d="M439.774 350.489C439.541 350.489 439.352 350.3 439.352 350.067C439.352 349.834 439.541 349.645 439.774 349.645C440.007 349.645 440.196 349.834 440.196 350.067C440.196 350.3 440.007 350.489 439.774 350.489Z" fill="#3056D3"/>
<path d="M439.775 361.54C439.542 361.54 439.353 361.352 439.353 361.119C439.353 360.886 439.542 360.697 439.775 360.697C440.008 360.697 440.197 360.886 440.197 361.119C440.197 361.352 440.008 361.54 439.775 361.54Z" fill="#3056D3"/>
<path d="M436.062 350.489C435.829 350.489 435.64 350.3 435.64 350.067C435.64 349.834 435.829 349.645 436.062 349.645C436.295 349.645 436.484 349.834 436.484 350.067C436.484 350.3 436.295 350.489 436.062 350.489Z" fill="#3056D3"/>
<path d="M436.062 361.54C435.829 361.54 435.64 361.352 435.64 361.119C435.64 360.886 435.829 360.697 436.062 360.697C436.295 360.697 436.484 360.886 436.484 361.119C436.484 361.352 436.295 361.54 436.062 361.54Z" fill="#3056D3"/>
<path d="M432.35 350.489C432.117 350.489 431.928 350.3 431.928 350.067C431.928 349.834 432.117 349.645 432.35 349.645C432.583 349.645 432.771 349.834 432.771 350.067C432.771 350.3 432.583 350.489 432.35 350.489Z" fill="#3056D3"/>
<path d="M432.351 361.54C432.118 361.54 431.929 361.352 431.929 361.119C431.929 360.886 432.118 360.697 432.351 360.697C432.584 360.697 432.772 360.886 432.772 361.119C432.772 361.352 432.584 361.54 432.351 361.54Z" fill="#3056D3"/>
<path d="M428.639 350.489C428.406 350.489 428.217 350.3 428.217 350.067C428.217 349.834 428.406 349.645 428.639 349.645C428.872 349.645 429.061 349.834 429.061 350.067C429.061 350.3 428.872 350.489 428.639 350.489Z" fill="#3056D3"/>
<path d="M428.638 361.54C428.405 361.54 428.216 361.352 428.216 361.119C428.216 360.886 428.405 360.697 428.638 360.697C428.871 360.697 429.06 360.886 429.06 361.119C429.06 361.352 428.871 361.54 428.638 361.54Z" fill="#3056D3"/>
<path d="M435.011 260.841C435.011 258.94 436.553 257.398 438.455 257.398H662.877C664.779 257.398 666.32 258.94 666.32 260.841V363.775H435.011V260.841Z" fill="#2D3A47"/>
<path d="M514.175 293.288C514.175 291.239 515.836 289.578 517.885 289.578H584.681C586.73 289.578 588.391 291.239 588.391 293.288C588.391 295.338 586.73 296.999 584.681 296.999H517.885C515.836 296.999 514.175 295.338 514.175 293.288Z" fill="#4D5864"/>
<path d="M545.913 317.767C545.913 316.943 546.581 316.275 547.405 316.275H568.292C569.116 316.275 569.784 316.943 569.784 317.767C569.784 318.591 569.116 319.259 568.292 319.259H547.405C546.581 319.259 545.913 318.591 545.913 317.767Z" fill="#4D5864"/>
<path d="M577.244 317.766C577.244 316.942 577.912 316.274 578.736 316.274H617.526C618.35 316.274 619.018 316.942 619.018 317.766C619.018 318.59 618.35 319.258 617.526 319.258H578.736C577.912 319.258 577.244 318.59 577.244 317.766Z" fill="#4D5864"/>
<path d="M483.251 317.766C483.251 316.942 483.919 316.274 484.743 316.274H536.961C537.785 316.274 538.453 316.942 538.453 317.766C538.453 318.59 537.785 319.258 536.961 319.258H484.743C483.919 319.258 483.251 318.59 483.251 317.766Z" fill="#4D5864"/>
<path d="M519.878 328.21C519.878 327.386 519.21 326.718 518.386 326.718H505.631C504.807 326.718 504.139 327.386 504.139 328.21C504.139 329.034 504.807 329.702 505.631 329.702H518.386C519.21 329.702 519.878 329.034 519.878 328.21Z" fill="#4D5864"/>
<path d="M554.062 328.21C554.062 327.386 553.394 326.718 552.57 326.718H528.01C527.186 326.718 526.518 327.386 526.518 328.21C526.518 329.034 527.186 329.702 528.01 329.702H552.57C553.394 329.702 554.062 329.034 554.062 328.21Z" fill="#4D5864"/>
<path d="M596.639 328.209C596.639 327.385 595.971 326.717 595.147 326.717H561.734C560.91 326.717 560.242 327.385 560.242 328.209C560.242 329.033 560.91 329.701 561.734 329.701H595.147C595.971 329.701 596.639 329.033 596.639 328.209Z" fill="#4D5864"/>
<g filter="url(#filter1_d_1045_43)">
<path d="M90.5 79.6684C90.5 74.597 94.6112 70.4858 99.6826 70.4858H408.008C413.08 70.4858 417.191 74.597 417.191 79.6684V266.997C417.191 272.069 413.08 276.18 408.008 276.18H99.6826C94.6112 276.18 90.5 272.069 90.5 266.997V79.6684Z" fill="#1B2530"/>
<path d="M90.75 79.6684C90.75 74.7351 94.7493 70.7358 99.6826 70.7358H408.008C412.942 70.7358 416.941 74.7351 416.941 79.6684V266.997C416.941 271.931 412.942 275.93 408.008 275.93H99.6826C94.7493 275.93 90.75 271.931 90.75 266.997V79.6684Z" stroke="#2F3946" stroke-width="0.5"/>
</g>
<path d="M118.327 214.564C118.327 212.662 119.869 211.12 121.771 211.12H386.149C388.051 211.12 389.592 212.662 389.592 214.564V240.066C389.592 241.968 388.051 243.51 386.149 243.51H121.771C119.869 243.51 118.327 241.968 118.327 240.066V214.564Z" fill="#2E3B49"/>
<path d="M145.686 229.304V225.476H146.651V228.549H148.333V229.304H145.686Z" fill="white"/>
<path d="M150.939 229.405C150.551 229.405 150.211 229.345 149.921 229.227C149.635 229.104 149.398 228.945 149.209 228.749C149.021 228.55 148.88 228.337 148.786 228.11C148.696 227.879 148.651 227.655 148.651 227.438V227.323C148.651 227.085 148.698 226.851 148.792 226.62C148.89 226.39 149.035 226.18 149.227 225.991C149.419 225.799 149.659 225.647 149.945 225.535C150.231 225.419 150.562 225.362 150.939 225.362C151.315 225.362 151.647 225.419 151.933 225.535C152.219 225.647 152.459 225.799 152.651 225.991C152.843 226.18 152.988 226.39 153.086 226.62C153.184 226.851 153.233 227.085 153.233 227.323V227.438C153.233 227.655 153.186 227.879 153.092 228.11C152.998 228.337 152.857 228.55 152.668 228.749C152.48 228.945 152.241 229.104 151.951 229.227C151.664 229.345 151.327 229.405 150.939 229.405ZM150.939 228.602C151.21 228.602 151.443 228.548 151.639 228.44C151.839 228.332 151.992 228.185 152.098 227.999C152.204 227.814 152.257 227.61 152.257 227.386C152.257 227.148 152.202 226.938 152.092 226.757C151.986 226.571 151.835 226.426 151.639 226.321C151.443 226.217 151.21 226.164 150.939 226.164C150.668 226.164 150.435 226.217 150.239 226.321C150.043 226.426 149.892 226.571 149.786 226.757C149.68 226.938 149.627 227.148 149.627 227.386C149.627 227.61 149.68 227.814 149.786 227.999C149.892 228.185 150.043 228.332 150.239 228.44C150.435 228.548 150.668 228.602 150.939 228.602Z" fill="white"/>
<path d="M155.999 229.405C155.615 229.405 155.28 229.349 154.994 229.237C154.707 229.122 154.47 228.968 154.282 228.776C154.097 228.583 153.96 228.372 153.87 228.141C153.78 227.907 153.735 227.671 153.735 227.433V227.318C153.735 227.077 153.78 226.841 153.87 226.61C153.96 226.379 154.095 226.169 154.276 225.981C154.46 225.792 154.688 225.641 154.958 225.53C155.233 225.418 155.548 225.362 155.905 225.362C156.29 225.362 156.631 225.426 156.929 225.556C157.227 225.685 157.466 225.863 157.647 226.091C157.827 226.314 157.933 226.573 157.964 226.867H156.999C156.96 226.657 156.841 226.487 156.641 226.358C156.441 226.229 156.196 226.164 155.905 226.164C155.654 226.164 155.439 226.217 155.258 226.321C155.082 226.423 154.946 226.566 154.852 226.751C154.758 226.933 154.711 227.143 154.711 227.381C154.711 227.755 154.823 228.055 155.046 228.283C155.274 228.51 155.592 228.623 155.999 228.623C156.219 228.623 156.415 228.59 156.588 228.524C156.76 228.454 156.898 228.363 156.999 228.251V227.931H155.876V227.312H158.241V227.931H157.888V228.582C157.703 228.847 157.449 229.052 157.123 229.195C156.798 229.335 156.423 229.405 155.999 229.405Z" fill="white"/>
<path d="M160.912 229.405C160.523 229.405 160.184 229.345 159.894 229.227C159.608 229.104 159.37 228.945 159.182 228.749C158.994 228.55 158.853 228.337 158.759 228.11C158.668 227.879 158.623 227.655 158.623 227.438V227.323C158.623 227.085 158.67 226.851 158.765 226.62C158.863 226.39 159.008 226.18 159.2 225.991C159.392 225.799 159.631 225.647 159.918 225.535C160.204 225.419 160.535 225.362 160.912 225.362C161.288 225.362 161.62 225.419 161.906 225.535C162.192 225.647 162.431 225.799 162.624 225.991C162.816 226.18 162.961 226.39 163.059 226.62C163.157 226.851 163.206 227.085 163.206 227.323V227.438C163.206 227.655 163.159 227.879 163.065 228.11C162.971 228.337 162.829 228.55 162.641 228.749C162.453 228.945 162.214 229.104 161.923 229.227C161.637 229.345 161.3 229.405 160.912 229.405ZM160.912 228.602C161.182 228.602 161.416 228.548 161.612 228.44C161.812 228.332 161.965 228.185 162.071 227.999C162.176 227.814 162.229 227.61 162.229 227.386C162.229 227.148 162.174 226.938 162.065 226.757C161.959 226.571 161.808 226.426 161.612 226.321C161.416 226.217 161.182 226.164 160.912 226.164C160.641 226.164 160.408 226.217 160.212 226.321C160.016 226.426 159.865 226.571 159.759 226.757C159.653 226.938 159.6 227.148 159.6 227.386C159.6 227.61 159.653 227.814 159.759 227.999C159.865 228.185 160.016 228.332 160.212 228.44C160.408 228.548 160.641 228.602 160.912 228.602Z" fill="white"/>
<path d="M130.428 224.151C134.442 224.151 137.695 227.405 137.695 231.419H130.428V224.151Z" fill="#3056D3"/>
<path d="M134.788 231.419C134.788 227.405 138.042 224.152 142.056 224.152V231.419H134.788Z" fill="#9FAFE3"/>
<path d="M193.906 227.314C193.906 226.569 194.51 225.965 195.255 225.965H216.849C217.594 225.965 218.198 226.569 218.198 227.314C218.198 228.06 217.594 228.664 216.849 228.664H195.255C194.51 228.664 193.906 228.06 193.906 227.314Z" fill="#4D5864"/>
<path d="M228.994 227.314C228.994 226.569 229.598 225.965 230.343 225.965H245.189C245.934 225.965 246.538 226.569 246.538 227.314C246.538 228.06 245.934 228.664 245.189 228.664H230.343C229.598 228.664 228.994 228.06 228.994 227.314Z" fill="#4D5864"/>
<path d="M257.336 227.314C257.336 226.569 257.941 225.965 258.686 225.965H285.677C286.423 225.965 287.027 226.569 287.027 227.314C287.027 228.06 286.423 228.664 285.677 228.664H258.686C257.941 228.664 257.336 228.06 257.336 227.314Z" fill="#4D5864"/>
<path d="M297.823 227.314C297.823 226.569 298.427 225.965 299.173 225.965H307.27C308.015 225.965 308.62 226.569 308.62 227.314C308.62 228.06 308.015 228.664 307.27 228.664H299.173C298.427 228.664 297.823 228.06 297.823 227.314Z" fill="#4D5864"/>
<path d="M361.253 223.845C361.253 223.525 361.512 223.267 361.832 223.267H372.243C372.562 223.267 372.821 223.525 372.821 223.845C372.821 224.164 372.562 224.423 372.243 224.423H361.832C361.512 224.423 361.253 224.164 361.253 223.845Z" fill="#9EAEE1"/>
<path d="M361.254 227.316C361.254 226.997 361.512 226.738 361.832 226.738H372.243C372.562 226.738 372.821 226.997 372.821 227.316C372.821 227.636 372.562 227.895 372.243 227.895H361.832C361.512 227.895 361.254 227.636 361.254 227.316Z" fill="#9EAEE1"/>
<path d="M361.254 230.786C361.254 230.467 361.512 230.208 361.832 230.208H372.243C372.562 230.208 372.821 230.467 372.821 230.786C372.821 231.106 372.562 231.365 372.243 231.365H361.832C361.512 231.365 361.254 231.106 361.254 230.786Z" fill="#9EAEE1"/>
<path d="M118.327 161.046C118.327 159.145 119.869 157.603 121.771 157.603H386.149C388.051 157.603 389.592 159.145 389.592 161.046V186.549C389.592 188.451 388.051 189.993 386.149 189.993H121.771C119.869 189.993 118.327 188.451 118.327 186.549V161.046Z" fill="#2E3B49"/>
<path d="M256.204 175.565V172.115H257.074V174.884H258.59V175.565H256.204Z" fill="white"/>
<path d="M260.938 175.653C260.589 175.653 260.283 175.6 260.021 175.493C259.763 175.382 259.55 175.239 259.38 175.063C259.21 174.883 259.083 174.691 258.998 174.486C258.917 174.278 258.876 174.076 258.876 173.881V173.777C258.876 173.563 258.919 173.352 259.003 173.144C259.092 172.936 259.223 172.747 259.396 172.577C259.569 172.404 259.785 172.266 260.043 172.166C260.301 172.062 260.599 172.01 260.938 172.01C261.278 172.01 261.576 172.062 261.834 172.166C262.092 172.266 262.308 172.404 262.481 172.577C262.654 172.747 262.785 172.936 262.874 173.144C262.962 173.352 263.006 173.563 263.006 173.777V173.881C263.006 174.076 262.964 174.278 262.879 174.486C262.794 174.691 262.667 174.883 262.497 175.063C262.327 175.239 262.112 175.382 261.85 175.493C261.592 175.6 261.288 175.653 260.938 175.653ZM260.938 174.93C261.182 174.93 261.393 174.881 261.569 174.784C261.75 174.686 261.887 174.554 261.983 174.387C262.078 174.22 262.126 174.036 262.126 173.834C262.126 173.62 262.077 173.431 261.978 173.267C261.882 173.1 261.746 172.969 261.569 172.875C261.393 172.78 261.182 172.733 260.938 172.733C260.695 172.733 260.484 172.78 260.308 172.875C260.131 172.969 259.995 173.1 259.899 173.267C259.804 173.431 259.756 173.62 259.756 173.834C259.756 174.036 259.804 174.22 259.899 174.387C259.995 174.554 260.131 174.686 260.308 174.784C260.484 174.881 260.695 174.93 260.938 174.93Z" fill="white"/>
<path d="M265.499 175.653C265.153 175.653 264.851 175.603 264.593 175.502C264.335 175.398 264.121 175.26 263.951 175.086C263.785 174.913 263.661 174.722 263.58 174.514C263.499 174.303 263.458 174.091 263.458 173.876V173.772C263.458 173.555 263.499 173.342 263.58 173.134C263.661 172.927 263.783 172.737 263.946 172.567C264.112 172.397 264.317 172.262 264.561 172.161C264.808 172.06 265.093 172.01 265.414 172.01C265.761 172.01 266.068 172.068 266.337 172.185C266.605 172.301 266.821 172.462 266.984 172.667C267.146 172.868 267.242 173.101 267.27 173.366H266.4C266.365 173.177 266.257 173.024 266.077 172.908C265.897 172.791 265.676 172.733 265.414 172.733C265.188 172.733 264.994 172.78 264.831 172.875C264.672 172.966 264.55 173.095 264.465 173.262C264.38 173.426 264.338 173.615 264.338 173.829C264.338 174.166 264.439 174.437 264.64 174.642C264.845 174.847 265.132 174.949 265.499 174.949C265.697 174.949 265.874 174.919 266.029 174.859C266.185 174.796 266.308 174.714 266.4 174.614V174.325H265.388V173.768H267.519V174.325H267.201V174.911C267.035 175.151 266.805 175.335 266.512 175.464C266.218 175.59 265.881 175.653 265.499 175.653Z" fill="white"/>
<path d="M269.926 175.653C269.576 175.653 269.27 175.6 269.009 175.493C268.751 175.382 268.537 175.239 268.367 175.063C268.198 174.883 268.071 174.691 267.986 174.486C267.904 174.278 267.864 174.076 267.864 173.881V173.777C267.864 173.563 267.906 173.352 267.991 173.144C268.079 172.936 268.21 172.747 268.383 172.577C268.557 172.404 268.772 172.266 269.03 172.166C269.288 172.062 269.587 172.01 269.926 172.01C270.265 172.01 270.564 172.062 270.822 172.166C271.08 172.266 271.296 172.404 271.469 172.577C271.642 172.747 271.773 172.936 271.861 173.144C271.949 173.352 271.994 173.563 271.994 173.777V173.881C271.994 174.076 271.951 174.278 271.866 174.486C271.782 174.691 271.654 174.883 271.485 175.063C271.315 175.239 271.099 175.382 270.838 175.493C270.58 175.6 270.276 175.653 269.926 175.653ZM269.926 174.93C270.17 174.93 270.38 174.881 270.557 174.784C270.737 174.686 270.875 174.554 270.97 174.387C271.066 174.22 271.114 174.036 271.114 173.834C271.114 173.62 271.064 173.431 270.965 173.267C270.87 173.1 270.734 172.969 270.557 172.875C270.38 172.78 270.17 172.733 269.926 172.733C269.682 172.733 269.472 172.78 269.295 172.875C269.119 172.969 268.982 173.1 268.887 173.267C268.792 173.431 268.744 173.62 268.744 173.834C268.744 174.036 268.792 174.22 268.887 174.387C268.982 174.554 269.119 174.686 269.295 174.784C269.472 174.881 269.682 174.93 269.926 174.93Z" fill="white"/>
<path d="M242.677 168.493L247.755 177.288H237.599L242.677 168.493Z" fill="#9FAFE3"/>
<path d="M248.539 168.492L253.617 177.287H243.462L248.539 168.492Z" fill="#3056D3"/>
<path d="M293.773 173.333C293.773 172.588 294.377 171.983 295.122 171.983H303.22C303.965 171.983 304.569 172.588 304.569 173.333C304.569 174.078 303.965 174.683 303.22 174.683H295.122C294.377 174.683 293.773 174.078 293.773 173.333Z" fill="#4D5864"/>
<path d="M314.016 173.333C314.016 172.588 314.62 171.983 315.366 171.983H341.008C341.753 171.983 342.357 172.588 342.357 173.333C342.357 174.078 341.753 174.683 341.008 174.683H315.366C314.62 174.683 314.016 174.078 314.016 173.333Z" fill="#4D5864"/>
<path d="M351.805 173.333C351.805 172.588 352.409 171.983 353.155 171.983H370.699C371.445 171.983 372.049 172.588 372.049 173.333C372.049 174.078 371.445 174.683 370.699 174.683H353.155C352.409 174.683 351.805 174.078 351.805 173.333Z" fill="#4D5864"/>
<path d="M214.147 173.332C214.147 174.077 213.543 174.682 212.797 174.682H204.7C203.955 174.682 203.35 174.077 203.35 173.332C203.35 172.587 203.955 171.982 204.7 171.982H212.797C213.543 171.982 214.147 172.587 214.147 173.332Z" fill="#4D5864"/>
<path d="M193.903 173.332C193.903 174.077 193.299 174.682 192.553 174.682H166.911C166.166 174.682 165.562 174.077 165.562 173.332C165.562 172.587 166.166 171.982 166.911 171.982H192.553C193.299 171.982 193.903 172.587 193.903 173.332Z" fill="#4D5864"/>
<path d="M156.116 173.332C156.116 174.077 155.512 174.682 154.767 174.682H137.222C136.477 174.682 135.873 174.077 135.873 173.332C135.873 172.587 136.477 171.982 137.222 171.982H154.767C155.512 171.982 156.116 172.587 156.116 173.332Z" fill="#4D5864"/>
<path d="M118.327 106.598C118.327 104.696 119.869 103.155 121.771 103.155H386.149C388.051 103.155 389.592 104.696 389.592 106.598V132.101C389.592 134.003 388.051 135.545 386.149 135.545H121.771C119.869 135.545 118.327 134.003 118.327 132.101V106.598Z" fill="#2E3B49"/>
<path d="M307.268 119.349C307.268 120.094 306.664 120.699 305.918 120.699H284.325C283.58 120.699 282.976 120.094 282.976 119.349C282.976 118.604 283.58 118 284.325 118H305.918C306.664 118 307.268 118.604 307.268 119.349Z" fill="#4D5864"/>
<path d="M272.179 119.349C272.179 120.094 271.575 120.699 270.829 120.699H255.984C255.239 120.699 254.634 120.094 254.634 119.349C254.634 118.604 255.239 118 255.984 118H270.829C271.575 118 272.179 118.604 272.179 119.349Z" fill="#4D5864"/>
<path d="M243.837 119.349C243.837 120.094 243.233 120.699 242.488 120.699H215.496C214.751 120.699 214.147 120.094 214.147 119.349C214.147 118.604 214.751 118 215.496 118H242.488C243.233 118 243.837 118.604 243.837 119.349Z" fill="#4D5864"/>
<path d="M203.351 119.349C203.351 120.094 202.746 120.699 202.001 120.699H193.904C193.158 120.699 192.554 120.094 192.554 119.349C192.554 118.604 193.158 118 193.904 118H202.001C202.746 118 203.351 118.604 203.351 119.349Z" fill="#4D5864"/>
<path d="M343.707 116.247C343.707 114.979 344.735 113.951 346.003 113.951H376.5C377.768 113.951 378.796 114.979 378.796 116.247V123.802C378.796 125.07 377.768 126.097 376.5 126.097H346.003C344.735 126.097 343.707 125.07 343.707 123.802V116.247Z" fill="#3056D3"/>
<path d="M147.94 120.114V117.054H148.711V119.51H150.056V120.114H147.94Z" fill="white"/>
<path d="M152.139 120.194C151.829 120.194 151.557 120.146 151.325 120.051C151.097 119.953 150.907 119.826 150.756 119.67C150.606 119.51 150.493 119.34 150.418 119.158C150.346 118.974 150.31 118.795 150.31 118.622V118.53C150.31 118.34 150.347 118.152 150.423 117.968C150.501 117.783 150.617 117.616 150.771 117.465C150.924 117.311 151.115 117.19 151.344 117.1C151.573 117.008 151.838 116.962 152.139 116.962C152.44 116.962 152.705 117.008 152.934 117.1C153.162 117.19 153.354 117.311 153.507 117.465C153.661 117.616 153.777 117.783 153.855 117.968C153.934 118.152 153.973 118.34 153.973 118.53V118.622C153.973 118.795 153.935 118.974 153.86 119.158C153.785 119.34 153.672 119.51 153.521 119.67C153.371 119.826 153.18 119.953 152.948 120.051C152.719 120.146 152.449 120.194 152.139 120.194ZM152.139 119.552C152.355 119.552 152.542 119.509 152.699 119.422C152.858 119.336 152.981 119.218 153.065 119.07C153.15 118.922 153.192 118.759 153.192 118.58C153.192 118.39 153.148 118.222 153.061 118.077C152.976 117.929 152.855 117.813 152.699 117.729C152.542 117.645 152.355 117.603 152.139 117.603C151.923 117.603 151.736 117.645 151.579 117.729C151.423 117.813 151.302 117.929 151.217 118.077C151.133 118.222 151.09 118.39 151.09 118.58C151.09 118.759 151.133 118.922 151.217 119.07C151.302 119.218 151.423 119.336 151.579 119.422C151.736 119.509 151.923 119.552 152.139 119.552Z" fill="white"/>
<path d="M156.184 120.194C155.877 120.194 155.609 120.149 155.38 120.06C155.151 119.967 154.962 119.844 154.811 119.691C154.664 119.537 154.554 119.368 154.482 119.183C154.41 118.996 154.374 118.808 154.374 118.618V118.525C154.374 118.333 154.41 118.144 154.482 117.959C154.554 117.775 154.662 117.607 154.806 117.456C154.954 117.306 155.136 117.185 155.352 117.096C155.571 117.007 155.824 116.962 156.109 116.962C156.416 116.962 156.689 117.014 156.927 117.117C157.165 117.22 157.357 117.363 157.501 117.545C157.645 117.723 157.73 117.93 157.755 118.165H156.984C156.952 117.997 156.857 117.862 156.697 117.758C156.537 117.655 156.341 117.603 156.109 117.603C155.908 117.603 155.736 117.645 155.592 117.729C155.451 117.81 155.342 117.925 155.267 118.073C155.192 118.218 155.154 118.386 155.154 118.576C155.154 118.875 155.244 119.115 155.422 119.297C155.604 119.478 155.858 119.569 156.184 119.569C156.36 119.569 156.516 119.543 156.654 119.489C156.792 119.434 156.902 119.361 156.984 119.272V119.016H156.085V118.521H157.976V119.016H157.694V119.536C157.546 119.748 157.342 119.911 157.082 120.026C156.822 120.138 156.523 120.194 156.184 120.194Z" fill="white"/>
<path d="M160.111 120.194C159.8 120.194 159.529 120.146 159.297 120.051C159.068 119.953 158.879 119.826 158.728 119.67C158.578 119.51 158.465 119.34 158.39 119.158C158.318 118.974 158.282 118.795 158.282 118.622V118.53C158.282 118.34 158.319 118.152 158.394 117.968C158.473 117.783 158.589 117.616 158.742 117.465C158.896 117.311 159.087 117.19 159.316 117.1C159.545 117.008 159.81 116.962 160.111 116.962C160.412 116.962 160.677 117.008 160.906 117.1C161.134 117.19 161.326 117.311 161.479 117.465C161.633 117.616 161.749 117.783 161.827 117.968C161.906 118.152 161.945 118.34 161.945 118.53V118.622C161.945 118.795 161.907 118.974 161.832 119.158C161.757 119.34 161.644 119.51 161.493 119.67C161.343 119.826 161.152 119.953 160.92 120.051C160.691 120.146 160.421 120.194 160.111 120.194ZM160.111 119.552C160.327 119.552 160.514 119.509 160.67 119.422C160.83 119.336 160.953 119.218 161.037 119.07C161.122 118.922 161.164 118.759 161.164 118.58C161.164 118.39 161.12 118.222 161.032 118.077C160.948 117.929 160.827 117.813 160.67 117.729C160.514 117.645 160.327 117.603 160.111 117.603C159.895 117.603 159.708 117.645 159.551 117.729C159.395 117.813 159.274 117.929 159.189 118.077C159.105 118.222 159.062 118.39 159.062 118.58C159.062 118.759 159.105 118.922 159.189 119.07C159.274 119.218 159.395 119.336 159.551 119.422C159.708 119.509 159.895 119.552 160.111 119.552Z" fill="white"/>
<path d="M134.725 114.855C135.173 114.407 135.9 114.407 136.348 114.855L139.833 118.34C140.281 118.788 140.281 119.515 139.833 119.963L136.348 123.448C135.9 123.896 135.173 123.896 134.725 123.448L131.24 119.963C130.792 119.515 130.792 118.788 131.24 118.34L134.725 114.855Z" fill="#3056D3"/>
<path d="M137.644 114.855C138.092 114.407 138.819 114.407 139.267 114.855L142.752 118.34C143.2 118.788 143.2 119.515 142.752 119.963L139.267 123.448C138.819 123.896 138.092 123.896 137.644 123.448L134.159 119.963C133.711 119.515 133.711 118.788 134.159 118.34L137.644 114.855Z" fill="#9FAFE3"/>
<g filter="url(#filter2_d_1045_43)">
<path d="M104.37 306.198C104.37 301.126 108.482 297.015 113.553 297.015H435.269C440.341 297.015 444.452 301.126 444.452 306.198V501.958C444.452 507.029 440.341 511.14 435.269 511.14H113.553C108.482 511.14 104.37 507.029 104.37 501.958V306.198Z" fill="#1B2530"/>
<path d="M104.62 306.198C104.62 301.264 108.62 297.265 113.553 297.265H435.269C440.203 297.265 444.202 301.264 444.202 306.198V501.958C444.202 506.891 440.203 510.89 435.269 510.89H113.553C108.62 510.89 104.62 506.891 104.62 501.958V306.198Z" stroke="#2F3946" stroke-width="0.5"/>
</g>
<path d="M214.599 348.658H150.396C146.542 348.658 143.417 351.783 143.417 355.637V451.942C143.417 455.796 146.542 458.921 150.396 458.921H214.599C218.454 458.921 221.578 455.796 221.578 451.942V355.637C221.578 351.783 218.454 348.658 214.599 348.658Z" fill="#2D3A47"/>
<path d="M205.527 403.091H159.468C158.312 403.091 157.374 404.028 157.374 405.184C157.374 406.341 158.312 407.278 159.468 407.278H205.527C206.683 407.278 207.621 406.341 207.621 405.184C207.621 404.028 206.683 403.091 205.527 403.091Z" fill="#32335A" fill-opacity="0.15"/>
<path d="M194.361 412.862H169.238C168.081 412.862 167.144 413.799 167.144 414.955C167.144 416.112 168.081 417.049 169.238 417.049H194.361C195.517 417.049 196.454 416.112 196.454 414.955C196.454 413.799 195.517 412.862 194.361 412.862Z" fill="#32335A" fill-opacity="0.15"/>
<path d="M306.718 348.658H242.514C238.66 348.658 235.536 351.783 235.536 355.637V451.942C235.536 455.796 238.66 458.921 242.514 458.921H306.718C310.572 458.921 313.696 455.796 313.696 451.942V355.637C313.696 351.783 310.572 348.658 306.718 348.658Z" fill="#3056D3"/>
<path d="M398.835 348.658H334.632C330.778 348.658 327.653 351.783 327.653 355.637V451.942C327.653 455.796 330.778 458.921 334.632 458.921H398.835C402.69 458.921 405.814 455.796 405.814 451.942V355.637C405.814 351.783 402.69 348.658 398.835 348.658Z" fill="#2D3A47"/>
<path d="M166.923 384.947H169.284V380.335H173.825V378.388H169.284V375.728H174.316V373.781H166.923V384.947ZM175.725 384.947H178.048V380.209C178.048 379.179 178.8 378.47 179.825 378.47C180.147 378.47 180.589 378.524 180.807 378.595V376.535C180.6 376.485 180.311 376.453 180.076 376.453C179.139 376.453 178.37 376.998 178.064 378.034H177.977V376.573H175.725V384.947ZM185.434 385.111C187.506 385.111 188.902 384.102 189.229 382.548L187.081 382.406C186.846 383.044 186.247 383.377 185.472 383.377C184.311 383.377 183.575 382.608 183.575 381.36V381.354H189.278V380.716C189.278 377.87 187.555 376.464 185.342 376.464C182.877 376.464 181.28 378.214 181.28 380.798C181.28 383.453 182.855 385.111 185.434 385.111ZM183.575 379.915C183.624 378.961 184.349 378.197 185.38 378.197C186.388 378.197 187.086 378.917 187.092 379.915H183.575ZM194.61 385.111C196.682 385.111 198.078 384.102 198.405 382.548L196.257 382.406C196.022 383.044 195.423 383.377 194.648 383.377C193.487 383.377 192.751 382.608 192.751 381.36V381.354H198.454V380.716C198.454 377.87 196.731 376.464 194.517 376.464C192.053 376.464 190.456 378.214 190.456 380.798C190.456 383.453 192.031 385.111 194.61 385.111ZM192.751 379.915C192.8 378.961 193.525 378.197 194.556 378.197C195.564 378.197 196.262 378.917 196.267 379.915H192.751Z" fill="white"/>
<path d="M263.035 382.983H268.395V384.946H270.651V382.983H272.036V381.091H270.651V373.78H267.697L263.035 381.124V382.983ZM268.438 381.091H265.412V381.004L268.351 376.353H268.438V381.091ZM277.65 373.595C275.153 373.584 273.468 375.219 273.479 377.487C273.468 379.581 274.929 381.091 276.908 381.091C278.134 381.091 279.225 380.497 279.721 379.516H279.798C279.792 381.729 279.023 383.076 277.567 383.076C276.712 383.076 276.096 382.607 275.916 381.795H273.588C273.806 383.676 275.333 385.099 277.567 385.099C280.332 385.099 282.103 382.863 282.109 379.074C282.103 374.99 279.944 373.6 277.65 373.595ZM277.666 375.448C278.751 375.448 279.552 376.332 279.563 377.411C279.552 378.496 278.723 379.379 277.644 379.379C276.554 379.379 275.757 378.529 275.768 377.422C275.757 376.304 276.569 375.448 277.666 375.448ZM285.245 385.707H285.947L285.953 385.02C287.241 384.922 287.988 384.238 287.991 383.206C287.988 382.192 287.223 381.654 286.165 381.416L285.989 381.374L286 379.887C286.397 379.98 286.637 380.232 286.673 380.607H287.907C287.893 379.623 287.157 378.918 286.013 378.793L286.018 378.094H285.316L285.311 378.787C284.148 378.9 283.327 379.602 283.333 380.616C283.33 381.514 283.964 382.029 284.993 382.275L285.279 382.347L285.263 383.92C284.779 383.828 284.451 383.53 284.419 383.034H283.172C283.203 384.235 283.99 384.907 285.252 385.017L285.245 385.707ZM285.965 383.92L285.977 382.531C286.439 382.677 286.688 382.864 286.691 383.203C286.688 383.563 286.415 383.831 285.965 383.92ZM285.287 381.193C284.916 381.065 284.648 380.872 284.653 380.53C284.653 380.212 284.879 379.965 285.3 379.878L285.287 381.193Z" fill="white"/>
<path d="M359.497 373.627C357 373.617 355.316 375.252 355.327 377.498C355.332 379.581 356.777 381.091 358.756 381.091C359.983 381.091 361.073 380.497 361.57 379.516H361.645C361.641 381.729 360.872 383.076 359.416 383.076C358.561 383.076 357.944 382.607 357.764 381.795H355.436C355.655 383.676 357.18 385.099 359.416 385.099C362.18 385.099 363.963 382.863 363.958 379.074C363.952 375.029 361.793 373.638 359.497 373.627ZM359.514 375.481C360.598 375.481 361.401 376.364 361.412 377.428C361.416 378.496 360.572 379.379 359.493 379.379C358.402 379.379 357.623 378.529 357.617 377.433C357.606 376.343 358.418 375.481 359.514 375.481ZM369.633 373.627C367.136 373.617 365.451 375.252 365.463 377.498C365.468 379.581 366.913 381.091 368.892 381.091C370.119 381.091 371.209 380.497 371.706 379.516H371.781C371.775 381.729 371.008 383.076 369.552 383.076C368.695 383.076 368.08 382.607 367.899 381.795H365.571C365.789 383.676 367.316 385.099 369.552 385.099C372.316 385.099 374.098 382.863 374.092 379.074C374.088 375.029 371.929 373.638 369.633 373.627ZM369.65 375.481C370.734 375.481 371.535 376.364 371.546 377.428C371.552 378.496 370.708 379.379 369.627 379.379C368.537 379.379 367.757 378.529 367.752 377.433C367.742 376.343 368.554 375.481 369.65 375.481ZM377.23 385.707H377.931L377.938 385.02C379.224 384.922 379.971 384.238 379.974 383.206C379.971 382.192 379.208 381.654 378.148 381.416L377.972 381.374L377.985 379.887C378.38 379.98 378.621 380.232 378.656 380.607H379.892C379.876 379.623 379.142 378.918 377.996 378.793L378.003 378.094H377.301L377.294 378.787C376.131 378.9 375.311 379.602 375.318 380.616C375.314 381.514 375.947 382.029 376.977 382.275L377.262 382.347L377.247 383.92C376.762 383.828 376.436 383.53 376.402 383.034H375.157C375.187 384.235 375.974 384.907 377.235 385.017L377.23 385.707ZM377.949 383.92L377.961 382.531C378.422 382.677 378.672 382.864 378.674 383.203C378.672 383.563 378.398 383.831 377.949 383.92ZM377.27 381.193C376.899 381.065 376.631 380.872 376.638 380.53C376.638 380.212 376.864 379.965 377.283 379.878L377.27 381.193Z" fill="white"/>
<path d="M297.645 403.091H251.585C250.429 403.091 249.492 404.028 249.492 405.184C249.492 406.341 250.429 407.278 251.585 407.278H297.645C298.801 407.278 299.738 406.341 299.738 405.184C299.738 404.028 298.801 403.091 297.645 403.091Z" fill="white" fill-opacity="0.35"/>
<path d="M389.764 403.091H343.704C342.548 403.091 341.611 404.028 341.611 405.184C341.611 406.341 342.548 407.278 343.704 407.278H389.764C390.92 407.278 391.857 406.341 391.857 405.184C391.857 404.028 390.92 403.091 389.764 403.091Z" fill="#32335A" fill-opacity="0.15"/>
<path d="M286.478 412.862H261.355C260.199 412.862 259.262 413.799 259.262 414.955C259.262 416.112 260.199 417.049 261.355 417.049H286.478C287.635 417.049 288.572 416.112 288.572 414.955C288.572 413.799 287.635 412.862 286.478 412.862Z" fill="white" fill-opacity="0.35"/>
<path d="M378.597 412.862H353.474C352.318 412.862 351.38 413.799 351.38 414.955C351.38 416.112 352.318 417.049 353.474 417.049H378.597C379.753 417.049 380.691 416.112 380.691 414.955C380.691 413.799 379.753 412.862 378.597 412.862Z" fill="#32335A" fill-opacity="0.15"/>
<path d="M294.156 432.402H255.075C253.534 432.402 252.284 433.652 252.284 435.193V442.172C252.284 443.714 253.534 444.963 255.075 444.963H294.156C295.697 444.963 296.947 443.714 296.947 442.172V435.193C296.947 433.652 295.697 432.402 294.156 432.402Z" fill="#7790DB"/>
<path d="M202.038 432.402H162.958C161.416 432.402 160.166 433.652 160.166 435.193V442.172C160.166 443.714 161.416 444.963 162.958 444.963H202.038C203.58 444.963 204.83 443.714 204.83 442.172V435.193C204.83 433.652 203.58 432.402 202.038 432.402Z" fill="#4C5762"/>
<path d="M386.274 432.402H347.194C345.652 432.402 344.403 433.652 344.403 435.193V442.172C344.403 443.714 345.652 444.963 347.194 444.963H386.274C387.816 444.963 389.066 443.714 389.066 442.172V435.193C389.066 433.652 387.816 432.402 386.274 432.402Z" fill="#4C5762"/>
<g filter="url(#filter3_d_1045_43)">
<path d="M362.438 393.266C362.438 388.194 366.55 384.083 371.621 384.083H683.935C689.006 384.083 693.117 388.194 693.117 393.266V599.376C693.117 604.447 689.006 608.558 683.935 608.558H371.621C366.55 608.558 362.438 604.447 362.438 599.376V393.266Z" fill="#1B2530"/>
<path d="M362.688 393.266C362.688 388.332 366.688 384.333 371.621 384.333H683.935C688.868 384.333 692.867 388.332 692.867 393.266V599.376C692.867 604.309 688.868 608.308 683.935 608.308H371.621C366.688 608.308 362.688 604.309 362.688 599.376V393.266Z" stroke="#2F3946" stroke-width="0.5"/>
</g>
<path d="M574.924 455.545C574.924 454.823 575.509 454.238 576.231 454.238H614.143C614.865 454.238 615.45 454.823 615.45 455.545C615.45 456.267 614.865 456.852 614.143 456.852H576.231C575.509 456.852 574.924 456.267 574.924 455.545Z" fill="#4D5864"/>
<path d="M574.924 462.081C574.924 461.359 575.509 460.774 576.231 460.774H601.07C601.792 460.774 602.377 461.359 602.377 462.081C602.377 462.803 601.792 463.388 601.07 463.388H576.231C575.509 463.388 574.924 462.803 574.924 462.081Z" fill="#4D5864"/>
<path d="M636.366 458.16C636.366 455.994 638.122 454.238 640.288 454.238C642.454 454.238 644.21 455.994 644.21 458.16C644.21 460.326 642.454 462.082 640.288 462.082C638.122 462.082 636.366 460.326 636.366 458.16Z" fill="#3056D3"/>
<path d="M642.073 457.21C642.03 457.167 641.963 457.167 641.92 457.21L639.683 459.379C639.665 459.398 639.64 459.398 639.622 459.379L638.513 458.301C638.47 458.258 638.402 458.258 638.359 458.301C638.316 458.344 638.316 458.411 638.359 458.454L639.468 459.532C639.518 459.581 639.585 459.606 639.646 459.606C639.714 459.606 639.775 459.581 639.824 459.532L642.061 457.363C642.11 457.32 642.11 457.253 642.073 457.21Z" fill="white"/>
<path d="M574.924 475.153C574.924 474.431 575.509 473.846 576.231 473.846H614.143C614.865 473.846 615.45 474.431 615.45 475.153C615.45 475.875 614.865 476.46 614.143 476.46H576.231C575.509 476.46 574.924 475.875 574.924 475.153Z" fill="#4D5864"/>
<path d="M574.924 481.689C574.924 480.967 575.51 480.382 576.232 480.382H601.07C601.792 480.382 602.378 480.967 602.378 481.689C602.378 482.411 601.792 482.996 601.07 482.996H576.232C575.51 482.996 574.924 482.411 574.924 481.689Z" fill="#4D5864"/>
<path d="M636.366 477.768C636.366 475.602 638.122 473.846 640.288 473.846C642.454 473.846 644.21 475.602 644.21 477.768C644.21 479.934 642.454 481.689 640.288 481.689C638.122 481.689 636.366 479.934 636.366 477.768Z" fill="#3056D3"/>
<path d="M642.073 476.82C642.03 476.777 641.962 476.777 641.919 476.82L639.683 478.99C639.664 479.008 639.64 479.008 639.621 478.99L638.512 477.911C638.469 477.868 638.402 477.868 638.359 477.911C638.316 477.954 638.316 478.021 638.359 478.064L639.468 479.143C639.517 479.192 639.585 479.216 639.646 479.216C639.713 479.216 639.775 479.192 639.824 479.143L642.06 476.973C642.109 476.931 642.109 476.863 642.073 476.82Z" fill="white"/>
<path d="M574.924 493.457C574.924 492.735 575.509 492.149 576.231 492.149H614.143C614.865 492.149 615.45 492.735 615.45 493.457C615.45 494.179 614.865 494.764 614.143 494.764H576.231C575.509 494.764 574.924 494.179 574.924 493.457Z" fill="#4D5864"/>
<path d="M574.924 499.992C574.924 499.27 575.509 498.685 576.231 498.685H601.07C601.792 498.685 602.377 499.27 602.377 499.992C602.377 500.714 601.792 501.3 601.07 501.3H576.231C575.509 501.3 574.924 500.714 574.924 499.992Z" fill="#4D5864"/>
<path d="M636.367 496.071C636.367 493.905 638.123 492.149 640.289 492.149C642.455 492.149 644.211 493.905 644.211 496.071C644.211 498.237 642.455 499.993 640.289 499.993C638.123 499.993 636.367 498.237 636.367 496.071Z" fill="#3056D3"/>
<path d="M642.075 495.122C642.032 495.079 641.964 495.079 641.921 495.122L639.685 497.291C639.666 497.31 639.642 497.31 639.623 497.291L638.514 496.213C638.471 496.17 638.404 496.17 638.361 496.213C638.318 496.256 638.318 496.323 638.361 496.366L639.47 497.444C639.519 497.493 639.587 497.518 639.648 497.518C639.715 497.518 639.777 497.493 639.826 497.444L642.062 495.275C642.111 495.232 642.111 495.165 642.075 495.122Z" fill="white"/>
<path d="M574.923 513.065C574.923 512.343 575.508 511.758 576.23 511.758H614.142C614.864 511.758 615.45 512.343 615.45 513.065C615.45 513.787 614.864 514.372 614.142 514.372H576.23C575.508 514.372 574.923 513.787 574.923 513.065Z" fill="#4D5864"/>
<path d="M574.923 519.602C574.923 518.88 575.508 518.295 576.23 518.295H601.069C601.791 518.295 602.376 518.88 602.376 519.602C602.376 520.324 601.791 520.909 601.069 520.909H576.23C575.508 520.909 574.923 520.324 574.923 519.602Z" fill="#4D5864"/>
<path d="M636.366 515.68C636.366 513.514 638.122 511.758 640.288 511.758C642.454 511.758 644.21 513.514 644.21 515.68C644.21 517.846 642.454 519.602 640.288 519.602C638.122 519.602 636.366 517.846 636.366 515.68Z" fill="#3056D3"/>
<path d="M642.073 514.733C642.03 514.69 641.963 514.69 641.92 514.733L639.683 516.902C639.665 516.92 639.641 516.92 639.622 516.902L638.513 515.824C638.47 515.781 638.403 515.781 638.36 515.824C638.317 515.866 638.317 515.934 638.36 515.977L639.469 517.055C639.518 517.104 639.585 517.129 639.647 517.129C639.714 517.129 639.775 517.104 639.824 517.055L642.061 514.886C642.11 514.843 642.11 514.776 642.073 514.733Z" fill="white"/>
<path d="M410.203 432.842C410.203 430.941 411.745 429.399 413.646 429.399H479.969C481.87 429.399 483.412 430.941 483.412 432.842V542.305C483.412 544.207 481.87 545.749 479.969 545.749H413.646C411.745 545.749 410.203 544.207 410.203 542.305V432.842Z" fill="#2D3A47"/>
<path d="M495.178 432.842C495.178 430.941 496.72 429.399 498.622 429.399H541.412C543.314 429.399 544.856 430.941 544.856 432.842V478.248C544.856 480.149 543.314 481.691 541.412 481.691H498.622C496.72 481.691 495.178 480.149 495.178 478.248V432.842Z" fill="#2D3A47"/>
<path d="M495.177 496.899C495.177 494.998 496.719 493.456 498.62 493.456H541.411C543.313 493.456 544.855 494.998 544.855 496.899V542.305C544.855 544.206 543.313 545.748 541.411 545.748H498.62C496.719 545.748 495.177 544.206 495.177 542.305V496.899Z" fill="#2D3A47"/>
<g filter="url(#filter4_d_1045_43)">
<path d="M153.63 491.736C153.63 486.665 157.742 482.554 162.813 482.554H419.926C424.998 482.554 429.109 486.665 429.109 491.736V646.82C429.109 651.892 424.998 656.003 419.926 656.003H162.813C157.742 656.003 153.63 651.892 153.63 646.82V491.736Z" fill="#1B2530"/>
<path d="M153.88 491.736C153.88 486.803 157.88 482.804 162.813 482.804H419.926C424.86 482.804 428.859 486.803 428.859 491.736V646.82C428.859 651.754 424.86 655.753 419.926 655.753H162.813C157.88 655.753 153.88 651.754 153.88 646.82V491.736Z" stroke="#2F3946" stroke-width="0.5"/>
</g>
<path d="M179.132 527.838C179.132 525.936 180.674 524.394 182.576 524.394H232.715C234.617 524.394 236.158 525.936 236.158 527.838V577.977C236.158 579.879 234.617 581.42 232.715 581.42H182.576C180.674 581.42 179.132 579.879 179.132 577.977V527.838Z" fill="#2D3A47"/>
<path d="M179.132 590.521C179.132 589.515 179.947 588.701 180.952 588.701H207.645C208.65 588.701 209.465 589.515 209.465 590.521C209.465 591.526 208.65 592.341 207.645 592.341H180.952C179.947 592.341 179.132 591.526 179.132 590.521Z" fill="#4D5864"/>
<path d="M179.132 598.408C179.132 597.738 179.675 597.195 180.345 597.195H193.692C194.362 597.195 194.905 597.738 194.905 598.408C194.905 599.078 194.362 599.621 193.692 599.621H180.345C179.675 599.621 179.132 599.078 179.132 598.408Z" fill="#4D5864"/>
<path d="M198.545 598.408C198.545 597.738 199.088 597.195 199.758 597.195H215.532C216.202 597.195 216.745 597.738 216.745 598.408C216.745 599.078 216.202 599.621 215.532 599.621H199.758C199.088 599.621 198.545 599.078 198.545 598.408Z" fill="#4D5864"/>
<path d="M179.132 611.148C179.132 609.472 180.49 608.114 182.165 608.114C183.841 608.114 185.199 609.472 185.199 611.148C185.199 612.823 183.841 614.181 182.165 614.181C180.49 614.181 179.132 612.823 179.132 611.148Z" fill="#4D5864"/>
<path d="M188.839 611.148C188.839 609.472 190.197 608.114 191.872 608.114C193.548 608.114 194.906 609.472 194.906 611.148C194.906 612.823 193.548 614.181 191.872 614.181C190.197 614.181 188.839 612.823 188.839 611.148Z" fill="#4D5864"/>
<path d="M198.545 611.148C198.545 609.472 199.903 608.114 201.579 608.114C203.254 608.114 204.612 609.472 204.612 611.148C204.612 612.823 203.254 614.181 201.579 614.181C199.903 614.181 198.545 612.823 198.545 611.148Z" fill="#4D5864"/>
<path d="M262.851 527.838C262.851 525.936 264.393 524.394 266.295 524.394H316.434C318.335 524.394 319.877 525.936 319.877 527.838V577.977C319.877 579.879 318.335 581.42 316.434 581.42H266.295C264.393 581.42 262.851 579.879 262.851 577.977V527.838Z" fill="#2D3A47"/>
<path d="M262.85 590.521C262.85 589.516 263.665 588.701 264.67 588.701H291.363C292.369 588.701 293.183 589.516 293.183 590.521C293.183 591.526 292.369 592.341 291.363 592.341H264.67C263.665 592.341 262.85 591.526 262.85 590.521Z" fill="#4D5864"/>
<path d="M262.85 598.409C262.85 597.738 263.394 597.195 264.064 597.195H277.41C278.08 597.195 278.624 597.738 278.624 598.409C278.624 599.079 278.08 599.622 277.41 599.622H264.064C263.394 599.622 262.85 599.079 262.85 598.409Z" fill="#4D5864"/>
<path d="M282.263 598.409C282.263 597.738 282.806 597.195 283.476 597.195H299.249C299.919 597.195 300.463 597.738 300.463 598.409C300.463 599.079 299.919 599.622 299.249 599.622H283.476C282.806 599.622 282.263 599.079 282.263 598.409Z" fill="#4D5864"/>
<path d="M262.85 611.148C262.85 609.472 264.209 608.114 265.884 608.114C267.559 608.114 268.917 609.472 268.917 611.148C268.917 612.823 267.559 614.181 265.884 614.181C264.209 614.181 262.85 612.823 262.85 611.148Z" fill="#4D5864"/>
<path d="M272.556 611.148C272.556 609.472 273.914 608.114 275.59 608.114C277.265 608.114 278.623 609.472 278.623 611.148C278.623 612.823 277.265 614.181 275.59 614.181C273.914 614.181 272.556 612.823 272.556 611.148Z" fill="#4D5864"/>
<path d="M282.263 611.148C282.263 609.472 283.621 608.114 285.296 608.114C286.971 608.114 288.329 609.472 288.329 611.148C288.329 612.823 286.971 614.181 285.296 614.181C283.621 614.181 282.263 612.823 282.263 611.148Z" fill="#4D5864"/>
<path d="M346.57 527.838C346.57 525.936 348.112 524.394 350.013 524.394H400.152C402.054 524.394 403.596 525.936 403.596 527.838V577.977C403.596 579.879 402.054 581.42 400.152 581.42H350.013C348.112 581.42 346.57 579.879 346.57 577.977V527.838Z" fill="#2D3A47"/>
<path d="M346.57 590.521C346.57 589.516 347.384 588.701 348.39 588.701H375.083C376.088 588.701 376.903 589.516 376.903 590.521C376.903 591.526 376.088 592.341 375.083 592.341H348.39C347.384 592.341 346.57 591.526 346.57 590.521Z" fill="#4D5864"/>
<path d="M346.57 598.409C346.57 597.738 347.113 597.195 347.783 597.195H361.129C361.799 597.195 362.343 597.738 362.343 598.409C362.343 599.079 361.799 599.622 361.129 599.622H347.783C347.113 599.622 346.57 599.079 346.57 598.409Z" fill="#4D5864"/>
<path d="M365.982 598.409C365.982 597.738 366.526 597.195 367.196 597.195H382.969C383.639 597.195 384.182 597.738 384.182 598.409C384.182 599.079 383.639 599.622 382.969 599.622H367.196C366.526 599.622 365.982 599.079 365.982 598.409Z" fill="#4D5864"/>
<path d="M346.57 611.148C346.57 609.472 347.928 608.114 349.603 608.114C351.278 608.114 352.636 609.472 352.636 611.148C352.636 612.823 351.278 614.181 349.603 614.181C347.928 614.181 346.57 612.823 346.57 611.148Z" fill="#4D5864"/>
<path d="M356.276 611.148C356.276 609.472 357.634 608.114 359.309 608.114C360.985 608.114 362.343 609.472 362.343 611.148C362.343 612.823 360.985 614.181 359.309 614.181C357.634 614.181 356.276 612.823 356.276 611.148Z" fill="#4D5864"/>
<path d="M365.982 611.148C365.982 609.472 367.34 608.114 369.016 608.114C370.691 608.114 372.049 609.472 372.049 611.148C372.049 612.823 370.691 614.181 369.016 614.181C367.34 614.181 365.982 612.823 365.982 611.148Z" fill="#4D5864"/>
</g>
<defs>
<filter id="filter0_d_1045_43" x="294.296" y="63.5122" width="533.976" height="410.281" filterUnits="userSpaceOnUse" color-interpolation-filters="sRGB">
<feFlood flood-opacity="0" result="BackgroundImageFix"/>
<feColorMatrix in="SourceAlpha" type="matrix" values="0 0 0 0 0 0 0 0 0 0 0 0 0 0 0 0 0 0 127 0" result="hardAlpha"/>
<feOffset dx="10" dy="10"/>
<feGaussianBlur stdDeviation="50"/>
<feColorMatrix type="matrix" values="0 0 0 0 0 0 0 0 0 0 0 0 0 0 0 0 0 0 0.2 0"/>
<feBlend mode="normal" in2="BackgroundImageFix" result="effect1_dropShadow_1045_43"/>
<feBlend mode="normal" in="SourceGraphic" in2="effect1_dropShadow_1045_43" result="shape"/>
</filter>
<filter id="filter1_d_1045_43" x="0.5" y="-19.5142" width="526.691" height="405.694" filterUnits="userSpaceOnUse" color-interpolation-filters="sRGB">
<feFlood flood-opacity="0" result="BackgroundImageFix"/>
<feColorMatrix in="SourceAlpha" type="matrix" values="0 0 0 0 0 0 0 0 0 0 0 0 0 0 0 0 0 0 127 0" result="hardAlpha"/>
<feOffset dx="10" dy="10"/>
<feGaussianBlur stdDeviation="50"/>
<feColorMatrix type="matrix" values="0 0 0 0 0 0 0 0 0 0 0 0 0 0 0 0 0 0 0.2 0"/>
<feBlend mode="normal" in2="BackgroundImageFix" result="effect1_dropShadow_1045_43"/>
<feBlend mode="normal" in="SourceGraphic" in2="effect1_dropShadow_1045_43" result="shape"/>
</filter>
<filter id="filter2_d_1045_43" x="14.3701" y="207.015" width="540.082" height="414.125" filterUnits="userSpaceOnUse" color-interpolation-filters="sRGB">
<feFlood flood-opacity="0" result="BackgroundImageFix"/>
<feColorMatrix in="SourceAlpha" type="matrix" values="0 0 0 0 0 0 0 0 0 0 0 0 0 0 0 0 0 0 127 0" result="hardAlpha"/>
<feOffset dx="10" dy="10"/>
<feGaussianBlur stdDeviation="50"/>
<feColorMatrix type="matrix" values="0 0 0 0 0 0 0 0 0 0 0 0 0 0 0 0 0 0 0.2 0"/>
<feBlend mode="normal" in2="BackgroundImageFix" result="effect1_dropShadow_1045_43"/>
<feBlend mode="normal" in="SourceGraphic" in2="effect1_dropShadow_1045_43" result="shape"/>
</filter>
<filter id="filter3_d_1045_43" x="272.438" y="294.083" width="530.679" height="424.475" filterUnits="userSpaceOnUse" color-interpolation-filters="sRGB">
<feFlood flood-opacity="0" result="BackgroundImageFix"/>
<feColorMatrix in="SourceAlpha" type="matrix" values="0 0 0 0 0 0 0 0 0 0 0 0 0 0 0 0 0 0 127 0" result="hardAlpha"/>
<feOffset dx="10" dy="10"/>
<feGaussianBlur stdDeviation="50"/>
<feColorMatrix type="matrix" values="0 0 0 0 0 0 0 0 0 0 0 0 0 0 0 0 0 0 0.2 0"/>
<feBlend mode="normal" in2="BackgroundImageFix" result="effect1_dropShadow_1045_43"/>
<feBlend mode="normal" in="SourceGraphic" in2="effect1_dropShadow_1045_43" result="shape"/>
</filter>
<filter id="filter4_d_1045_43" x="63.6299" y="392.554" width="475.479" height="373.449" filterUnits="userSpaceOnUse" color-interpolation-filters="sRGB">
<feFlood flood-opacity="0" result="BackgroundImageFix"/>
<feColorMatrix in="SourceAlpha" type="matrix" values="0 0 0 0 0 0 0 0 0 0 0 0 0 0 0 0 0 0 127 0" result="hardAlpha"/>
<feOffset dx="10" dy="10"/>
<feGaussianBlur stdDeviation="50"/>
<feColorMatrix type="matrix" values="0 0 0 0 0 0 0 0 0 0 0 0 0 0 0 0 0 0 0.2 0"/>
<feBlend mode="normal" in2="BackgroundImageFix" result="effect1_dropShadow_1045_43"/>
<feBlend mode="normal" in="SourceGraphic" in2="effect1_dropShadow_1045_43" result="shape"/>
</filter>
<linearGradient id="paint0_linear_1045_43" x1="384.917" y1="694.902" x2="517.491" y2="632.92" gradientUnits="userSpaceOnUse">
<stop stop-color="#3056D3"/>
<stop offset="1" stop-color="#3056D3" stop-opacity="0"/>
</linearGradient>
<linearGradient id="paint1_linear_1045_43" x1="652.069" y1="152.647" x2="286.778" y2="114.915" gradientUnits="userSpaceOnUse">
<stop stop-color="#3056D3"/>
<stop offset="1" stop-color="#3056D3" stop-opacity="0"/>
</linearGradient>
<linearGradient id="paint2_linear_1045_43" x1="631.7" y1="109.525" x2="743.616" y2="137.282" gradientUnits="userSpaceOnUse">
<stop stop-color="#3056D3"/>
<stop offset="1" stop-color="#3056D3" stop-opacity="0"/>
</linearGradient>
<linearGradient id="paint3_linear_1045_43" x1="683.352" y1="93.9431" x2="779.901" y2="118.374" gradientUnits="userSpaceOnUse">
<stop stop-color="#3056D3"/>
<stop offset="1" stop-color="#3056D3" stop-opacity="0"/>
</linearGradient>
<linearGradient id="paint4_linear_1045_43" x1="620.222" y1="637.841" x2="484.835" y2="597.353" gradientUnits="userSpaceOnUse">
<stop stop-color="#3056D3"/>
<stop offset="1" stop-color="#3056D3" stop-opacity="0"/>
</linearGradient>
<clipPath id="clip0_1045_43">
<rect width="829" height="771" fill="white"/>
</clipPath>
</defs>
</svg>
