<svg width="829" height="771" viewBox="0 0 829 771" fill="none" xmlns="http://www.w3.org/2000/svg">
<path opacity="0.3" d="M535.856 583.566C535.856 645.057 486.008 694.905 424.517 694.905C363.026 694.905 313.178 645.057 313.178 583.566C313.178 522.075 363.026 472.227 424.517 472.227C486.008 472.227 535.856 522.075 535.856 583.566Z" fill="url(#paint0_linear_1045_342)"/>
<path opacity="0.3" d="M634.57 189.288C634.57 285.328 556.714 363.183 460.674 363.183C364.634 363.183 286.778 285.328 286.778 189.288C286.778 93.2478 364.634 15.3921 460.674 15.3921C556.714 15.3921 634.57 93.2478 634.57 189.288Z" fill="url(#paint1_linear_1045_342)"/>
<path d="M157.538 533.062C179.725 533.062 197.712 551.048 197.712 573.236C197.712 595.423 179.725 613.41 157.538 613.41C135.35 613.41 117.364 595.423 117.364 573.236C117.364 551.048 135.35 533.062 157.538 533.062Z" fill="#3056D3"/>
<path d="M646.436 572.464C646.436 573.205 645.836 573.806 645.094 573.806C644.353 573.806 643.752 573.205 643.752 572.464C643.752 571.723 644.353 571.122 645.094 571.122C645.836 571.122 646.436 571.723 646.436 572.464Z" fill="#3056D3"/>
<path d="M646.436 595.281C646.436 596.022 645.836 596.623 645.094 596.623C644.353 596.623 643.752 596.022 643.752 595.281C643.752 594.539 644.353 593.938 645.094 593.938C645.836 593.938 646.436 594.539 646.436 595.281Z" fill="#3056D3"/>
<path d="M646.436 618.633C646.436 619.374 645.836 619.975 645.094 619.975C644.353 619.975 643.752 619.374 643.752 618.633C643.752 617.892 644.353 617.291 645.094 617.291C645.836 617.291 646.436 617.892 646.436 618.633Z" fill="#3056D3"/>
<path d="M646.436 584.006C646.436 584.747 645.836 585.348 645.094 585.348C644.353 585.348 643.752 584.747 643.752 584.006C643.752 583.265 644.353 582.664 645.094 582.664C645.836 582.664 646.436 583.265 646.436 584.006Z" fill="#3056D3"/>
<path d="M646.436 606.823C646.436 607.564 645.836 608.165 645.094 608.165C644.353 608.165 643.752 607.564 643.752 606.823C643.752 606.081 644.353 605.48 645.094 605.48C645.836 605.48 646.436 606.081 646.436 606.823Z" fill="#3056D3"/>
<path d="M646.436 630.176C646.436 630.917 645.836 631.518 645.094 631.518C644.353 631.518 643.752 630.917 643.752 630.176C643.752 629.434 644.353 628.833 645.094 628.833C645.836 628.833 646.436 629.434 646.436 630.176Z" fill="#3056D3"/>
<path d="M658.247 572.464C658.247 573.205 657.646 573.806 656.905 573.806C656.164 573.806 655.563 573.205 655.563 572.464C655.563 571.723 656.164 571.122 656.905 571.122C657.646 571.122 658.247 571.723 658.247 572.464Z" fill="#3056D3"/>
<path d="M693.412 572.464C693.412 573.205 692.811 573.806 692.069 573.806C691.328 573.806 690.727 573.205 690.727 572.464C690.727 571.723 691.328 571.122 692.069 571.122C692.811 571.122 693.412 571.723 693.412 572.464Z" fill="#3056D3"/>
<path d="M658.247 595.281C658.247 596.022 657.646 596.623 656.905 596.623C656.164 596.623 655.563 596.022 655.563 595.281C655.563 594.539 656.164 593.938 656.905 593.938C657.646 593.938 658.247 594.539 658.247 595.281Z" fill="#3056D3"/>
<path d="M693.412 595.281C693.412 596.022 692.811 596.623 692.069 596.623C691.328 596.623 690.727 596.022 690.727 595.281C690.727 594.539 691.328 593.938 692.069 593.938C692.811 593.938 693.412 594.539 693.412 595.281Z" fill="#3056D3"/>
<path d="M658.247 618.633C658.247 619.374 657.646 619.975 656.905 619.975C656.164 619.975 655.563 619.374 655.563 618.633C655.563 617.892 656.164 617.291 656.905 617.291C657.646 617.291 658.247 617.892 658.247 618.633Z" fill="#3056D3"/>
<path d="M693.412 618.633C693.412 619.374 692.811 619.975 692.069 619.975C691.328 619.975 690.727 619.374 690.727 618.633C690.727 617.892 691.328 617.291 692.069 617.291C692.811 617.291 693.412 617.892 693.412 618.633Z" fill="#3056D3"/>
<path d="M658.247 584.006C658.247 584.747 657.646 585.348 656.905 585.348C656.164 585.348 655.563 584.747 655.563 584.006C655.563 583.265 656.164 582.664 656.905 582.664C657.646 582.664 658.247 583.265 658.247 584.006Z" fill="#3056D3"/>
<path d="M693.412 584.006C693.412 584.747 692.811 585.348 692.069 585.348C691.328 585.348 690.727 584.747 690.727 584.006C690.727 583.265 691.328 582.664 692.069 582.664C692.811 582.664 693.412 583.265 693.412 584.006Z" fill="#3056D3"/>
<path d="M658.247 606.823C658.247 607.564 657.646 608.165 656.905 608.165C656.164 608.165 655.563 607.564 655.563 606.823C655.563 606.081 656.164 605.48 656.905 605.48C657.646 605.48 658.247 606.081 658.247 606.823Z" fill="#3056D3"/>
<path d="M693.412 606.823C693.412 607.564 692.811 608.165 692.069 608.165C691.328 608.165 690.727 607.564 690.727 606.823C690.727 606.081 691.328 605.48 692.069 605.48C692.811 605.48 693.412 606.081 693.412 606.823Z" fill="#3056D3"/>
<path d="M658.247 630.176C658.247 630.917 657.646 631.518 656.905 631.518C656.164 631.518 655.563 630.917 655.563 630.176C655.563 629.434 656.164 628.833 656.905 628.833C657.646 628.833 658.247 629.434 658.247 630.176Z" fill="#3056D3"/>
<path d="M693.412 630.176C693.412 630.917 692.811 631.518 692.069 631.518C691.328 631.518 690.727 630.917 690.727 630.176C690.727 629.434 691.328 628.833 692.069 628.833C692.811 628.833 693.412 629.434 693.412 630.176Z" fill="#3056D3"/>
<path d="M670.058 572.464C670.058 573.205 669.457 573.806 668.716 573.806C667.975 573.806 667.374 573.205 667.374 572.464C667.374 571.723 667.975 571.122 668.716 571.122C669.457 571.122 670.058 571.723 670.058 572.464Z" fill="#3056D3"/>
<path d="M705.222 572.464C705.222 573.205 704.621 573.806 703.88 573.806C703.139 573.806 702.538 573.205 702.538 572.464C702.538 571.723 703.139 571.122 703.88 571.122C704.621 571.122 705.222 571.723 705.222 572.464Z" fill="#3056D3"/>
<path d="M670.058 595.281C670.058 596.022 669.457 596.623 668.716 596.623C667.975 596.623 667.374 596.022 667.374 595.281C667.374 594.539 667.975 593.938 668.716 593.938C669.457 593.938 670.058 594.539 670.058 595.281Z" fill="#3056D3"/>
<path d="M705.222 595.281C705.222 596.022 704.621 596.623 703.88 596.623C703.139 596.623 702.538 596.022 702.538 595.281C702.538 594.539 703.139 593.938 703.88 593.938C704.621 593.938 705.222 594.539 705.222 595.281Z" fill="#3056D3"/>
<path d="M670.058 618.633C670.058 619.374 669.457 619.975 668.716 619.975C667.975 619.975 667.374 619.374 667.374 618.633C667.374 617.892 667.975 617.291 668.716 617.291C669.457 617.291 670.058 617.892 670.058 618.633Z" fill="#3056D3"/>
<path d="M705.222 618.633C705.222 619.374 704.621 619.975 703.88 619.975C703.139 619.975 702.538 619.374 702.538 618.633C702.538 617.892 703.139 617.291 703.88 617.291C704.621 617.291 705.222 617.892 705.222 618.633Z" fill="#3056D3"/>
<path d="M670.058 584.006C670.058 584.747 669.457 585.348 668.716 585.348C667.975 585.348 667.374 584.747 667.374 584.006C667.374 583.265 667.975 582.664 668.716 582.664C669.457 582.664 670.058 583.265 670.058 584.006Z" fill="#3056D3"/>
<path d="M705.222 584.006C705.222 584.747 704.621 585.348 703.88 585.348C703.139 585.348 702.538 584.747 702.538 584.006C702.538 583.265 703.139 582.664 703.88 582.664C704.621 582.664 705.222 583.265 705.222 584.006Z" fill="#3056D3"/>
<path d="M670.058 606.823C670.058 607.564 669.457 608.165 668.716 608.165C667.975 608.165 667.374 607.564 667.374 606.823C667.374 606.081 667.975 605.48 668.716 605.48C669.457 605.48 670.058 606.081 670.058 606.823Z" fill="#3056D3"/>
<path d="M705.222 606.823C705.222 607.564 704.621 608.165 703.88 608.165C703.139 608.165 702.538 607.564 702.538 606.823C702.538 606.081 703.139 605.48 703.88 605.48C704.621 605.48 705.222 606.081 705.222 606.823Z" fill="#3056D3"/>
<path d="M670.058 630.176C670.058 630.917 669.457 631.518 668.716 631.518C667.975 631.518 667.374 630.917 667.374 630.176C667.374 629.434 667.975 628.833 668.716 628.833C669.457 628.833 670.058 629.434 670.058 630.176Z" fill="#3056D3"/>
<path d="M705.222 630.176C705.222 630.917 704.621 631.518 703.88 631.518C703.139 631.518 702.538 630.917 702.538 630.176C702.538 629.434 703.139 628.833 703.88 628.833C704.621 628.833 705.222 629.434 705.222 630.176Z" fill="#3056D3"/>
<path d="M681.869 572.464C681.869 573.205 681.268 573.806 680.526 573.806C679.785 573.806 679.184 573.205 679.184 572.464C679.184 571.723 679.785 571.122 680.526 571.122C681.268 571.122 681.869 571.723 681.869 572.464Z" fill="#3056D3"/>
<path d="M717.033 572.464C717.033 573.205 716.432 573.806 715.691 573.806C714.95 573.806 714.349 573.205 714.349 572.464C714.349 571.723 714.95 571.122 715.691 571.122C716.432 571.122 717.033 571.723 717.033 572.464Z" fill="#3056D3"/>
<path d="M681.869 595.281C681.869 596.022 681.268 596.623 680.526 596.623C679.785 596.623 679.184 596.022 679.184 595.281C679.184 594.539 679.785 593.938 680.526 593.938C681.268 593.938 681.869 594.539 681.869 595.281Z" fill="#3056D3"/>
<path d="M717.033 595.281C717.033 596.022 716.432 596.623 715.691 596.623C714.95 596.623 714.349 596.022 714.349 595.281C714.349 594.539 714.95 593.938 715.691 593.938C716.432 593.938 717.033 594.539 717.033 595.281Z" fill="#3056D3"/>
<path d="M681.869 618.633C681.869 619.374 681.268 619.975 680.526 619.975C679.785 619.975 679.184 619.374 679.184 618.633C679.184 617.892 679.785 617.291 680.526 617.291C681.268 617.291 681.869 617.892 681.869 618.633Z" fill="#3056D3"/>
<path d="M717.033 618.633C717.033 619.374 716.432 619.975 715.691 619.975C714.95 619.975 714.349 619.374 714.349 618.633C714.349 617.892 714.95 617.291 715.691 617.291C716.432 617.291 717.033 617.892 717.033 618.633Z" fill="#3056D3"/>
<path d="M681.869 584.006C681.869 584.747 681.268 585.348 680.526 585.348C679.785 585.348 679.184 584.747 679.184 584.006C679.184 583.265 679.785 582.664 680.526 582.664C681.268 582.664 681.869 583.265 681.869 584.006Z" fill="#3056D3"/>
<path d="M717.033 584.006C717.033 584.747 716.432 585.348 715.691 585.348C714.95 585.348 714.349 584.747 714.349 584.006C714.349 583.265 714.95 582.664 715.691 582.664C716.432 582.664 717.033 583.265 717.033 584.006Z" fill="#3056D3"/>
<path d="M681.869 606.823C681.869 607.564 681.268 608.165 680.526 608.165C679.785 608.165 679.184 607.564 679.184 606.823C679.184 606.081 679.785 605.48 680.526 605.48C681.268 605.48 681.869 606.081 681.869 606.823Z" fill="#3056D3"/>
<path d="M717.033 606.823C717.033 607.564 716.432 608.165 715.691 608.165C714.95 608.165 714.349 607.564 714.349 606.823C714.349 606.081 714.95 605.48 715.691 605.48C716.432 605.48 717.033 606.081 717.033 606.823Z" fill="#3056D3"/>
<path d="M681.869 630.176C681.869 630.917 681.268 631.518 680.526 631.518C679.785 631.518 679.184 630.917 679.184 630.176C679.184 629.434 679.785 628.833 680.526 628.833C681.268 628.833 681.869 629.434 681.869 630.176Z" fill="#3056D3"/>
<path d="M717.033 630.176C717.033 630.917 716.432 631.518 715.691 631.518C714.95 631.518 714.349 630.917 714.349 630.176C714.349 629.434 714.95 628.833 715.691 628.833C716.432 628.833 717.033 629.434 717.033 630.176Z" fill="#3056D3"/>
<path opacity="0.5" fill-rule="evenodd" clip-rule="evenodd" d="M669.006 100.331C653.088 100.331 643.142 107.474 639.161 121.759C645.13 114.616 652.094 111.938 660.052 113.723C664.592 114.741 667.839 117.697 671.429 120.971C677.282 126.301 684.056 132.47 698.849 132.47C714.764 132.47 724.712 125.328 728.691 111.045C722.724 118.187 715.761 120.865 707.803 119.079C703.26 118.061 700.014 115.104 696.423 111.833C690.57 106.498 683.799 100.331 669.006 100.331Z" fill="url(#paint2_linear_1045_342)"/>
<path opacity="0.4" fill-rule="evenodd" clip-rule="evenodd" d="M709.179 87.7051C698.159 87.7051 691.274 92.5518 688.517 102.245C692.65 97.3985 697.471 95.5813 702.98 96.7923C706.123 97.483 708.371 99.4893 710.857 101.711C714.909 105.328 719.599 109.514 729.84 109.514C740.858 109.514 747.745 104.667 750.5 94.9751C746.369 99.8218 741.548 101.639 736.039 100.427C732.894 99.7358 730.646 97.7295 728.16 95.5097C724.109 91.8897 719.42 87.7051 709.179 87.7051Z" fill="url(#paint3_linear_1045_342)"/>
<path opacity="0.5" fill-rule="evenodd" clip-rule="evenodd" d="M561.875 628.331C547.998 628.331 539.327 633.688 535.856 644.402C541.061 639.045 547.131 637.036 554.069 638.375C558.027 639.138 560.858 641.356 563.988 643.811C569.09 647.809 574.996 652.435 587.892 652.435C601.767 652.435 610.44 647.079 613.909 636.366C608.707 641.723 602.636 643.732 595.698 642.392C591.738 641.628 588.907 639.411 585.777 636.957C580.675 632.956 574.771 628.331 561.875 628.331Z" fill="url(#paint4_linear_1045_342)"/>
<g filter="url(#filter0_d_1045_342)">
<path d="M384.296 162.697C384.296 157.626 388.408 153.515 393.479 153.515H709.09C714.161 153.515 718.272 157.626 718.272 162.697V354.613C718.272 359.685 714.161 363.796 709.09 363.796H393.479C388.408 363.796 384.296 359.685 384.296 354.613V162.697Z" fill="white"/>
</g>
<path d="M546.485 186.109C546.485 185.187 547.233 184.438 548.156 184.438H558.182C559.104 184.438 559.853 185.187 559.853 186.109C559.853 187.032 559.104 187.78 558.182 187.78H548.156C547.233 187.78 546.485 187.032 546.485 186.109Z" fill="#D3D5DE"/>
<path d="M571.55 186.109C571.55 185.186 572.298 184.438 573.221 184.438H604.969C605.892 184.438 606.64 185.186 606.64 186.109C606.64 187.032 605.892 187.78 604.969 187.78H573.221C572.298 187.78 571.55 187.032 571.55 186.109Z" fill="#D3D5DE"/>
<path d="M618.337 186.109C618.337 185.186 619.085 184.438 620.008 184.438H641.731C642.653 184.438 643.402 185.186 643.402 186.109C643.402 187.032 642.653 187.78 641.731 187.78H620.008C619.085 187.78 618.337 187.032 618.337 186.109Z" fill="#D3D5DE"/>
<path d="M435.271 188.028C434.446 188.028 433.776 187.358 433.776 186.532V183.888C433.776 183.587 434.02 183.343 434.321 183.343C434.622 183.343 434.866 183.587 434.866 183.888V186.153C434.866 186.678 435.291 187.103 435.816 187.103H436.304C436.56 187.103 436.766 187.31 436.766 187.565C436.766 187.821 436.56 188.028 436.304 188.028H435.271Z" fill="#0A082E"/>
<path d="M439.71 188.149C439.271 188.149 438.888 188.077 438.56 187.931C438.237 187.782 437.969 187.587 437.756 187.347C437.544 187.103 437.384 186.842 437.278 186.564C437.176 186.282 437.125 186.008 437.125 185.743V185.602C437.125 185.311 437.178 185.024 437.285 184.742C437.395 184.459 437.559 184.203 437.776 183.972C437.993 183.736 438.264 183.55 438.587 183.413C438.91 183.272 439.285 183.202 439.71 183.202C440.135 183.202 440.51 183.272 440.833 183.413C441.156 183.55 441.427 183.736 441.644 183.972C441.861 184.203 442.025 184.459 442.136 184.742C442.246 185.024 442.302 185.311 442.302 185.602V185.743C442.302 186.008 442.248 186.282 442.142 186.564C442.036 186.842 441.876 187.103 441.664 187.347C441.451 187.587 441.181 187.782 440.853 187.931C440.53 188.077 440.149 188.149 439.71 188.149ZM439.71 187.168C440.016 187.168 440.279 187.101 440.501 186.969C440.727 186.836 440.9 186.656 441.019 186.43C441.139 186.203 441.199 185.953 441.199 185.679C441.199 185.388 441.137 185.131 441.012 184.909C440.893 184.682 440.722 184.504 440.501 184.376C440.279 184.248 440.016 184.184 439.71 184.184C439.404 184.184 439.141 184.248 438.919 184.376C438.698 184.504 438.527 184.682 438.408 184.909C438.288 185.131 438.228 185.388 438.228 185.679C438.228 185.953 438.288 186.203 438.408 186.43C438.527 186.656 438.698 186.836 438.919 186.969C439.141 187.101 439.404 187.168 439.71 187.168Z" fill="#0A082E"/>
<path d="M445.427 188.149C444.992 188.149 444.614 188.081 444.29 187.944C443.967 187.803 443.699 187.615 443.486 187.379C443.278 187.144 443.123 186.885 443.021 186.603C442.919 186.316 442.868 186.027 442.868 185.737V185.595C442.868 185.3 442.919 185.011 443.021 184.729C443.123 184.447 443.276 184.19 443.48 183.959C443.688 183.728 443.945 183.544 444.25 183.407C444.561 183.27 444.917 183.202 445.32 183.202C445.754 183.202 446.14 183.281 446.477 183.439C446.813 183.597 447.083 183.816 447.287 184.094C447.37 184.205 447.438 184.322 447.493 184.447C447.627 184.75 447.359 185.043 447.028 185.043C446.755 185.043 446.537 184.829 446.365 184.618C446.306 184.545 446.235 184.48 446.151 184.421C445.925 184.263 445.648 184.184 445.32 184.184C445.037 184.184 444.793 184.248 444.589 184.376C444.39 184.5 444.237 184.676 444.131 184.902C444.024 185.125 443.971 185.381 443.971 185.672C443.971 186.13 444.098 186.498 444.35 186.776C444.607 187.054 444.966 187.193 445.427 187.193C445.675 187.193 445.896 187.153 446.091 187.071C446.248 187.002 446.38 186.917 446.485 186.814C446.533 186.767 446.556 186.701 446.556 186.633C446.556 186.475 446.428 186.346 446.269 186.346H445.666C445.457 186.346 445.287 186.177 445.287 185.968C445.287 185.758 445.457 185.589 445.666 185.589H447.58C447.789 185.589 447.958 185.758 447.958 185.968V186.147C447.958 186.257 447.869 186.346 447.759 186.346C447.649 186.346 447.56 186.435 447.56 186.546V186.962C447.56 187.079 447.528 187.196 447.456 187.289C447.259 187.544 447.006 187.745 446.696 187.893C446.328 188.064 445.905 188.149 445.427 188.149Z" fill="#0A082E"/>
<path d="M450.976 188.149C450.537 188.149 450.154 188.077 449.826 187.931C449.503 187.782 449.235 187.587 449.022 187.347C448.809 187.103 448.65 186.842 448.544 186.564C448.442 186.282 448.391 186.008 448.391 185.743V185.602C448.391 185.311 448.444 185.024 448.55 184.742C448.661 184.459 448.825 184.203 449.042 183.972C449.259 183.736 449.529 183.55 449.853 183.413C450.176 183.272 450.55 183.202 450.976 183.202C451.401 183.202 451.775 183.272 452.099 183.413C452.422 183.55 452.692 183.736 452.909 183.972C453.126 184.203 453.29 184.459 453.401 184.742C453.512 185.024 453.567 185.311 453.567 185.602V185.743C453.567 186.008 453.514 186.282 453.408 186.564C453.301 186.842 453.142 187.103 452.929 187.347C452.717 187.587 452.446 187.782 452.119 187.931C451.795 188.077 451.414 188.149 450.976 188.149ZM450.976 187.168C451.281 187.168 451.545 187.101 451.766 186.969C451.992 186.836 452.165 186.656 452.285 186.43C452.404 186.203 452.464 185.953 452.464 185.679C452.464 185.388 452.402 185.131 452.278 184.909C452.159 184.682 451.988 184.504 451.766 184.376C451.545 184.248 451.281 184.184 450.976 184.184C450.67 184.184 450.406 184.248 450.185 184.376C449.963 184.504 449.793 184.682 449.673 184.909C449.554 185.131 449.494 185.388 449.494 185.679C449.494 185.953 449.554 186.203 449.673 186.43C449.793 186.656 449.963 186.836 450.185 186.969C450.406 187.101 450.67 187.168 450.976 187.168Z" fill="#0A082E"/>
<path d="M418.57 183.338C420.012 181.896 422.35 181.896 423.792 183.338C425.234 184.78 425.234 187.118 423.792 188.56C422.35 190.002 420.012 190.002 418.57 188.56C417.128 187.118 417.128 184.78 418.57 183.338Z" fill="#3056D3"/>
<path d="M421.555 183.339C422.997 181.897 425.335 181.897 426.777 183.339C428.219 184.781 428.219 187.119 426.777 188.561C425.335 190.002 422.997 190.002 421.555 188.561C420.113 187.119 420.113 184.781 421.555 183.339Z" fill="#9FAFE3"/>
<path d="M678.247 182.545C678.247 182.225 678.507 181.965 678.827 181.965H688.11C688.431 181.965 688.69 182.225 688.69 182.545C688.69 182.865 688.431 183.125 688.11 183.125H678.827C678.507 183.125 678.247 182.865 678.247 182.545Z" fill="#3056D3"/>
<path d="M678.246 186.026C678.246 185.706 678.506 185.446 678.827 185.446H688.11C688.43 185.446 688.69 185.706 688.69 186.026C688.69 186.346 688.43 186.606 688.11 186.606H678.827C678.506 186.606 678.246 186.346 678.246 186.026Z" fill="#3056D3"/>
<path d="M678.248 189.507C678.248 189.187 678.507 188.927 678.828 188.927H688.111C688.431 188.927 688.691 189.187 688.691 189.507C688.691 189.827 688.431 190.087 688.111 190.087H678.828C678.507 190.087 678.248 189.827 678.248 189.507Z" fill="#3056D3"/>
<path d="M648.778 250.798C648.778 251.031 648.589 251.22 648.356 251.22C648.123 251.22 647.935 251.031 647.935 250.798C647.935 250.565 648.123 250.376 648.356 250.376C648.589 250.376 648.778 250.565 648.778 250.798Z" fill="#3056D3"/>
<path d="M648.778 254.51C648.778 254.743 648.59 254.932 648.357 254.932C648.124 254.932 647.935 254.743 647.935 254.51C647.935 254.277 648.124 254.088 648.357 254.088C648.59 254.088 648.778 254.277 648.778 254.51Z" fill="#3056D3"/>
<path d="M648.78 258.222C648.78 258.455 648.591 258.644 648.358 258.644C648.125 258.644 647.936 258.455 647.936 258.222C647.936 257.989 648.125 257.8 648.358 257.8C648.591 257.8 648.78 257.989 648.78 258.222Z" fill="#3056D3"/>
<path d="M648.78 261.934C648.78 262.167 648.591 262.356 648.358 262.356C648.125 262.356 647.936 262.167 647.936 261.934C647.936 261.701 648.125 261.512 648.358 261.512C648.591 261.512 648.78 261.701 648.78 261.934Z" fill="#3056D3"/>
<path d="M648.778 265.646C648.778 265.879 648.59 266.068 648.357 266.068C648.124 266.068 647.935 265.879 647.935 265.646C647.935 265.413 648.124 265.224 648.357 265.224C648.59 265.224 648.778 265.413 648.778 265.646Z" fill="#3056D3"/>
<path d="M648.78 272.817C648.78 273.05 648.591 273.239 648.358 273.239C648.125 273.239 647.936 273.05 647.936 272.817C647.936 272.584 648.125 272.395 648.358 272.395C648.591 272.395 648.78 272.584 648.78 272.817Z" fill="#3056D3"/>
<path d="M648.778 280.156C648.778 280.389 648.59 280.578 648.357 280.578C648.124 280.578 647.935 280.389 647.935 280.156C647.935 279.923 648.124 279.734 648.357 279.734C648.59 279.734 648.778 279.923 648.778 280.156Z" fill="#3056D3"/>
<path d="M648.778 269.274C648.778 269.507 648.59 269.696 648.357 269.696C648.124 269.696 647.935 269.507 647.935 269.274C647.935 269.041 648.124 268.852 648.357 268.852C648.59 268.852 648.778 269.041 648.778 269.274Z" fill="#3056D3"/>
<path d="M648.78 276.444C648.78 276.677 648.591 276.866 648.358 276.866C648.125 276.866 647.936 276.677 647.936 276.444C647.936 276.211 648.125 276.022 648.358 276.022C648.591 276.022 648.78 276.211 648.78 276.444Z" fill="#3056D3"/>
<path d="M648.778 283.784C648.778 284.017 648.59 284.206 648.357 284.206C648.124 284.206 647.935 284.017 647.935 283.784C647.935 283.551 648.124 283.362 648.357 283.362C648.59 283.362 648.778 283.551 648.778 283.784Z" fill="#3056D3"/>
<path d="M652.491 250.798C652.491 251.031 652.302 251.22 652.07 251.22C651.837 251.22 651.648 251.031 651.648 250.798C651.648 250.565 651.837 250.376 652.07 250.376C652.302 250.376 652.491 250.565 652.491 250.798Z" fill="#3056D3"/>
<path d="M652.49 254.51C652.49 254.743 652.301 254.932 652.068 254.932C651.835 254.932 651.646 254.743 651.646 254.51C651.646 254.277 651.835 254.088 652.068 254.088C652.301 254.088 652.49 254.277 652.49 254.51Z" fill="#3056D3"/>
<path d="M652.491 258.222C652.491 258.455 652.302 258.644 652.07 258.644C651.837 258.644 651.648 258.455 651.648 258.222C651.648 257.989 651.837 257.8 652.07 257.8C652.302 257.8 652.491 257.989 652.491 258.222Z" fill="#3056D3"/>
<path d="M652.491 261.934C652.491 262.167 652.302 262.356 652.07 262.356C651.837 262.356 651.648 262.167 651.648 261.934C651.648 261.701 651.837 261.512 652.07 261.512C652.302 261.512 652.491 261.701 652.491 261.934Z" fill="#3056D3"/>
<path d="M652.491 265.646C652.491 265.879 652.302 266.068 652.07 266.068C651.837 266.068 651.648 265.879 651.648 265.646C651.648 265.413 651.837 265.224 652.07 265.224C652.302 265.224 652.491 265.413 652.491 265.646Z" fill="#3056D3"/>
<path d="M652.491 272.817C652.491 273.05 652.302 273.239 652.07 273.239C651.837 273.239 651.648 273.05 651.648 272.817C651.648 272.584 651.837 272.395 652.07 272.395C652.302 272.395 652.491 272.584 652.491 272.817Z" fill="#3056D3"/>
<path d="M652.491 280.156C652.491 280.389 652.302 280.578 652.07 280.578C651.837 280.578 651.648 280.389 651.648 280.156C651.648 279.923 651.837 279.734 652.07 279.734C652.302 279.734 652.491 279.923 652.491 280.156Z" fill="#3056D3"/>
<path d="M652.491 269.274C652.491 269.507 652.302 269.696 652.07 269.696C651.837 269.696 651.648 269.507 651.648 269.274C651.648 269.041 651.837 268.852 652.07 268.852C652.302 268.852 652.491 269.041 652.491 269.274Z" fill="#3056D3"/>
<path d="M652.491 276.444C652.491 276.677 652.302 276.866 652.07 276.866C651.837 276.866 651.648 276.677 651.648 276.444C651.648 276.211 651.837 276.022 652.07 276.022C652.302 276.022 652.491 276.211 652.491 276.444Z" fill="#3056D3"/>
<path d="M652.491 283.784C652.491 284.017 652.302 284.206 652.07 284.206C651.837 284.206 651.648 284.017 651.648 283.784C651.648 283.551 651.837 283.362 652.07 283.362C652.302 283.362 652.491 283.551 652.491 283.784Z" fill="#3056D3"/>
<path d="M656.203 250.798C656.203 251.031 656.014 251.22 655.781 251.22C655.548 251.22 655.359 251.031 655.359 250.798C655.359 250.565 655.548 250.376 655.781 250.376C656.014 250.376 656.203 250.565 656.203 250.798Z" fill="#3056D3"/>
<path d="M667.254 250.798C667.254 251.031 667.065 251.22 666.832 251.22C666.599 251.22 666.411 251.031 666.411 250.798C666.411 250.565 666.599 250.376 666.832 250.376C667.065 250.376 667.254 250.565 667.254 250.798Z" fill="#3056D3"/>
<path d="M656.203 254.51C656.203 254.743 656.014 254.932 655.781 254.932C655.548 254.932 655.359 254.743 655.359 254.51C655.359 254.277 655.548 254.088 655.781 254.088C656.014 254.088 656.203 254.277 656.203 254.51Z" fill="#3056D3"/>
<path d="M667.254 254.51C667.254 254.743 667.065 254.932 666.832 254.932C666.599 254.932 666.411 254.743 666.411 254.51C666.411 254.277 666.599 254.088 666.832 254.088C667.065 254.088 667.254 254.277 667.254 254.51Z" fill="#3056D3"/>
<path d="M656.204 258.222C656.204 258.455 656.015 258.644 655.782 258.644C655.549 258.644 655.36 258.455 655.36 258.222C655.36 257.989 655.549 257.8 655.782 257.8C656.015 257.8 656.204 257.989 656.204 258.222Z" fill="#3056D3"/>
<path d="M667.254 258.222C667.254 258.455 667.065 258.644 666.832 258.644C666.599 258.644 666.411 258.455 666.411 258.222C666.411 257.989 666.599 257.8 666.832 257.8C667.065 257.8 667.254 257.989 667.254 258.222Z" fill="#3056D3"/>
<path d="M656.203 261.934C656.203 262.167 656.014 262.356 655.781 262.356C655.548 262.356 655.359 262.167 655.359 261.934C655.359 261.701 655.548 261.512 655.781 261.512C656.014 261.512 656.203 261.701 656.203 261.934Z" fill="#3056D3"/>
<path d="M667.254 261.934C667.254 262.167 667.065 262.356 666.832 262.356C666.599 262.356 666.411 262.167 666.411 261.934C666.411 261.701 666.599 261.512 666.832 261.512C667.065 261.512 667.254 261.701 667.254 261.934Z" fill="#3056D3"/>
<path d="M656.203 265.646C656.203 265.879 656.014 266.068 655.781 266.068C655.548 266.068 655.359 265.879 655.359 265.646C655.359 265.413 655.548 265.224 655.781 265.224C656.014 265.224 656.203 265.413 656.203 265.646Z" fill="#3056D3"/>
<path d="M667.254 265.646C667.254 265.879 667.065 266.068 666.832 266.068C666.599 266.068 666.411 265.879 666.411 265.646C666.411 265.413 666.599 265.224 666.832 265.224C667.065 265.224 667.254 265.413 667.254 265.646Z" fill="#3056D3"/>
<path d="M656.203 272.817C656.203 273.05 656.014 273.239 655.781 273.239C655.548 273.239 655.359 273.05 655.359 272.817C655.359 272.584 655.548 272.395 655.781 272.395C656.014 272.395 656.203 272.584 656.203 272.817Z" fill="#3056D3"/>
<path d="M667.254 272.817C667.254 273.05 667.065 273.239 666.832 273.239C666.599 273.239 666.411 273.05 666.411 272.817C666.411 272.584 666.599 272.395 666.832 272.395C667.065 272.395 667.254 272.584 667.254 272.817Z" fill="#3056D3"/>
<path d="M656.203 280.156C656.203 280.389 656.014 280.578 655.781 280.578C655.548 280.578 655.359 280.389 655.359 280.156C655.359 279.923 655.548 279.734 655.781 279.734C656.014 279.734 656.203 279.923 656.203 280.156Z" fill="#3056D3"/>
<path d="M667.254 280.156C667.254 280.389 667.065 280.578 666.832 280.578C666.599 280.578 666.411 280.389 666.411 280.156C666.411 279.923 666.599 279.734 666.832 279.734C667.065 279.734 667.254 279.923 667.254 280.156Z" fill="#3056D3"/>
<path d="M656.203 269.273C656.203 269.506 656.014 269.695 655.781 269.695C655.548 269.695 655.359 269.506 655.359 269.273C655.359 269.04 655.548 268.852 655.781 268.852C656.014 268.852 656.203 269.04 656.203 269.273Z" fill="#3056D3"/>
<path d="M667.254 269.273C667.254 269.506 667.065 269.695 666.832 269.695C666.599 269.695 666.411 269.506 666.411 269.273C666.411 269.04 666.599 268.852 666.832 268.852C667.065 268.852 667.254 269.04 667.254 269.273Z" fill="#3056D3"/>
<path d="M656.203 276.444C656.203 276.677 656.014 276.866 655.781 276.866C655.548 276.866 655.359 276.677 655.359 276.444C655.359 276.211 655.548 276.022 655.781 276.022C656.014 276.022 656.203 276.211 656.203 276.444Z" fill="#3056D3"/>
<path d="M667.254 276.444C667.254 276.677 667.065 276.866 666.832 276.866C666.599 276.866 666.411 276.677 666.411 276.444C666.411 276.211 666.599 276.022 666.832 276.022C667.065 276.022 667.254 276.211 667.254 276.444Z" fill="#3056D3"/>
<path d="M656.203 283.784C656.203 284.017 656.014 284.206 655.781 284.206C655.548 284.206 655.359 284.017 655.359 283.784C655.359 283.551 655.548 283.362 655.781 283.362C656.014 283.362 656.203 283.551 656.203 283.784Z" fill="#3056D3"/>
<path d="M667.254 283.784C667.254 284.017 667.065 284.206 666.832 284.206C666.599 284.206 666.411 284.017 666.411 283.784C666.411 283.551 666.599 283.362 666.832 283.362C667.065 283.362 667.254 283.551 667.254 283.784Z" fill="#3056D3"/>
<path d="M659.916 250.798C659.916 251.031 659.727 251.22 659.494 251.22C659.261 251.22 659.072 251.031 659.072 250.798C659.072 250.565 659.261 250.376 659.494 250.376C659.727 250.376 659.916 250.565 659.916 250.798Z" fill="#3056D3"/>
<path d="M670.967 250.798C670.967 251.031 670.778 251.22 670.545 251.22C670.312 251.22 670.124 251.031 670.124 250.798C670.124 250.565 670.312 250.376 670.545 250.376C670.778 250.376 670.967 250.565 670.967 250.798Z" fill="#3056D3"/>
<path d="M659.915 254.51C659.915 254.743 659.726 254.932 659.493 254.932C659.26 254.932 659.071 254.743 659.071 254.51C659.071 254.277 659.26 254.088 659.493 254.088C659.726 254.088 659.915 254.277 659.915 254.51Z" fill="#3056D3"/>
<path d="M670.966 254.51C670.966 254.743 670.777 254.932 670.544 254.932C670.311 254.932 670.122 254.743 670.122 254.51C670.122 254.277 670.311 254.088 670.544 254.088C670.777 254.088 670.966 254.277 670.966 254.51Z" fill="#3056D3"/>
<path d="M659.915 258.222C659.915 258.455 659.726 258.644 659.493 258.644C659.26 258.644 659.071 258.455 659.071 258.222C659.071 257.989 659.26 257.8 659.493 257.8C659.726 257.8 659.915 257.989 659.915 258.222Z" fill="#3056D3"/>
<path d="M670.966 258.222C670.966 258.455 670.777 258.644 670.544 258.644C670.311 258.644 670.122 258.455 670.122 258.222C670.122 257.989 670.311 257.8 670.544 257.8C670.777 257.8 670.966 257.989 670.966 258.222Z" fill="#3056D3"/>
<path d="M659.916 261.934C659.916 262.167 659.727 262.356 659.494 262.356C659.261 262.356 659.072 262.167 659.072 261.934C659.072 261.701 659.261 261.512 659.494 261.512C659.727 261.512 659.916 261.701 659.916 261.934Z" fill="#3056D3"/>
<path d="M670.967 261.934C670.967 262.167 670.778 262.356 670.545 262.356C670.312 262.356 670.124 262.167 670.124 261.934C670.124 261.701 670.312 261.512 670.545 261.512C670.778 261.512 670.967 261.701 670.967 261.934Z" fill="#3056D3"/>
<path d="M659.915 265.646C659.915 265.879 659.726 266.068 659.493 266.068C659.26 266.068 659.071 265.879 659.071 265.646C659.071 265.413 659.26 265.224 659.493 265.224C659.726 265.224 659.915 265.413 659.915 265.646Z" fill="#3056D3"/>
<path d="M670.966 265.646C670.966 265.879 670.777 266.068 670.544 266.068C670.311 266.068 670.122 265.879 670.122 265.646C670.122 265.413 670.311 265.224 670.544 265.224C670.777 265.224 670.966 265.413 670.966 265.646Z" fill="#3056D3"/>
<path d="M659.915 272.817C659.915 273.05 659.726 273.239 659.493 273.239C659.26 273.239 659.071 273.05 659.071 272.817C659.071 272.584 659.26 272.395 659.493 272.395C659.726 272.395 659.915 272.584 659.915 272.817Z" fill="#3056D3"/>
<path d="M670.967 272.817C670.967 273.05 670.778 273.239 670.545 273.239C670.312 273.239 670.124 273.05 670.124 272.817C670.124 272.584 670.312 272.395 670.545 272.395C670.778 272.395 670.967 272.584 670.967 272.817Z" fill="#3056D3"/>
<path d="M659.915 280.156C659.915 280.389 659.726 280.578 659.493 280.578C659.26 280.578 659.071 280.389 659.071 280.156C659.071 279.923 659.26 279.734 659.493 279.734C659.726 279.734 659.915 279.923 659.915 280.156Z" fill="#3056D3"/>
<path d="M670.966 280.156C670.966 280.389 670.777 280.578 670.544 280.578C670.311 280.578 670.122 280.389 670.122 280.156C670.122 279.923 670.311 279.734 670.544 279.734C670.777 279.734 670.966 279.923 670.966 280.156Z" fill="#3056D3"/>
<path d="M659.915 269.273C659.915 269.506 659.726 269.695 659.493 269.695C659.26 269.695 659.071 269.506 659.071 269.273C659.071 269.04 659.26 268.852 659.493 268.852C659.726 268.852 659.915 269.04 659.915 269.273Z" fill="#3056D3"/>
<path d="M670.966 269.273C670.966 269.506 670.777 269.695 670.544 269.695C670.311 269.695 670.122 269.506 670.122 269.273C670.122 269.04 670.311 268.852 670.544 268.852C670.777 268.852 670.966 269.04 670.966 269.273Z" fill="#3056D3"/>
<path d="M659.915 276.444C659.915 276.677 659.726 276.866 659.493 276.866C659.26 276.866 659.071 276.677 659.071 276.444C659.071 276.211 659.26 276.022 659.493 276.022C659.726 276.022 659.915 276.211 659.915 276.444Z" fill="#3056D3"/>
<path d="M670.967 276.444C670.967 276.677 670.778 276.866 670.545 276.866C670.312 276.866 670.124 276.677 670.124 276.444C670.124 276.211 670.312 276.022 670.545 276.022C670.778 276.022 670.967 276.211 670.967 276.444Z" fill="#3056D3"/>
<path d="M659.915 283.784C659.915 284.017 659.726 284.206 659.493 284.206C659.26 284.206 659.071 284.017 659.071 283.784C659.071 283.551 659.26 283.362 659.493 283.362C659.726 283.362 659.915 283.551 659.915 283.784Z" fill="#3056D3"/>
<path d="M670.966 283.784C670.966 284.017 670.777 284.206 670.544 284.206C670.311 284.206 670.122 284.017 670.122 283.784C670.122 283.551 670.311 283.362 670.544 283.362C670.777 283.362 670.966 283.551 670.966 283.784Z" fill="#3056D3"/>
<path d="M663.628 250.798C663.628 251.031 663.439 251.22 663.206 251.22C662.973 251.22 662.784 251.031 662.784 250.798C662.784 250.565 662.973 250.376 663.206 250.376C663.439 250.376 663.628 250.565 663.628 250.798Z" fill="#3056D3"/>
<path d="M674.679 250.798C674.679 251.031 674.49 251.22 674.257 251.22C674.024 251.22 673.835 251.031 673.835 250.798C673.835 250.565 674.024 250.376 674.257 250.376C674.49 250.376 674.679 250.565 674.679 250.798Z" fill="#3056D3"/>
<path d="M663.628 254.51C663.628 254.743 663.439 254.932 663.206 254.932C662.973 254.932 662.784 254.743 662.784 254.51C662.784 254.277 662.973 254.088 663.206 254.088C663.439 254.088 663.628 254.277 663.628 254.51Z" fill="#3056D3"/>
<path d="M674.679 254.51C674.679 254.743 674.49 254.932 674.257 254.932C674.024 254.932 673.835 254.743 673.835 254.51C673.835 254.277 674.024 254.088 674.257 254.088C674.49 254.088 674.679 254.277 674.679 254.51Z" fill="#3056D3"/>
<path d="M663.627 258.222C663.627 258.455 663.438 258.644 663.205 258.644C662.972 258.644 662.783 258.455 662.783 258.222C662.783 257.989 662.972 257.8 663.205 257.8C663.438 257.8 663.627 257.989 663.627 258.222Z" fill="#3056D3"/>
<path d="M674.678 258.222C674.678 258.455 674.489 258.643 674.256 258.643C674.023 258.643 673.834 258.455 673.834 258.222C673.834 257.989 674.023 257.8 674.256 257.8C674.489 257.8 674.678 257.989 674.678 258.222Z" fill="#3056D3"/>
<path d="M663.627 261.934C663.627 262.166 663.438 262.355 663.205 262.355C662.972 262.355 662.783 262.166 662.783 261.934C662.783 261.701 662.972 261.512 663.205 261.512C663.438 261.512 663.627 261.701 663.627 261.934Z" fill="#3056D3"/>
<path d="M674.679 261.934C674.679 262.167 674.49 262.356 674.257 262.356C674.024 262.356 673.835 262.167 673.835 261.934C673.835 261.701 674.024 261.512 674.257 261.512C674.49 261.512 674.679 261.701 674.679 261.934Z" fill="#3056D3"/>
<path d="M663.628 265.646C663.628 265.879 663.439 266.068 663.206 266.068C662.973 266.068 662.784 265.879 662.784 265.646C662.784 265.413 662.973 265.224 663.206 265.224C663.439 265.224 663.628 265.413 663.628 265.646Z" fill="#3056D3"/>
<path d="M674.679 265.646C674.679 265.879 674.49 266.068 674.257 266.068C674.024 266.068 673.835 265.879 673.835 265.646C673.835 265.413 674.024 265.224 674.257 265.224C674.49 265.224 674.679 265.413 674.679 265.646Z" fill="#3056D3"/>
<path d="M663.627 272.817C663.627 273.05 663.438 273.239 663.205 273.239C662.972 273.239 662.783 273.05 662.783 272.817C662.783 272.584 662.972 272.395 663.205 272.395C663.438 272.395 663.627 272.584 663.627 272.817Z" fill="#3056D3"/>
<path d="M674.678 272.816C674.678 273.049 674.489 273.238 674.256 273.238C674.023 273.238 673.834 273.049 673.834 272.816C673.834 272.583 674.023 272.394 674.256 272.394C674.489 272.394 674.678 272.583 674.678 272.816Z" fill="#3056D3"/>
<path d="M663.628 280.156C663.628 280.389 663.439 280.578 663.206 280.578C662.973 280.578 662.784 280.389 662.784 280.156C662.784 279.923 662.973 279.734 663.206 279.734C663.439 279.734 663.628 279.923 663.628 280.156Z" fill="#3056D3"/>
<path d="M674.679 280.156C674.679 280.389 674.49 280.578 674.257 280.578C674.024 280.578 673.835 280.389 673.835 280.156C673.835 279.923 674.024 279.734 674.257 279.734C674.49 279.734 674.679 279.923 674.679 280.156Z" fill="#3056D3"/>
<path d="M663.628 269.274C663.628 269.507 663.439 269.696 663.206 269.696C662.973 269.696 662.784 269.507 662.784 269.274C662.784 269.041 662.973 268.852 663.206 268.852C663.439 268.852 663.628 269.041 663.628 269.274Z" fill="#3056D3"/>
<path d="M674.679 269.274C674.679 269.507 674.49 269.696 674.257 269.696C674.024 269.696 673.835 269.507 673.835 269.274C673.835 269.041 674.024 268.852 674.257 268.852C674.49 268.852 674.679 269.041 674.679 269.274Z" fill="#3056D3"/>
<path d="M663.627 276.444C663.627 276.677 663.438 276.866 663.205 276.866C662.972 276.866 662.783 276.677 662.783 276.444C662.783 276.211 662.972 276.022 663.205 276.022C663.438 276.022 663.627 276.211 663.627 276.444Z" fill="#3056D3"/>
<path d="M674.678 276.444C674.678 276.677 674.489 276.866 674.256 276.866C674.023 276.866 673.834 276.677 673.834 276.444C673.834 276.211 674.023 276.022 674.256 276.022C674.489 276.022 674.678 276.211 674.678 276.444Z" fill="#3056D3"/>
<path d="M663.628 283.784C663.628 284.017 663.439 284.206 663.206 284.206C662.973 284.206 662.784 284.017 662.784 283.784C662.784 283.551 662.973 283.362 663.206 283.362C663.439 283.362 663.628 283.551 663.628 283.784Z" fill="#3056D3"/>
<path d="M674.679 283.784C674.679 284.017 674.49 284.206 674.257 284.206C674.024 284.206 673.835 284.017 673.835 283.784C673.835 283.551 674.024 283.362 674.257 283.362C674.49 283.362 674.679 283.551 674.679 283.784Z" fill="#3056D3"/>
<path d="M443.485 335.643C443.252 335.643 443.063 335.455 443.063 335.222C443.063 334.989 443.252 334.8 443.485 334.8C443.718 334.8 443.907 334.989 443.907 335.222C443.907 335.455 443.718 335.643 443.485 335.643Z" fill="#3056D3"/>
<path d="M439.774 335.643C439.541 335.643 439.352 335.454 439.352 335.221C439.352 334.988 439.541 334.799 439.774 334.799C440.007 334.799 440.196 334.988 440.196 335.221C440.196 335.454 440.007 335.643 439.774 335.643Z" fill="#3056D3"/>
<path d="M436.062 335.643C435.829 335.643 435.64 335.454 435.64 335.221C435.64 334.988 435.829 334.799 436.062 334.799C436.295 334.799 436.484 334.988 436.484 335.221C436.484 335.454 436.295 335.643 436.062 335.643Z" fill="#3056D3"/>
<path d="M432.35 335.643C432.117 335.643 431.928 335.454 431.928 335.221C431.928 334.988 432.117 334.799 432.35 334.799C432.583 334.799 432.771 334.988 432.771 335.221C432.771 335.454 432.583 335.643 432.35 335.643Z" fill="#3056D3"/>
<path d="M428.639 335.643C428.406 335.643 428.217 335.454 428.217 335.221C428.217 334.988 428.406 334.799 428.639 334.799C428.872 334.799 429.061 334.988 429.061 335.221C429.061 335.454 428.872 335.643 428.639 335.643Z" fill="#3056D3"/>
<path d="M443.486 339.355C443.253 339.355 443.064 339.166 443.064 338.934C443.064 338.701 443.253 338.512 443.486 338.512C443.719 338.512 443.908 338.701 443.908 338.934C443.908 339.166 443.719 339.355 443.486 339.355Z" fill="#3056D3"/>
<path d="M439.774 339.355C439.541 339.355 439.352 339.166 439.352 338.934C439.352 338.701 439.541 338.512 439.774 338.512C440.007 338.512 440.196 338.701 440.196 338.934C440.196 339.166 440.007 339.355 439.774 339.355Z" fill="#3056D3"/>
<path d="M436.061 339.355C435.828 339.355 435.64 339.166 435.64 338.934C435.64 338.701 435.828 338.512 436.061 338.512C436.294 338.512 436.483 338.701 436.483 338.934C436.483 339.166 436.294 339.355 436.061 339.355Z" fill="#3056D3"/>
<path d="M432.35 339.355C432.117 339.355 431.928 339.166 431.928 338.933C431.928 338.7 432.117 338.511 432.35 338.511C432.583 338.511 432.771 338.7 432.771 338.933C432.771 339.166 432.583 339.355 432.35 339.355Z" fill="#3056D3"/>
<path d="M428.639 339.355C428.406 339.355 428.217 339.166 428.217 338.934C428.217 338.701 428.406 338.512 428.639 338.512C428.872 338.512 429.061 338.701 429.061 338.934C429.061 339.166 428.872 339.355 428.639 339.355Z" fill="#3056D3"/>
<path d="M443.487 343.067C443.254 343.067 443.065 342.878 443.065 342.645C443.065 342.412 443.254 342.224 443.487 342.224C443.72 342.224 443.909 342.412 443.909 342.645C443.909 342.878 443.72 343.067 443.487 343.067Z" fill="#3056D3"/>
<path d="M443.486 354.119C443.253 354.119 443.064 353.93 443.064 353.697C443.064 353.464 443.253 353.275 443.486 353.275C443.719 353.275 443.908 353.464 443.908 353.697C443.908 353.93 443.719 354.119 443.486 354.119Z" fill="#3056D3"/>
<path d="M439.775 343.067C439.542 343.067 439.353 342.878 439.353 342.645C439.353 342.412 439.542 342.224 439.775 342.224C440.008 342.224 440.197 342.412 440.197 342.645C440.197 342.878 440.008 343.067 439.775 343.067Z" fill="#3056D3"/>
<path d="M439.774 354.119C439.541 354.119 439.352 353.93 439.352 353.697C439.352 353.464 439.541 353.275 439.774 353.275C440.007 353.275 440.196 353.464 440.196 353.697C440.196 353.93 440.007 354.119 439.774 354.119Z" fill="#3056D3"/>
<path d="M436.062 343.067C435.829 343.067 435.64 342.878 435.64 342.645C435.64 342.412 435.829 342.224 436.062 342.224C436.295 342.224 436.484 342.412 436.484 342.645C436.484 342.878 436.295 343.067 436.062 343.067Z" fill="#3056D3"/>
<path d="M436.062 354.119C435.829 354.119 435.64 353.93 435.64 353.697C435.64 353.464 435.829 353.275 436.062 353.275C436.295 353.275 436.484 353.464 436.484 353.697C436.484 353.93 436.295 354.119 436.062 354.119Z" fill="#3056D3"/>
<path d="M432.351 343.067C432.118 343.067 431.929 342.878 431.929 342.645C431.929 342.412 432.118 342.224 432.351 342.224C432.584 342.224 432.772 342.412 432.772 342.645C432.772 342.878 432.584 343.067 432.351 343.067Z" fill="#3056D3"/>
<path d="M432.35 354.119C432.117 354.119 431.928 353.93 431.928 353.697C431.928 353.464 432.117 353.275 432.35 353.275C432.583 353.275 432.771 353.464 432.771 353.697C432.771 353.93 432.583 354.119 432.35 354.119Z" fill="#3056D3"/>
<path d="M428.638 343.067C428.405 343.067 428.216 342.878 428.216 342.645C428.216 342.412 428.405 342.224 428.638 342.224C428.871 342.224 429.06 342.412 429.06 342.645C429.06 342.878 428.871 343.067 428.638 343.067Z" fill="#3056D3"/>
<path d="M428.639 354.119C428.406 354.119 428.217 353.93 428.217 353.697C428.217 353.464 428.406 353.275 428.639 353.275C428.872 353.275 429.061 353.464 429.061 353.697C429.061 353.93 428.872 354.119 428.639 354.119Z" fill="#3056D3"/>
<path d="M443.487 346.779C443.254 346.779 443.065 346.59 443.065 346.357C443.065 346.124 443.254 345.936 443.487 345.936C443.72 345.936 443.909 346.124 443.909 346.357C443.909 346.59 443.72 346.779 443.487 346.779Z" fill="#3056D3"/>
<path d="M443.486 357.831C443.253 357.831 443.064 357.642 443.064 357.409C443.064 357.176 443.253 356.987 443.486 356.987C443.719 356.987 443.908 357.176 443.908 357.409C443.908 357.642 443.719 357.831 443.486 357.831Z" fill="#3056D3"/>
<path d="M439.774 346.779C439.541 346.779 439.352 346.59 439.352 346.357C439.352 346.124 439.541 345.935 439.774 345.935C440.007 345.935 440.196 346.124 440.196 346.357C440.196 346.59 440.007 346.779 439.774 346.779Z" fill="#3056D3"/>
<path d="M439.774 357.83C439.541 357.83 439.352 357.642 439.352 357.409C439.352 357.176 439.541 356.987 439.774 356.987C440.007 356.987 440.196 357.176 440.196 357.409C440.196 357.642 440.007 357.83 439.774 357.83Z" fill="#3056D3"/>
<path d="M436.062 346.778C435.829 346.778 435.64 346.589 435.64 346.356C435.64 346.123 435.829 345.935 436.062 345.935C436.295 345.935 436.484 346.123 436.484 346.356C436.484 346.589 436.295 346.778 436.062 346.778Z" fill="#3056D3"/>
<path d="M436.062 357.83C435.829 357.83 435.64 357.642 435.64 357.409C435.64 357.176 435.829 356.987 436.062 356.987C436.295 356.987 436.484 357.176 436.484 357.409C436.484 357.642 436.295 357.83 436.062 357.83Z" fill="#3056D3"/>
<path d="M432.351 346.779C432.118 346.779 431.929 346.59 431.929 346.357C431.929 346.124 432.118 345.935 432.351 345.935C432.584 345.935 432.772 346.124 432.772 346.357C432.772 346.59 432.584 346.779 432.351 346.779Z" fill="#3056D3"/>
<path d="M432.351 357.83C432.118 357.83 431.929 357.642 431.929 357.409C431.929 357.176 432.118 356.987 432.351 356.987C432.584 356.987 432.772 357.176 432.772 357.409C432.772 357.642 432.584 357.83 432.351 357.83Z" fill="#3056D3"/>
<path d="M428.638 346.779C428.405 346.779 428.216 346.59 428.216 346.357C428.216 346.124 428.405 345.935 428.638 345.935C428.871 345.935 429.06 346.124 429.06 346.357C429.06 346.59 428.871 346.779 428.638 346.779Z" fill="#3056D3"/>
<path d="M428.639 357.83C428.406 357.83 428.217 357.641 428.217 357.408C428.217 357.175 428.406 356.986 428.639 356.986C428.872 356.986 429.061 357.175 429.061 357.408C429.061 357.641 428.872 357.83 428.639 357.83Z" fill="#3056D3"/>
<path d="M443.486 350.491C443.253 350.491 443.064 350.302 443.064 350.069C443.064 349.836 443.253 349.647 443.486 349.647C443.719 349.647 443.908 349.836 443.908 350.069C443.908 350.302 443.719 350.491 443.486 350.491Z" fill="#3056D3"/>
<path d="M443.487 361.543C443.254 361.543 443.065 361.354 443.065 361.121C443.065 360.888 443.254 360.699 443.487 360.699C443.72 360.699 443.909 360.888 443.909 361.121C443.909 361.354 443.72 361.543 443.487 361.543Z" fill="#3056D3"/>
<path d="M439.774 350.491C439.541 350.491 439.352 350.302 439.352 350.069C439.352 349.836 439.541 349.647 439.774 349.647C440.007 349.647 440.196 349.836 440.196 350.069C440.196 350.302 440.007 350.491 439.774 350.491Z" fill="#3056D3"/>
<path d="M439.775 361.542C439.542 361.542 439.353 361.354 439.353 361.121C439.353 360.888 439.542 360.699 439.775 360.699C440.008 360.699 440.197 360.888 440.197 361.121C440.197 361.354 440.008 361.542 439.775 361.542Z" fill="#3056D3"/>
<path d="M436.062 350.491C435.829 350.491 435.64 350.302 435.64 350.069C435.64 349.836 435.829 349.647 436.062 349.647C436.295 349.647 436.484 349.836 436.484 350.069C436.484 350.302 436.295 350.491 436.062 350.491Z" fill="#3056D3"/>
<path d="M436.062 361.542C435.829 361.542 435.64 361.354 435.64 361.121C435.64 360.888 435.829 360.699 436.062 360.699C436.295 360.699 436.484 360.888 436.484 361.121C436.484 361.354 436.295 361.542 436.062 361.542Z" fill="#3056D3"/>
<path d="M432.35 350.491C432.117 350.491 431.928 350.302 431.928 350.069C431.928 349.836 432.117 349.647 432.35 349.647C432.583 349.647 432.771 349.836 432.771 350.069C432.771 350.302 432.583 350.491 432.35 350.491Z" fill="#3056D3"/>
<path d="M432.351 361.542C432.118 361.542 431.929 361.354 431.929 361.121C431.929 360.888 432.118 360.699 432.351 360.699C432.584 360.699 432.772 360.888 432.772 361.121C432.772 361.354 432.584 361.542 432.351 361.542Z" fill="#3056D3"/>
<path d="M428.639 350.491C428.406 350.491 428.217 350.302 428.217 350.069C428.217 349.836 428.406 349.647 428.639 349.647C428.872 349.647 429.061 349.836 429.061 350.069C429.061 350.302 428.872 350.491 428.639 350.491Z" fill="#3056D3"/>
<path d="M428.638 361.542C428.405 361.542 428.216 361.354 428.216 361.121C428.216 360.888 428.405 360.699 428.638 360.699C428.871 360.699 429.06 360.888 429.06 361.121C429.06 361.354 428.871 361.542 428.638 361.542Z" fill="#3056D3"/>
<path d="M435.011 260.843C435.011 258.942 436.553 257.4 438.455 257.4H662.877C664.779 257.4 666.32 258.942 666.32 260.843V363.777H435.011V260.843Z" fill="#F0F3F9"/>
<path d="M514.175 293.29C514.175 291.241 515.836 289.58 517.885 289.58H584.681C586.73 289.58 588.391 291.241 588.391 293.29C588.391 295.34 586.73 297.001 584.681 297.001H517.885C515.836 297.001 514.175 295.34 514.175 293.29Z" fill="#C4CAD8"/>
<path d="M545.913 317.769C545.913 316.945 546.581 316.277 547.405 316.277H568.292C569.116 316.277 569.784 316.945 569.784 317.769C569.784 318.593 569.116 319.261 568.292 319.261H547.405C546.581 319.261 545.913 318.593 545.913 317.769Z" fill="#D3D5DE"/>
<path d="M577.244 317.768C577.244 316.944 577.912 316.276 578.736 316.276H617.526C618.35 316.276 619.018 316.944 619.018 317.768C619.018 318.592 618.35 319.26 617.526 319.26H578.736C577.912 319.26 577.244 318.592 577.244 317.768Z" fill="#D3D5DE"/>
<path d="M483.251 317.768C483.251 316.944 483.919 316.276 484.743 316.276H536.961C537.785 316.276 538.453 316.944 538.453 317.768C538.453 318.592 537.785 319.26 536.961 319.26H484.743C483.919 319.26 483.251 318.592 483.251 317.768Z" fill="#D3D5DE"/>
<path d="M519.878 328.213C519.878 327.389 519.21 326.721 518.386 326.721H505.631C504.807 326.721 504.139 327.389 504.139 328.213C504.139 329.037 504.807 329.705 505.631 329.705H518.386C519.21 329.705 519.878 329.037 519.878 328.213Z" fill="#D3D5DE"/>
<path d="M554.062 328.213C554.062 327.389 553.394 326.721 552.57 326.721H528.01C527.186 326.721 526.518 327.389 526.518 328.213C526.518 329.037 527.186 329.705 528.01 329.705H552.57C553.394 329.705 554.062 329.037 554.062 328.213Z" fill="#D3D5DE"/>
<path d="M596.639 328.212C596.639 327.388 595.971 326.72 595.147 326.72H561.734C560.91 326.72 560.242 327.388 560.242 328.212C560.242 329.036 560.91 329.704 561.734 329.704H595.147C595.971 329.704 596.639 329.036 596.639 328.212Z" fill="#D3D5DE"/>
<g filter="url(#filter1_d_1045_342)">
<path d="M90.5 79.6704C90.5 74.599 94.6112 70.4878 99.6826 70.4878H408.008C413.08 70.4878 417.191 74.599 417.191 79.6704V266.999C417.191 272.071 413.08 276.182 408.008 276.182H99.6826C94.6112 276.182 90.5 272.071 90.5 266.999V79.6704Z" fill="white"/>
</g>
<path d="M118.327 214.567C118.327 212.665 119.869 211.123 121.771 211.123H386.149C388.051 211.123 389.592 212.665 389.592 214.567V240.069C389.592 241.971 388.051 243.513 386.149 243.513H121.771C119.869 243.513 118.327 241.971 118.327 240.069V214.567Z" fill="#F0F3F9"/>
<path d="M145.686 229.307V225.479H146.651V228.552H148.333V229.307H145.686Z" fill="#0A082E"/>
<path d="M150.939 229.407C150.551 229.407 150.211 229.347 149.921 229.229C149.635 229.106 149.398 228.947 149.209 228.751C149.021 228.552 148.88 228.339 148.786 228.112C148.696 227.881 148.651 227.657 148.651 227.44V227.325C148.651 227.087 148.698 226.853 148.792 226.622C148.89 226.392 149.035 226.182 149.227 225.993C149.419 225.801 149.659 225.649 149.945 225.537C150.231 225.421 150.562 225.364 150.939 225.364C151.315 225.364 151.647 225.421 151.933 225.537C152.219 225.649 152.459 225.801 152.651 225.993C152.843 226.182 152.988 226.392 153.086 226.622C153.184 226.853 153.233 227.087 153.233 227.325V227.44C153.233 227.657 153.186 227.881 153.092 228.112C152.998 228.339 152.857 228.552 152.668 228.751C152.48 228.947 152.241 229.106 151.951 229.229C151.664 229.347 151.327 229.407 150.939 229.407ZM150.939 228.604C151.21 228.604 151.443 228.55 151.639 228.442C151.839 228.334 151.992 228.187 152.098 228.001C152.204 227.816 152.257 227.612 152.257 227.388C152.257 227.15 152.202 226.94 152.092 226.759C151.986 226.573 151.835 226.428 151.639 226.323C151.443 226.219 151.21 226.166 150.939 226.166C150.668 226.166 150.435 226.219 150.239 226.323C150.043 226.428 149.892 226.573 149.786 226.759C149.68 226.94 149.627 227.15 149.627 227.388C149.627 227.612 149.68 227.816 149.786 228.001C149.892 228.187 150.043 228.334 150.239 228.442C150.435 228.55 150.668 228.604 150.939 228.604Z" fill="#0A082E"/>
<path d="M155.999 229.407C155.615 229.407 155.28 229.351 154.994 229.239C154.707 229.124 154.47 228.97 154.282 228.778C154.097 228.585 153.96 228.374 153.87 228.143C153.78 227.909 153.735 227.673 153.735 227.435V227.32C153.735 227.079 153.78 226.843 153.87 226.612C153.96 226.381 154.095 226.171 154.276 225.983C154.46 225.794 154.688 225.643 154.958 225.532C155.233 225.42 155.548 225.364 155.905 225.364C156.29 225.364 156.631 225.428 156.929 225.558C157.227 225.687 157.466 225.865 157.647 226.093C157.827 226.316 157.933 226.575 157.964 226.869H156.999C156.96 226.659 156.841 226.489 156.641 226.36C156.441 226.231 156.196 226.166 155.905 226.166C155.654 226.166 155.439 226.219 155.258 226.323C155.082 226.425 154.946 226.568 154.852 226.753C154.758 226.935 154.711 227.145 154.711 227.383C154.711 227.757 154.823 228.057 155.046 228.285C155.274 228.512 155.592 228.625 155.999 228.625C156.219 228.625 156.415 228.592 156.588 228.526C156.76 228.456 156.898 228.365 156.999 228.253V227.933H155.876V227.314H158.241V227.933H157.888V228.584C157.703 228.849 157.449 229.054 157.123 229.197C156.798 229.337 156.423 229.407 155.999 229.407Z" fill="#0A082E"/>
<path d="M160.912 229.407C160.523 229.407 160.184 229.347 159.894 229.229C159.608 229.106 159.37 228.947 159.182 228.751C158.994 228.552 158.853 228.339 158.759 228.112C158.668 227.881 158.623 227.657 158.623 227.44V227.325C158.623 227.087 158.67 226.853 158.765 226.622C158.863 226.392 159.008 226.182 159.2 225.993C159.392 225.801 159.631 225.649 159.918 225.537C160.204 225.421 160.535 225.364 160.912 225.364C161.288 225.364 161.62 225.421 161.906 225.537C162.192 225.649 162.431 225.801 162.624 225.993C162.816 226.182 162.961 226.392 163.059 226.622C163.157 226.853 163.206 227.087 163.206 227.325V227.44C163.206 227.657 163.159 227.881 163.065 228.112C162.971 228.339 162.829 228.552 162.641 228.751C162.453 228.947 162.214 229.106 161.923 229.229C161.637 229.347 161.3 229.407 160.912 229.407ZM160.912 228.604C161.182 228.604 161.416 228.55 161.612 228.442C161.812 228.334 161.965 228.187 162.071 228.001C162.176 227.816 162.229 227.612 162.229 227.388C162.229 227.15 162.174 226.94 162.065 226.759C161.959 226.573 161.808 226.428 161.612 226.323C161.416 226.219 161.182 226.166 160.912 226.166C160.641 226.166 160.408 226.219 160.212 226.323C160.016 226.428 159.865 226.573 159.759 226.759C159.653 226.94 159.6 227.15 159.6 227.388C159.6 227.612 159.653 227.816 159.759 228.001C159.865 228.187 160.016 228.334 160.212 228.442C160.408 228.55 160.641 228.604 160.912 228.604Z" fill="#0A082E"/>
<path d="M130.428 224.153C134.442 224.153 137.695 227.407 137.695 231.421H130.428V224.153Z" fill="#3056D3"/>
<path d="M134.788 231.421C134.788 227.407 138.042 224.154 142.056 224.154V231.421H134.788Z" fill="#9FAFE3"/>
<path d="M193.906 227.317C193.906 226.572 194.51 225.968 195.255 225.968H216.849C217.594 225.968 218.198 226.572 218.198 227.317C218.198 228.063 217.594 228.667 216.849 228.667H195.255C194.51 228.667 193.906 228.063 193.906 227.317Z" fill="#D3D5DE"/>
<path d="M228.994 227.317C228.994 226.572 229.598 225.968 230.343 225.968H245.189C245.934 225.968 246.538 226.572 246.538 227.317C246.538 228.063 245.934 228.667 245.189 228.667H230.343C229.598 228.667 228.994 228.063 228.994 227.317Z" fill="#D3D5DE"/>
<path d="M257.336 227.317C257.336 226.572 257.941 225.968 258.686 225.968H285.677C286.423 225.968 287.027 226.572 287.027 227.317C287.027 228.063 286.423 228.667 285.677 228.667H258.686C257.941 228.667 257.336 228.063 257.336 227.317Z" fill="#D3D5DE"/>
<path d="M297.823 227.317C297.823 226.572 298.427 225.968 299.173 225.968H307.27C308.015 225.968 308.62 226.572 308.62 227.317C308.62 228.063 308.015 228.667 307.27 228.667H299.173C298.427 228.667 297.823 228.063 297.823 227.317Z" fill="#D3D5DE"/>
<path d="M361.253 223.848C361.253 223.528 361.512 223.27 361.832 223.27H372.243C372.562 223.27 372.821 223.528 372.821 223.848C372.821 224.167 372.562 224.426 372.243 224.426H361.832C361.512 224.426 361.253 224.167 361.253 223.848Z" fill="#3056D3"/>
<path d="M361.254 227.318C361.254 226.999 361.512 226.74 361.832 226.74H372.243C372.562 226.74 372.821 226.999 372.821 227.318C372.821 227.638 372.562 227.897 372.243 227.897H361.832C361.512 227.897 361.254 227.638 361.254 227.318Z" fill="#3056D3"/>
<path d="M361.254 230.789C361.254 230.47 361.512 230.211 361.832 230.211H372.243C372.562 230.211 372.821 230.47 372.821 230.789C372.821 231.109 372.562 231.368 372.243 231.368H361.832C361.512 231.368 361.254 231.109 361.254 230.789Z" fill="#3056D3"/>
<path d="M118.327 161.048C118.327 159.147 119.869 157.605 121.771 157.605H386.149C388.051 157.605 389.592 159.147 389.592 161.048V186.551C389.592 188.453 388.051 189.995 386.149 189.995H121.771C119.869 189.995 118.327 188.453 118.327 186.551V161.048Z" fill="#F0F3F9"/>
<path d="M256.204 175.567V172.117H257.074V174.886H258.59V175.567H256.204Z" fill="#0A082E"/>
<path d="M260.938 175.656C260.589 175.656 260.283 175.603 260.021 175.496C259.763 175.385 259.55 175.242 259.38 175.066C259.21 174.886 259.083 174.694 258.998 174.489C258.917 174.281 258.876 174.079 258.876 173.884V173.78C258.876 173.566 258.919 173.355 259.003 173.147C259.092 172.939 259.223 172.75 259.396 172.58C259.569 172.407 259.785 172.269 260.043 172.169C260.301 172.065 260.599 172.013 260.938 172.013C261.278 172.013 261.576 172.065 261.834 172.169C262.092 172.269 262.308 172.407 262.481 172.58C262.654 172.75 262.785 172.939 262.874 173.147C262.962 173.355 263.006 173.566 263.006 173.78V173.884C263.006 174.079 262.964 174.281 262.879 174.489C262.794 174.694 262.667 174.886 262.497 175.066C262.327 175.242 262.112 175.385 261.85 175.496C261.592 175.603 261.288 175.656 260.938 175.656ZM260.938 174.933C261.182 174.933 261.393 174.884 261.569 174.787C261.75 174.689 261.887 174.557 261.983 174.39C262.078 174.223 262.126 174.039 262.126 173.837C262.126 173.623 262.077 173.434 261.978 173.27C261.882 173.103 261.746 172.972 261.569 172.878C261.393 172.783 261.182 172.736 260.938 172.736C260.695 172.736 260.484 172.783 260.308 172.878C260.131 172.972 259.995 173.103 259.899 173.27C259.804 173.434 259.756 173.623 259.756 173.837C259.756 174.039 259.804 174.223 259.899 174.39C259.995 174.557 260.131 174.689 260.308 174.787C260.484 174.884 260.695 174.933 260.938 174.933Z" fill="#0A082E"/>
<path d="M265.499 175.656C265.153 175.656 264.851 175.606 264.593 175.505C264.335 175.401 264.121 175.263 263.951 175.089C263.785 174.916 263.661 174.725 263.58 174.517C263.499 174.306 263.458 174.094 263.458 173.879V173.775C263.458 173.558 263.499 173.345 263.58 173.137C263.661 172.93 263.783 172.74 263.946 172.57C264.112 172.4 264.317 172.265 264.561 172.164C264.808 172.063 265.093 172.013 265.414 172.013C265.761 172.013 266.068 172.071 266.337 172.188C266.605 172.304 266.821 172.465 266.984 172.67C267.146 172.871 267.242 173.104 267.27 173.369H266.4C266.365 173.18 266.257 173.027 266.077 172.911C265.897 172.794 265.676 172.736 265.414 172.736C265.188 172.736 264.994 172.783 264.831 172.878C264.672 172.969 264.55 173.098 264.465 173.265C264.38 173.429 264.338 173.618 264.338 173.832C264.338 174.169 264.439 174.44 264.64 174.645C264.845 174.85 265.132 174.952 265.499 174.952C265.697 174.952 265.874 174.922 266.029 174.862C266.185 174.799 266.308 174.717 266.4 174.617V174.328H265.388V173.771H267.519V174.328H267.201V174.914C267.035 175.154 266.805 175.338 266.512 175.467C266.218 175.593 265.881 175.656 265.499 175.656Z" fill="#0A082E"/>
<path d="M269.926 175.656C269.576 175.656 269.27 175.603 269.009 175.496C268.751 175.385 268.537 175.242 268.367 175.066C268.198 174.886 268.071 174.694 267.986 174.489C267.904 174.281 267.864 174.079 267.864 173.884V173.78C267.864 173.566 267.906 173.355 267.991 173.147C268.079 172.939 268.21 172.75 268.383 172.58C268.557 172.407 268.772 172.269 269.03 172.169C269.288 172.065 269.587 172.013 269.926 172.013C270.265 172.013 270.564 172.065 270.822 172.169C271.08 172.269 271.296 172.407 271.469 172.58C271.642 172.75 271.773 172.939 271.861 173.147C271.949 173.355 271.994 173.566 271.994 173.78V173.884C271.994 174.079 271.951 174.281 271.866 174.489C271.782 174.694 271.654 174.886 271.485 175.066C271.315 175.242 271.099 175.385 270.838 175.496C270.58 175.603 270.276 175.656 269.926 175.656ZM269.926 174.933C270.17 174.933 270.38 174.884 270.557 174.787C270.737 174.689 270.875 174.557 270.97 174.39C271.066 174.223 271.114 174.039 271.114 173.837C271.114 173.623 271.064 173.434 270.965 173.27C270.87 173.103 270.734 172.972 270.557 172.878C270.38 172.783 270.17 172.736 269.926 172.736C269.682 172.736 269.472 172.783 269.295 172.878C269.119 172.972 268.982 173.103 268.887 173.27C268.792 173.434 268.744 173.623 268.744 173.837C268.744 174.039 268.792 174.223 268.887 174.39C268.982 174.557 269.119 174.689 269.295 174.787C269.472 174.884 269.682 174.933 269.926 174.933Z" fill="#0A082E"/>
<path d="M242.677 168.495L247.755 177.29H237.599L242.677 168.495Z" fill="#9FAFE3"/>
<path d="M248.539 168.494L253.617 177.289H243.462L248.539 168.494Z" fill="#3056D3"/>
<path d="M293.773 173.335C293.773 172.59 294.377 171.985 295.122 171.985H303.22C303.965 171.985 304.569 172.59 304.569 173.335C304.569 174.08 303.965 174.685 303.22 174.685H295.122C294.377 174.685 293.773 174.08 293.773 173.335Z" fill="#D3D5DE"/>
<path d="M314.016 173.335C314.016 172.59 314.62 171.985 315.366 171.985H341.008C341.753 171.985 342.357 172.59 342.357 173.335C342.357 174.08 341.753 174.685 341.008 174.685H315.366C314.62 174.685 314.016 174.08 314.016 173.335Z" fill="#D3D5DE"/>
<path d="M351.805 173.335C351.805 172.59 352.409 171.985 353.155 171.985H370.699C371.445 171.985 372.049 172.59 372.049 173.335C372.049 174.08 371.445 174.685 370.699 174.685H353.155C352.409 174.685 351.805 174.08 351.805 173.335Z" fill="#D3D5DE"/>
<path d="M214.147 173.334C214.147 174.079 213.543 174.684 212.797 174.684H204.7C203.955 174.684 203.35 174.079 203.35 173.334C203.35 172.589 203.955 171.984 204.7 171.984H212.797C213.543 171.984 214.147 172.589 214.147 173.334Z" fill="#D3D5DE"/>
<path d="M193.903 173.334C193.903 174.079 193.299 174.684 192.553 174.684H166.911C166.166 174.684 165.562 174.079 165.562 173.334C165.562 172.589 166.166 171.984 166.911 171.984H192.553C193.299 171.984 193.903 172.589 193.903 173.334Z" fill="#D3D5DE"/>
<path d="M156.116 173.334C156.116 174.079 155.512 174.684 154.767 174.684H137.222C136.477 174.684 135.873 174.079 135.873 173.334C135.873 172.589 136.477 171.984 137.222 171.984H154.767C155.512 171.984 156.116 172.589 156.116 173.334Z" fill="#D3D5DE"/>
<path d="M118.327 106.6C118.327 104.698 119.869 103.157 121.771 103.157H386.149C388.051 103.157 389.592 104.698 389.592 106.6V132.103C389.592 134.005 388.051 135.547 386.149 135.547H121.771C119.869 135.547 118.327 134.005 118.327 132.103V106.6Z" fill="#F0F3F9"/>
<path d="M307.268 119.352C307.268 120.097 306.664 120.702 305.918 120.702H284.325C283.58 120.702 282.976 120.097 282.976 119.352C282.976 118.607 283.58 118.003 284.325 118.003H305.918C306.664 118.003 307.268 118.607 307.268 119.352Z" fill="#D3D5DE"/>
<path d="M272.179 119.352C272.179 120.097 271.575 120.702 270.829 120.702H255.984C255.239 120.702 254.634 120.097 254.634 119.352C254.634 118.607 255.239 118.003 255.984 118.003H270.829C271.575 118.003 272.179 118.607 272.179 119.352Z" fill="#D3D5DE"/>
<path d="M243.837 119.352C243.837 120.097 243.233 120.702 242.488 120.702H215.496C214.751 120.702 214.147 120.097 214.147 119.352C214.147 118.607 214.751 118.003 215.496 118.003H242.488C243.233 118.003 243.837 118.607 243.837 119.352Z" fill="#D3D5DE"/>
<path d="M203.351 119.352C203.351 120.097 202.746 120.702 202.001 120.702H193.904C193.158 120.702 192.554 120.097 192.554 119.352C192.554 118.607 193.158 118.003 193.904 118.003H202.001C202.746 118.003 203.351 118.607 203.351 119.352Z" fill="#D3D5DE"/>
<path d="M343.707 116.249C343.707 114.981 344.735 113.953 346.003 113.953H376.5C377.768 113.953 378.796 114.981 378.796 116.249V123.804C378.796 125.072 377.768 126.099 376.5 126.099H346.003C344.735 126.099 343.707 125.072 343.707 123.804V116.249Z" fill="#3056D3"/>
<path d="M147.94 120.117V117.057H148.711V119.513H150.056V120.117H147.94Z" fill="#0A082E"/>
<path d="M152.139 120.197C151.829 120.197 151.557 120.149 151.325 120.054C151.097 119.956 150.907 119.829 150.756 119.673C150.606 119.513 150.493 119.343 150.418 119.161C150.346 118.977 150.31 118.798 150.31 118.625V118.533C150.31 118.343 150.347 118.155 150.423 117.971C150.501 117.786 150.617 117.619 150.771 117.468C150.924 117.314 151.115 117.193 151.344 117.103C151.573 117.011 151.838 116.965 152.139 116.965C152.44 116.965 152.705 117.011 152.934 117.103C153.162 117.193 153.354 117.314 153.507 117.468C153.661 117.619 153.777 117.786 153.855 117.971C153.934 118.155 153.973 118.343 153.973 118.533V118.625C153.973 118.798 153.935 118.977 153.86 119.161C153.785 119.343 153.672 119.513 153.521 119.673C153.371 119.829 153.18 119.956 152.948 120.054C152.719 120.149 152.449 120.197 152.139 120.197ZM152.139 119.555C152.355 119.555 152.542 119.512 152.699 119.425C152.858 119.339 152.981 119.221 153.065 119.073C153.15 118.925 153.192 118.762 153.192 118.583C153.192 118.393 153.148 118.225 153.061 118.08C152.976 117.932 152.855 117.816 152.699 117.732C152.542 117.648 152.355 117.606 152.139 117.606C151.923 117.606 151.736 117.648 151.579 117.732C151.423 117.816 151.302 117.932 151.217 118.08C151.133 118.225 151.09 118.393 151.09 118.583C151.09 118.762 151.133 118.925 151.217 119.073C151.302 119.221 151.423 119.339 151.579 119.425C151.736 119.512 151.923 119.555 152.139 119.555Z" fill="#0A082E"/>
<path d="M156.184 120.197C155.877 120.197 155.609 120.152 155.38 120.063C155.151 119.97 154.962 119.847 154.811 119.694C154.664 119.54 154.554 119.371 154.482 119.186C154.41 118.999 154.374 118.811 154.374 118.621V118.528C154.374 118.336 154.41 118.147 154.482 117.962C154.554 117.778 154.662 117.61 154.806 117.459C154.954 117.309 155.136 117.188 155.352 117.099C155.571 117.01 155.824 116.965 156.109 116.965C156.416 116.965 156.689 117.017 156.927 117.12C157.165 117.223 157.357 117.366 157.501 117.548C157.645 117.726 157.73 117.933 157.755 118.168H156.984C156.952 118 156.857 117.865 156.697 117.761C156.537 117.658 156.341 117.606 156.109 117.606C155.908 117.606 155.736 117.648 155.592 117.732C155.451 117.813 155.342 117.928 155.267 118.076C155.192 118.221 155.154 118.389 155.154 118.579C155.154 118.878 155.244 119.118 155.422 119.3C155.604 119.481 155.858 119.572 156.184 119.572C156.36 119.572 156.516 119.546 156.654 119.492C156.792 119.437 156.902 119.364 156.984 119.275V119.019H156.085V118.524H157.976V119.019H157.694V119.539C157.546 119.751 157.342 119.914 157.082 120.029C156.822 120.141 156.523 120.197 156.184 120.197Z" fill="#0A082E"/>
<path d="M160.111 120.197C159.8 120.197 159.529 120.149 159.297 120.054C159.068 119.956 158.879 119.829 158.728 119.673C158.578 119.513 158.465 119.343 158.39 119.161C158.318 118.977 158.282 118.798 158.282 118.625V118.533C158.282 118.343 158.319 118.155 158.394 117.971C158.473 117.786 158.589 117.619 158.742 117.468C158.896 117.314 159.087 117.193 159.316 117.103C159.545 117.011 159.81 116.965 160.111 116.965C160.412 116.965 160.677 117.011 160.906 117.103C161.134 117.193 161.326 117.314 161.479 117.468C161.633 117.619 161.749 117.786 161.827 117.971C161.906 118.155 161.945 118.343 161.945 118.533V118.625C161.945 118.798 161.907 118.977 161.832 119.161C161.757 119.343 161.644 119.513 161.493 119.673C161.343 119.829 161.152 119.956 160.92 120.054C160.691 120.149 160.421 120.197 160.111 120.197ZM160.111 119.555C160.327 119.555 160.514 119.512 160.67 119.425C160.83 119.339 160.953 119.221 161.037 119.073C161.122 118.925 161.164 118.762 161.164 118.583C161.164 118.393 161.12 118.225 161.032 118.08C160.948 117.932 160.827 117.816 160.67 117.732C160.514 117.648 160.327 117.606 160.111 117.606C159.895 117.606 159.708 117.648 159.551 117.732C159.395 117.816 159.274 117.932 159.189 118.08C159.105 118.225 159.062 118.393 159.062 118.583C159.062 118.762 159.105 118.925 159.189 119.073C159.274 119.221 159.395 119.339 159.551 119.425C159.708 119.512 159.895 119.555 160.111 119.555Z" fill="#0A082E"/>
<path d="M134.725 114.857C135.173 114.409 135.9 114.409 136.348 114.857L139.833 118.342C140.281 118.79 140.281 119.517 139.833 119.965L136.348 123.45C135.9 123.898 135.173 123.898 134.725 123.45L131.24 119.965C130.792 119.517 130.792 118.79 131.24 118.342L134.725 114.857Z" fill="#3056D3"/>
<path d="M137.644 114.857C138.092 114.409 138.819 114.409 139.267 114.857L142.752 118.342C143.2 118.79 143.2 119.517 142.752 119.965L139.267 123.45C138.819 123.898 138.092 123.898 137.644 123.45L134.159 119.965C133.711 119.517 133.711 118.79 134.159 118.342L137.644 114.857Z" fill="#9FAFE3"/>
<g filter="url(#filter2_d_1045_342)">
<path d="M104.37 306.201C104.37 301.129 108.482 297.018 113.553 297.018H435.269C440.341 297.018 444.452 301.129 444.452 306.201V501.961C444.452 507.032 440.341 511.143 435.269 511.143H113.553C108.482 511.143 104.37 507.032 104.37 501.961V306.201Z" fill="white"/>
</g>
<path d="M214.599 348.66H150.396C146.542 348.66 143.417 351.785 143.417 355.639V451.944C143.417 455.798 146.542 458.923 150.396 458.923H214.599C218.454 458.923 221.578 455.798 221.578 451.944V355.639C221.578 351.785 218.454 348.66 214.599 348.66Z" fill="#F0F3F9"/>
<path d="M205.527 403.094H159.468C158.312 403.094 157.374 404.031 157.374 405.187C157.374 406.344 158.312 407.281 159.468 407.281H205.527C206.683 407.281 207.621 406.344 207.621 405.187C207.621 404.031 206.683 403.094 205.527 403.094Z" fill="#32335A" fill-opacity="0.15"/>
<path d="M194.361 412.864H169.238C168.081 412.864 167.144 413.801 167.144 414.957C167.144 416.114 168.081 417.051 169.238 417.051H194.361C195.517 417.051 196.454 416.114 196.454 414.957C196.454 413.801 195.517 412.864 194.361 412.864Z" fill="#32335A" fill-opacity="0.15"/>
<path d="M306.718 348.66H242.514C238.66 348.66 235.536 351.785 235.536 355.639V451.944C235.536 455.798 238.66 458.923 242.514 458.923H306.718C310.572 458.923 313.696 455.798 313.696 451.944V355.639C313.696 351.785 310.572 348.66 306.718 348.66Z" fill="#3056D3"/>
<path d="M398.835 348.66H334.632C330.778 348.66 327.653 351.785 327.653 355.639V451.944C327.653 455.798 330.778 458.923 334.632 458.923H398.835C402.69 458.923 405.814 455.798 405.814 451.944V355.639C405.814 351.785 402.69 348.66 398.835 348.66Z" fill="#F0F3F9"/>
<path d="M166.923 384.949H169.284V380.337H173.825V378.39H169.284V375.73H174.316V373.783H166.923V384.949ZM175.725 384.949H178.048V380.211C178.048 379.181 178.8 378.472 179.825 378.472C180.147 378.472 180.589 378.526 180.807 378.597V376.537C180.6 376.487 180.311 376.455 180.076 376.455C179.139 376.455 178.37 377 178.064 378.036H177.977V376.575H175.725V384.949ZM185.434 385.113C187.506 385.113 188.902 384.104 189.229 382.55L187.081 382.408C186.846 383.046 186.247 383.379 185.472 383.379C184.311 383.379 183.575 382.61 183.575 381.362V381.356H189.278V380.718C189.278 377.872 187.555 376.466 185.342 376.466C182.877 376.466 181.28 378.216 181.28 380.8C181.28 383.455 182.855 385.113 185.434 385.113ZM183.575 379.917C183.624 378.963 184.349 378.199 185.38 378.199C186.388 378.199 187.086 378.919 187.092 379.917H183.575ZM194.61 385.113C196.682 385.113 198.078 384.104 198.405 382.55L196.257 382.408C196.022 383.046 195.423 383.379 194.648 383.379C193.487 383.379 192.751 382.61 192.751 381.362V381.356H198.454V380.718C198.454 377.872 196.731 376.466 194.517 376.466C192.053 376.466 190.456 378.216 190.456 380.8C190.456 383.455 192.031 385.113 194.61 385.113ZM192.751 379.917C192.8 378.963 193.525 378.199 194.556 378.199C195.564 378.199 196.262 378.919 196.267 379.917H192.751Z" fill="#505780"/>
<path d="M263.035 382.986H268.395V384.949H270.651V382.986H272.036V381.094H270.651V373.783H267.697L263.035 381.127V382.986ZM268.438 381.094H265.412V381.007L268.351 376.356H268.438V381.094ZM277.65 373.598C275.153 373.587 273.468 375.222 273.479 377.49C273.468 379.584 274.929 381.094 276.908 381.094C278.134 381.094 279.225 380.5 279.721 379.519H279.798C279.792 381.732 279.023 383.079 277.567 383.079C276.712 383.079 276.096 382.61 275.916 381.798H273.588C273.806 383.679 275.333 385.102 277.567 385.102C280.332 385.102 282.103 382.866 282.109 379.077C282.103 374.993 279.944 373.603 277.65 373.598ZM277.666 375.451C278.751 375.451 279.552 376.335 279.563 377.414C279.552 378.499 278.723 379.382 277.644 379.382C276.554 379.382 275.757 378.532 275.768 377.425C275.757 376.307 276.569 375.451 277.666 375.451ZM285.245 385.71H285.947L285.953 385.023C287.241 384.925 287.988 384.241 287.991 383.209C287.988 382.195 287.223 381.657 286.165 381.419L285.989 381.377L286 379.89C286.397 379.983 286.637 380.235 286.673 380.61H287.907C287.893 379.626 287.157 378.921 286.013 378.796L286.018 378.097H285.316L285.311 378.79C284.148 378.903 283.327 379.605 283.333 380.619C283.33 381.517 283.964 382.032 284.993 382.278L285.279 382.35L285.263 383.923C284.779 383.831 284.451 383.533 284.419 383.037H283.172C283.203 384.238 283.99 384.91 285.252 385.02L285.245 385.71ZM285.965 383.923L285.977 382.534C286.439 382.68 286.688 382.867 286.691 383.206C286.688 383.566 286.415 383.834 285.965 383.923ZM285.287 381.196C284.916 381.068 284.648 380.875 284.653 380.533C284.653 380.215 284.879 379.968 285.3 379.881L285.287 381.196Z" fill="white"/>
<path d="M359.497 373.63C357 373.62 355.316 375.255 355.327 377.501C355.332 379.584 356.777 381.094 358.756 381.094C359.983 381.094 361.073 380.5 361.57 379.519H361.645C361.641 381.732 360.872 383.079 359.416 383.079C358.561 383.079 357.944 382.61 357.764 381.798H355.436C355.655 383.679 357.18 385.102 359.416 385.102C362.18 385.102 363.963 382.866 363.958 379.077C363.952 375.032 361.793 373.641 359.497 373.63ZM359.514 375.484C360.598 375.484 361.401 376.367 361.412 377.431C361.416 378.499 360.572 379.382 359.493 379.382C358.402 379.382 357.623 378.532 357.617 377.436C357.606 376.346 358.418 375.484 359.514 375.484ZM369.633 373.63C367.136 373.62 365.451 375.255 365.463 377.501C365.468 379.584 366.913 381.094 368.892 381.094C370.119 381.094 371.209 380.5 371.706 379.519H371.781C371.775 381.732 371.008 383.079 369.552 383.079C368.695 383.079 368.08 382.61 367.899 381.798H365.571C365.789 383.679 367.316 385.102 369.552 385.102C372.316 385.102 374.098 382.866 374.092 379.077C374.088 375.032 371.929 373.641 369.633 373.63ZM369.65 375.484C370.734 375.484 371.535 376.367 371.546 377.431C371.552 378.499 370.708 379.382 369.627 379.382C368.537 379.382 367.757 378.532 367.752 377.436C367.742 376.346 368.554 375.484 369.65 375.484ZM377.23 385.71H377.931L377.938 385.023C379.224 384.925 379.971 384.241 379.974 383.209C379.971 382.195 379.208 381.657 378.148 381.419L377.972 381.377L377.985 379.89C378.38 379.983 378.621 380.235 378.656 380.61H379.892C379.876 379.626 379.142 378.921 377.996 378.796L378.003 378.097H377.301L377.294 378.79C376.131 378.903 375.311 379.605 375.318 380.619C375.314 381.517 375.947 382.032 376.977 382.278L377.262 382.35L377.247 383.923C376.762 383.831 376.436 383.533 376.402 383.037H375.157C375.187 384.238 375.974 384.91 377.235 385.02L377.23 385.71ZM377.949 383.923L377.961 382.534C378.422 382.68 378.672 382.867 378.674 383.206C378.672 383.566 378.398 383.834 377.949 383.923ZM377.27 381.196C376.899 381.068 376.631 380.875 376.638 380.533C376.638 380.215 376.864 379.968 377.283 379.881L377.27 381.196Z" fill="#505780"/>
<path d="M297.645 403.094H251.585C250.429 403.094 249.492 404.031 249.492 405.187C249.492 406.344 250.429 407.281 251.585 407.281H297.645C298.801 407.281 299.738 406.344 299.738 405.187C299.738 404.031 298.801 403.094 297.645 403.094Z" fill="white" fill-opacity="0.35"/>
<path d="M389.764 403.094H343.704C342.548 403.094 341.611 404.031 341.611 405.187C341.611 406.344 342.548 407.281 343.704 407.281H389.764C390.92 407.281 391.857 406.344 391.857 405.187C391.857 404.031 390.92 403.094 389.764 403.094Z" fill="#32335A" fill-opacity="0.15"/>
<path d="M286.478 412.864H261.355C260.199 412.864 259.262 413.801 259.262 414.957C259.262 416.114 260.199 417.051 261.355 417.051H286.478C287.635 417.051 288.572 416.114 288.572 414.957C288.572 413.801 287.635 412.864 286.478 412.864Z" fill="white" fill-opacity="0.35"/>
<path d="M378.597 412.864H353.474C352.318 412.864 351.38 413.801 351.38 414.957C351.38 416.114 352.318 417.051 353.474 417.051H378.597C379.753 417.051 380.691 416.114 380.691 414.957C380.691 413.801 379.753 412.864 378.597 412.864Z" fill="#32335A" fill-opacity="0.15"/>
<path d="M294.156 432.404H255.075C253.534 432.404 252.284 433.654 252.284 435.195V442.174C252.284 443.716 253.534 444.965 255.075 444.965H294.156C295.697 444.965 296.947 443.716 296.947 442.174V435.195C296.947 433.654 295.697 432.404 294.156 432.404Z" fill="white"/>
<path d="M202.038 432.404H162.958C161.416 432.404 160.166 433.654 160.166 435.195V442.174C160.166 443.716 161.416 444.965 162.958 444.965H202.038C203.58 444.965 204.83 443.716 204.83 442.174V435.195C204.83 433.654 203.58 432.404 202.038 432.404Z" fill="#D3D5DE"/>
<path d="M386.274 432.404H347.194C345.652 432.404 344.403 433.654 344.403 435.195V442.174C344.403 443.716 345.652 444.965 347.194 444.965H386.274C387.816 444.965 389.066 443.716 389.066 442.174V435.195C389.066 433.654 387.816 432.404 386.274 432.404Z" fill="#D3D5DE"/>
<g filter="url(#filter3_d_1045_342)">
<path d="M362.438 393.269C362.438 388.197 366.55 384.086 371.621 384.086H683.935C689.006 384.086 693.117 388.197 693.117 393.269V599.379C693.117 604.45 689.006 608.561 683.935 608.561H371.621C366.55 608.561 362.438 604.45 362.438 599.379V393.269Z" fill="white"/>
</g>
<path d="M574.924 455.547C574.924 454.825 575.509 454.24 576.231 454.24H614.143C614.865 454.24 615.45 454.825 615.45 455.547C615.45 456.269 614.865 456.854 614.143 456.854H576.231C575.509 456.854 574.924 456.269 574.924 455.547Z" fill="#B5BCCA"/>
<path d="M574.924 462.083C574.924 461.361 575.509 460.776 576.231 460.776H601.07C601.792 460.776 602.377 461.361 602.377 462.083C602.377 462.805 601.792 463.39 601.07 463.39H576.231C575.509 463.39 574.924 462.805 574.924 462.083Z" fill="#CCD5E9"/>
<path d="M636.366 458.162C636.366 455.996 638.122 454.24 640.288 454.24C642.454 454.24 644.21 455.996 644.21 458.162C644.21 460.328 642.454 462.084 640.288 462.084C638.122 462.084 636.366 460.328 636.366 458.162Z" fill="#3056D3"/>
<path d="M642.073 457.213C642.03 457.17 641.963 457.17 641.92 457.213L639.683 459.382C639.665 459.401 639.64 459.401 639.622 459.382L638.513 458.304C638.47 458.261 638.402 458.261 638.359 458.304C638.316 458.347 638.316 458.414 638.359 458.457L639.468 459.535C639.518 459.584 639.585 459.609 639.646 459.609C639.714 459.609 639.775 459.584 639.824 459.535L642.061 457.366C642.11 457.323 642.11 457.256 642.073 457.213Z" fill="white"/>
<path d="M574.924 475.156C574.924 474.434 575.509 473.849 576.231 473.849H614.143C614.865 473.849 615.45 474.434 615.45 475.156C615.45 475.878 614.865 476.463 614.143 476.463H576.231C575.509 476.463 574.924 475.878 574.924 475.156Z" fill="#B5BCCA"/>
<path d="M574.924 481.692C574.924 480.97 575.51 480.385 576.232 480.385H601.07C601.792 480.385 602.378 480.97 602.378 481.692C602.378 482.414 601.792 482.999 601.07 482.999H576.232C575.51 482.999 574.924 482.414 574.924 481.692Z" fill="#CCD5E9"/>
<path d="M636.366 477.771C636.366 475.605 638.122 473.849 640.288 473.849C642.454 473.849 644.21 475.605 644.21 477.771C644.21 479.937 642.454 481.692 640.288 481.692C638.122 481.692 636.366 479.937 636.366 477.771Z" fill="#3056D3"/>
<path d="M642.073 476.822C642.03 476.779 641.962 476.779 641.919 476.822L639.683 478.992C639.664 479.01 639.64 479.01 639.621 478.992L638.512 477.913C638.469 477.87 638.402 477.87 638.359 477.913C638.316 477.956 638.316 478.023 638.359 478.066L639.468 479.145C639.517 479.194 639.585 479.218 639.646 479.218C639.713 479.218 639.775 479.194 639.824 479.145L642.06 476.975C642.109 476.933 642.109 476.865 642.073 476.822Z" fill="white"/>
<path d="M574.924 493.459C574.924 492.737 575.509 492.151 576.231 492.151H614.143C614.865 492.151 615.45 492.737 615.45 493.459C615.45 494.181 614.865 494.766 614.143 494.766H576.231C575.509 494.766 574.924 494.181 574.924 493.459Z" fill="#B5BCCA"/>
<path d="M574.924 499.995C574.924 499.273 575.509 498.688 576.231 498.688H601.07C601.792 498.688 602.377 499.273 602.377 499.995C602.377 500.717 601.792 501.303 601.07 501.303H576.231C575.509 501.303 574.924 500.717 574.924 499.995Z" fill="#CCD5E9"/>
<path d="M636.367 496.073C636.367 493.907 638.123 492.151 640.289 492.151C642.455 492.151 644.211 493.907 644.211 496.073C644.211 498.239 642.455 499.995 640.289 499.995C638.123 499.995 636.367 498.239 636.367 496.073Z" fill="#3056D3"/>
<path d="M642.075 495.125C642.032 495.082 641.964 495.082 641.921 495.125L639.685 497.294C639.666 497.313 639.642 497.313 639.623 497.294L638.514 496.216C638.471 496.173 638.404 496.173 638.361 496.216C638.318 496.259 638.318 496.326 638.361 496.369L639.47 497.447C639.519 497.496 639.587 497.521 639.648 497.521C639.715 497.521 639.777 497.496 639.826 497.447L642.062 495.278C642.111 495.235 642.111 495.168 642.075 495.125Z" fill="white"/>
<path d="M574.923 513.068C574.923 512.346 575.508 511.761 576.23 511.761H614.142C614.864 511.761 615.45 512.346 615.45 513.068C615.45 513.79 614.864 514.375 614.142 514.375H576.23C575.508 514.375 574.923 513.79 574.923 513.068Z" fill="#B5BCCA"/>
<path d="M574.923 519.605C574.923 518.883 575.508 518.298 576.23 518.298H601.069C601.791 518.298 602.376 518.883 602.376 519.605C602.376 520.327 601.791 520.912 601.069 520.912H576.23C575.508 520.912 574.923 520.327 574.923 519.605Z" fill="#CCD5E9"/>
<path d="M636.366 515.683C636.366 513.517 638.122 511.761 640.288 511.761C642.454 511.761 644.21 513.517 644.21 515.683C644.21 517.849 642.454 519.605 640.288 519.605C638.122 519.605 636.366 517.849 636.366 515.683Z" fill="#3056D3"/>
<path d="M642.073 514.735C642.03 514.692 641.963 514.692 641.92 514.735L639.683 516.904C639.665 516.922 639.641 516.922 639.622 516.904L638.513 515.826C638.47 515.783 638.403 515.783 638.36 515.826C638.317 515.868 638.317 515.936 638.36 515.979L639.469 517.057C639.518 517.106 639.585 517.131 639.647 517.131C639.714 517.131 639.775 517.106 639.824 517.057L642.061 514.888C642.11 514.845 642.11 514.778 642.073 514.735Z" fill="white"/>
<path d="M410.203 432.844C410.203 430.943 411.745 429.401 413.646 429.401H479.969C481.87 429.401 483.412 430.943 483.412 432.844V542.307C483.412 544.209 481.87 545.751 479.969 545.751H413.646C411.745 545.751 410.203 544.209 410.203 542.307V432.844Z" fill="#F0F3F9"/>
<path d="M495.178 432.844C495.178 430.943 496.72 429.401 498.622 429.401H541.412C543.314 429.401 544.856 430.943 544.856 432.844V478.25C544.856 480.151 543.314 481.693 541.412 481.693H498.622C496.72 481.693 495.178 480.151 495.178 478.25V432.844Z" fill="#F0F3F9"/>
<path d="M495.177 496.902C495.177 495.001 496.719 493.459 498.62 493.459H541.411C543.313 493.459 544.855 495.001 544.855 496.902V542.308C544.855 544.209 543.313 545.751 541.411 545.751H498.62C496.719 545.751 495.177 544.209 495.177 542.308V496.902Z" fill="#F0F3F9"/>
<g filter="url(#filter4_d_1045_342)">
<path d="M153.63 491.739C153.63 486.668 157.742 482.557 162.813 482.557H419.926C424.998 482.557 429.109 486.668 429.109 491.739V646.823C429.109 651.895 424.998 656.006 419.926 656.006H162.813C157.742 656.006 153.63 651.895 153.63 646.823V491.739Z" fill="white"/>
</g>
<path d="M179.132 527.841C179.132 525.939 180.674 524.397 182.576 524.397H232.715C234.617 524.397 236.158 525.939 236.158 527.841V577.98C236.158 579.882 234.617 581.423 232.715 581.423H182.576C180.674 581.423 179.132 579.882 179.132 577.98V527.841Z" fill="#F0F3F9"/>
<path d="M179.132 590.523C179.132 589.517 179.947 588.703 180.952 588.703H207.645C208.65 588.703 209.465 589.517 209.465 590.523C209.465 591.528 208.65 592.343 207.645 592.343H180.952C179.947 592.343 179.132 591.528 179.132 590.523Z" fill="#EFF1F5"/>
<path d="M179.132 598.41C179.132 597.74 179.675 597.197 180.345 597.197H193.692C194.362 597.197 194.905 597.74 194.905 598.41C194.905 599.08 194.362 599.623 193.692 599.623H180.345C179.675 599.623 179.132 599.08 179.132 598.41Z" fill="#EFF1F5"/>
<path d="M198.545 598.41C198.545 597.74 199.088 597.197 199.758 597.197H215.532C216.202 597.197 216.745 597.74 216.745 598.41C216.745 599.08 216.202 599.623 215.532 599.623H199.758C199.088 599.623 198.545 599.08 198.545 598.41Z" fill="#EFF1F5"/>
<path d="M179.132 611.15C179.132 609.474 180.49 608.116 182.165 608.116C183.841 608.116 185.199 609.474 185.199 611.15C185.199 612.825 183.841 614.183 182.165 614.183C180.49 614.183 179.132 612.825 179.132 611.15Z" fill="#3056D3"/>
<path d="M188.839 611.15C188.839 609.474 190.197 608.116 191.872 608.116C193.548 608.116 194.906 609.474 194.906 611.15C194.906 612.825 193.548 614.183 191.872 614.183C190.197 614.183 188.839 612.825 188.839 611.15Z" fill="#3056D3"/>
<path d="M198.545 611.15C198.545 609.474 199.903 608.116 201.579 608.116C203.254 608.116 204.612 609.474 204.612 611.15C204.612 612.825 203.254 614.183 201.579 614.183C199.903 614.183 198.545 612.825 198.545 611.15Z" fill="#3056D3"/>
<path d="M262.851 527.841C262.851 525.939 264.393 524.397 266.295 524.397H316.434C318.335 524.397 319.877 525.939 319.877 527.841V577.98C319.877 579.882 318.335 581.423 316.434 581.423H266.295C264.393 581.423 262.851 579.882 262.851 577.98V527.841Z" fill="#F0F3F9"/>
<path d="M262.85 590.523C262.85 589.518 263.665 588.703 264.67 588.703H291.363C292.369 588.703 293.183 589.518 293.183 590.523C293.183 591.528 292.369 592.343 291.363 592.343H264.67C263.665 592.343 262.85 591.528 262.85 590.523Z" fill="#EFF1F5"/>
<path d="M262.85 598.411C262.85 597.74 263.394 597.197 264.064 597.197H277.41C278.08 597.197 278.624 597.74 278.624 598.411C278.624 599.081 278.08 599.624 277.41 599.624H264.064C263.394 599.624 262.85 599.081 262.85 598.411Z" fill="#EFF1F5"/>
<path d="M282.263 598.411C282.263 597.74 282.806 597.197 283.476 597.197H299.249C299.919 597.197 300.463 597.74 300.463 598.411C300.463 599.081 299.919 599.624 299.249 599.624H283.476C282.806 599.624 282.263 599.081 282.263 598.411Z" fill="#EFF1F5"/>
<path d="M262.85 611.15C262.85 609.474 264.209 608.116 265.884 608.116C267.559 608.116 268.917 609.474 268.917 611.15C268.917 612.825 267.559 614.183 265.884 614.183C264.209 614.183 262.85 612.825 262.85 611.15Z" fill="#3056D3"/>
<path d="M272.556 611.15C272.556 609.474 273.914 608.116 275.59 608.116C277.265 608.116 278.623 609.474 278.623 611.15C278.623 612.825 277.265 614.183 275.59 614.183C273.914 614.183 272.556 612.825 272.556 611.15Z" fill="#3056D3"/>
<path d="M282.263 611.15C282.263 609.474 283.621 608.116 285.296 608.116C286.971 608.116 288.329 609.474 288.329 611.15C288.329 612.825 286.971 614.183 285.296 614.183C283.621 614.183 282.263 612.825 282.263 611.15Z" fill="#3056D3"/>
<path d="M346.57 527.841C346.57 525.939 348.112 524.397 350.013 524.397H400.152C402.054 524.397 403.596 525.939 403.596 527.841V577.98C403.596 579.882 402.054 581.423 400.152 581.423H350.013C348.112 581.423 346.57 579.882 346.57 577.98V527.841Z" fill="#F0F3F9"/>
<path d="M346.57 590.523C346.57 589.518 347.384 588.703 348.39 588.703H375.083C376.088 588.703 376.903 589.518 376.903 590.523C376.903 591.528 376.088 592.343 375.083 592.343H348.39C347.384 592.343 346.57 591.528 346.57 590.523Z" fill="#EFF1F5"/>
<path d="M346.57 598.411C346.57 597.74 347.113 597.197 347.783 597.197H361.129C361.799 597.197 362.343 597.74 362.343 598.411C362.343 599.081 361.799 599.624 361.129 599.624H347.783C347.113 599.624 346.57 599.081 346.57 598.411Z" fill="#EFF1F5"/>
<path d="M365.982 598.411C365.982 597.74 366.526 597.197 367.196 597.197H382.969C383.639 597.197 384.182 597.74 384.182 598.411C384.182 599.081 383.639 599.624 382.969 599.624H367.196C366.526 599.624 365.982 599.081 365.982 598.411Z" fill="#EFF1F5"/>
<path d="M346.57 611.15C346.57 609.474 347.928 608.116 349.603 608.116C351.278 608.116 352.636 609.474 352.636 611.15C352.636 612.825 351.278 614.183 349.603 614.183C347.928 614.183 346.57 612.825 346.57 611.15Z" fill="#3056D3"/>
<path d="M356.276 611.15C356.276 609.474 357.634 608.116 359.309 608.116C360.985 608.116 362.343 609.474 362.343 611.15C362.343 612.825 360.985 614.183 359.309 614.183C357.634 614.183 356.276 612.825 356.276 611.15Z" fill="#3056D3"/>
<path d="M365.982 611.15C365.982 609.474 367.34 608.116 369.016 608.116C370.691 608.116 372.049 609.474 372.049 611.15C372.049 612.825 370.691 614.183 369.016 614.183C367.34 614.183 365.982 612.825 365.982 611.15Z" fill="#3056D3"/>
<defs>
<filter id="filter0_d_1045_342" x="294.296" y="83.5149" width="533.976" height="410.281" filterUnits="userSpaceOnUse" color-interpolation-filters="sRGB">
<feFlood flood-opacity="0" result="BackgroundImageFix"/>
<feColorMatrix in="SourceAlpha" type="matrix" values="0 0 0 0 0 0 0 0 0 0 0 0 0 0 0 0 0 0 127 0" result="hardAlpha"/>
<feOffset dx="10" dy="30"/>
<feGaussianBlur stdDeviation="50"/>
<feColorMatrix type="matrix" values="0 0 0 0 0 0 0 0 0 0 0 0 0 0 0 0 0 0 0.15 0"/>
<feBlend mode="normal" in2="BackgroundImageFix" result="effect1_dropShadow_1045_342"/>
<feBlend mode="normal" in="SourceGraphic" in2="effect1_dropShadow_1045_342" result="shape"/>
</filter>
<filter id="filter1_d_1045_342" x="0.5" y="0.487793" width="526.691" height="405.694" filterUnits="userSpaceOnUse" color-interpolation-filters="sRGB">
<feFlood flood-opacity="0" result="BackgroundImageFix"/>
<feColorMatrix in="SourceAlpha" type="matrix" values="0 0 0 0 0 0 0 0 0 0 0 0 0 0 0 0 0 0 127 0" result="hardAlpha"/>
<feOffset dx="10" dy="30"/>
<feGaussianBlur stdDeviation="50"/>
<feColorMatrix type="matrix" values="0 0 0 0 0 0 0 0 0 0 0 0 0 0 0 0 0 0 0.25 0"/>
<feBlend mode="normal" in2="BackgroundImageFix" result="effect1_dropShadow_1045_342"/>
<feBlend mode="normal" in="SourceGraphic" in2="effect1_dropShadow_1045_342" result="shape"/>
</filter>
<filter id="filter2_d_1045_342" x="14.3701" y="232.018" width="540.082" height="414.125" filterUnits="userSpaceOnUse" color-interpolation-filters="sRGB">
<feFlood flood-opacity="0" result="BackgroundImageFix"/>
<feColorMatrix in="SourceAlpha" type="matrix" values="0 0 0 0 0 0 0 0 0 0 0 0 0 0 0 0 0 0 127 0" result="hardAlpha"/>
<feOffset dx="10" dy="35"/>
<feGaussianBlur stdDeviation="50"/>
<feColorMatrix type="matrix" values="0 0 0 0 0 0 0 0 0 0 0 0 0 0 0 0 0 0 0.15 0"/>
<feBlend mode="normal" in2="BackgroundImageFix" result="effect1_dropShadow_1045_342"/>
<feBlend mode="normal" in="SourceGraphic" in2="effect1_dropShadow_1045_342" result="shape"/>
</filter>
<filter id="filter3_d_1045_342" x="272.438" y="294.086" width="530.679" height="424.475" filterUnits="userSpaceOnUse" color-interpolation-filters="sRGB">
<feFlood flood-opacity="0" result="BackgroundImageFix"/>
<feColorMatrix in="SourceAlpha" type="matrix" values="0 0 0 0 0 0 0 0 0 0 0 0 0 0 0 0 0 0 127 0" result="hardAlpha"/>
<feOffset dx="10" dy="10"/>
<feGaussianBlur stdDeviation="50"/>
<feColorMatrix type="matrix" values="0 0 0 0 0 0 0 0 0 0 0 0 0 0 0 0 0 0 0.2 0"/>
<feBlend mode="normal" in2="BackgroundImageFix" result="effect1_dropShadow_1045_342"/>
<feBlend mode="normal" in="SourceGraphic" in2="effect1_dropShadow_1045_342" result="shape"/>
</filter>
<filter id="filter4_d_1045_342" x="63.6299" y="396.557" width="475.479" height="373.449" filterUnits="userSpaceOnUse" color-interpolation-filters="sRGB">
<feFlood flood-opacity="0" result="BackgroundImageFix"/>
<feColorMatrix in="SourceAlpha" type="matrix" values="0 0 0 0 0 0 0 0 0 0 0 0 0 0 0 0 0 0 127 0" result="hardAlpha"/>
<feOffset dx="10" dy="14"/>
<feGaussianBlur stdDeviation="50"/>
<feColorMatrix type="matrix" values="0 0 0 0 0 0 0 0 0 0 0 0 0 0 0 0 0 0 0.2 0"/>
<feBlend mode="normal" in2="BackgroundImageFix" result="effect1_dropShadow_1045_342"/>
<feBlend mode="normal" in="SourceGraphic" in2="effect1_dropShadow_1045_342" result="shape"/>
</filter>
<linearGradient id="paint0_linear_1045_342" x1="384.917" y1="694.905" x2="517.491" y2="632.923" gradientUnits="userSpaceOnUse">
<stop stop-color="#3056D3"/>
<stop offset="1" stop-color="#3056D3" stop-opacity="0"/>
</linearGradient>
<linearGradient id="paint1_linear_1045_342" x1="652.069" y1="152.649" x2="286.778" y2="114.917" gradientUnits="userSpaceOnUse">
<stop stop-color="#3056D3"/>
<stop offset="1" stop-color="#3056D3" stop-opacity="0"/>
</linearGradient>
<linearGradient id="paint2_linear_1045_342" x1="631.7" y1="109.528" x2="743.616" y2="137.285" gradientUnits="userSpaceOnUse">
<stop stop-color="#3056D3"/>
<stop offset="1" stop-color="#3056D3" stop-opacity="0"/>
</linearGradient>
<linearGradient id="paint3_linear_1045_342" x1="683.352" y1="93.9459" x2="779.901" y2="118.377" gradientUnits="userSpaceOnUse">
<stop stop-color="#3056D3"/>
<stop offset="1" stop-color="#3056D3" stop-opacity="0"/>
</linearGradient>
<linearGradient id="paint4_linear_1045_342" x1="620.222" y1="637.844" x2="484.835" y2="597.355" gradientUnits="userSpaceOnUse">
<stop stop-color="#3056D3"/>
<stop offset="1" stop-color="#3056D3" stop-opacity="0"/>
</linearGradient>
</defs>
</svg>
